<?xml version="1.0" encoding="UTF-8" standalone="no"?>
<!DOCTYPE svg PUBLIC "-//W3C//DTD SVG 1.1//EN"
 "http://www.w3.org/Graphics/SVG/1.1/DTD/svg11.dtd">
<!-- Generated by graphviz version 2.47.3 (20210619.1520)
 -->
<!-- Title: dependencies Pages: 1 -->
<svg width="2445pt" height="174pt"
 viewBox="0.00 0.00 2445.00 173.80" xmlns="http://www.w3.org/2000/svg" xmlns:xlink="http://www.w3.org/1999/xlink">
<g id="graph0" class="graph" transform="scale(1 1) rotate(0) translate(4 169.8)">
<title>dependencies</title>
<polygon fill="white" stroke="transparent" points="-4,4 -4,-169.8 2441,-169.8 2441,4 -4,4"/>
<text text-anchor="middle" x="1218.5" y="-8.2" font-family="sans-serif" font-size="14.00">dependencies</text>
<g id="clust1" class="cluster">
<title>cluster_TeachersModule</title>
<polygon fill="none" stroke="black" stroke-dasharray="1,5" points="8,-32.8 8,-157.8 2429,-157.8 2429,-32.8 8,-32.8"/>
</g>
<g id="clust11" class="cluster">
<title>cluster_TeachersModule_providers</title>
<polygon fill="none" stroke="black" points="1212,-40.8 1212,-92.8 2421,-92.8 2421,-40.8 1212,-40.8"/>
</g>
<g id="clust2" class="cluster">
<title>cluster_TeachersModule_declarations</title>
<polygon fill="none" stroke="black" points="312,-40.8 312,-92.8 1204,-92.8 1204,-40.8 312,-40.8"/>
</g>
<g id="clust8" class="cluster">
<title>cluster_TeachersModule_imports</title>
<polygon fill="none" stroke="black" points="16,-40.8 16,-92.8 304,-92.8 304,-40.8 16,-40.8"/>
</g>
<!-- ScoresEditComponent -->
<g id="node1" class="node">
<title>ScoresEditComponent</title>
<polygon fill="#ffffb3" stroke="black" points="1195.98,-84.8 1054.02,-84.8 1054.02,-48.8 1195.98,-48.8 1195.98,-84.8"/>
<text text-anchor="middle" x="1125" y="-62.6" font-family="Times,serif" font-size="14.00">ScoresEditComponent</text>
</g>
<!-- TeachersModule -->
<g id="node6" class="node">
<title>TeachersModule</title>
<polygon fill="#8dd3c7" stroke="black" points="1180.07,-149.8 1177.07,-153.8 1156.07,-153.8 1153.07,-149.8 1069.93,-149.8 1069.93,-113.8 1180.07,-113.8 1180.07,-149.8"/>
<text text-anchor="middle" x="1125" y="-127.6" font-family="Times,serif" font-size="14.00">TeachersModule</text>
</g>
<!-- ScoresEditComponent&#45;&gt;TeachersModule -->
<g id="edge1" class="edge">
<title>ScoresEditComponent&#45;&gt;TeachersModule</title>
<path fill="none" stroke="black" d="M1125,-84.91C1125,-84.91 1125,-103.79 1125,-103.79"/>
<polygon fill="black" stroke="black" points="1121.5,-103.79 1125,-113.79 1128.5,-103.79 1121.5,-103.79"/>
</g>
<!-- TeacherCoursesComponent -->
<g id="node2" class="node">
<title>TeacherCoursesComponent</title>
<polygon fill="#ffffb3" stroke="black" points="1035.51,-84.8 864.49,-84.8 864.49,-48.8 1035.51,-48.8 1035.51,-84.8"/>
<text text-anchor="middle" x="950" y="-62.6" font-family="Times,serif" font-size="14.00">TeacherCoursesComponent</text>
</g>
<!-- TeacherCoursesComponent&#45;&gt;TeachersModule -->
<g id="edge2" class="edge">
<title>TeacherCoursesComponent&#45;&gt;TeachersModule</title>
<path fill="none" stroke="black" d="M950,-85.04C950,-100.37 950,-119.8 950,-119.8 950,-119.8 1059.63,-119.8 1059.63,-119.8"/>
<polygon fill="black" stroke="black" points="1059.63,-123.3 1069.63,-119.8 1059.63,-116.3 1059.63,-123.3"/>
</g>
<!-- TeachersComponent -->
<g id="node3" class="node">
<title>TeachersComponent</title>
<polygon fill="#ffffb3" stroke="black" points="845.85,-84.8 714.15,-84.8 714.15,-48.8 845.85,-48.8 845.85,-84.8"/>
<text text-anchor="middle" x="780" y="-62.6" font-family="Times,serif" font-size="14.00">TeachersComponent</text>
</g>
<!-- TeachersComponent&#45;&gt;TeachersModule -->
<g id="edge3" class="edge">
<title>TeachersComponent&#45;&gt;TeachersModule</title>
<path fill="none" stroke="black" d="M780,-84.83C780,-101.86 780,-124.8 780,-124.8 780,-124.8 1059.95,-124.8 1059.95,-124.8"/>
<polygon fill="black" stroke="black" points="1059.95,-128.3 1069.95,-124.8 1059.95,-121.3 1059.95,-128.3"/>
</g>
<!-- TeachersDashboardComponent -->
<g id="node4" class="node">
<title>TeachersDashboardComponent</title>
<polygon fill="#ffffb3" stroke="black" points="696.49,-84.8 503.51,-84.8 503.51,-48.8 696.49,-48.8 696.49,-84.8"/>
<text text-anchor="middle" x="600" y="-62.6" font-family="Times,serif" font-size="14.00">TeachersDashboardComponent</text>
</g>
<!-- TeachersDashboardComponent&#45;&gt;TeachersModule -->
<g id="edge4" class="edge">
<title>TeachersDashboardComponent&#45;&gt;TeachersModule</title>
<path fill="none" stroke="black" d="M600,-85.02C600,-103.63 600,-129.8 600,-129.8 600,-129.8 1059.81,-129.8 1059.81,-129.8"/>
<polygon fill="black" stroke="black" points="1059.81,-133.3 1069.81,-129.8 1059.81,-126.3 1059.81,-133.3"/>
</g>
<!-- TeachersGradeComponent -->
<g id="node5" class="node">
<title>TeachersGradeComponent</title>
<polygon fill="#ffffb3" stroke="black" points="486.05,-84.8 319.95,-84.8 319.95,-48.8 486.05,-48.8 486.05,-84.8"/>
<text text-anchor="middle" x="403" y="-62.6" font-family="Times,serif" font-size="14.00">TeachersGradeComponent</text>
</g>
<!-- TeachersGradeComponent&#45;&gt;TeachersModule -->
<g id="edge5" class="edge">
<title>TeachersGradeComponent&#45;&gt;TeachersModule</title>
<path fill="none" stroke="black" d="M403,-85.02C403,-105.17 403,-134.8 403,-134.8 403,-134.8 1059.84,-134.8 1059.84,-134.8"/>
<polygon fill="black" stroke="black" points="1059.84,-138.3 1069.84,-134.8 1059.84,-131.3 1059.84,-138.3"/>
</g>
<!-- SharedModule -->
<g id="node7" class="node">
<title>SharedModule</title>
<polygon fill="#8dd3c7" stroke="black" points="296.42,-84.8 293.42,-88.8 272.42,-88.8 269.42,-84.8 197.58,-84.8 197.58,-48.8 296.42,-48.8 296.42,-84.8"/>
<text text-anchor="middle" x="247" y="-62.6" font-family="Times,serif" font-size="14.00">SharedModule</text>
</g>
<!-- SharedModule&#45;&gt;TeachersModule -->
<g id="edge6" class="edge">
<title>SharedModule&#45;&gt;TeachersModule</title>
<path fill="none" stroke="black" d="M247,-84.84C247,-106.46 247,-139.8 247,-139.8 247,-139.8 1059.74,-139.8 1059.74,-139.8"/>
<polygon fill="black" stroke="black" points="1059.74,-143.3 1069.74,-139.8 1059.74,-136.3 1059.74,-143.3"/>
</g>
<!-- TeachersRoutingModule -->
<g id="node8" class="node">
<title>TeachersRoutingModule</title>
<polygon fill="#8dd3c7" stroke="black" points="179.68,-84.8 176.68,-88.8 155.68,-88.8 152.68,-84.8 24.32,-84.8 24.32,-48.8 179.68,-48.8 179.68,-84.8"/>
<text text-anchor="middle" x="102" y="-62.6" font-family="Times,serif" font-size="14.00">TeachersRoutingModule</text>
</g>
<!-- TeachersRoutingModule&#45;&gt;TeachersModule -->
<g id="edge7" class="edge">
<title>TeachersRoutingModule&#45;&gt;TeachersModule</title>
<path fill="none" stroke="black" d="M102,-84.89C102,-107.93 102,-144.8 102,-144.8 102,-144.8 1059.64,-144.8 1059.64,-144.8"/>
<polygon fill="black" stroke="black" points="1059.64,-148.3 1069.64,-144.8 1059.64,-141.3 1059.64,-148.3"/>
</g>
<!-- CourseRoomDataService -->
<g id="node9" class="node">
<title>CourseRoomDataService</title>
<ellipse fill="#fdb462" stroke="black" cx="2304" cy="-66.8" rx="109.37" ry="18"/>
<text text-anchor="middle" x="2304" y="-62.6" font-family="Times,serif" font-size="14.00">CourseRoomDataService</text>
</g>
<!-- CourseRoomDataService&#45;&gt;TeachersModule -->
<g id="edge8" class="edge">
<title>CourseRoomDataService&#45;&gt;TeachersModule</title>
<path fill="none" stroke="black" d="M2304,-84.89C2304,-107.93 2304,-144.8 2304,-144.8 2304,-144.8 1190.28,-144.8 1190.28,-144.8"/>
<polygon fill="black" stroke="black" points="1190.28,-141.3 1180.28,-144.8 1190.28,-148.3 1190.28,-141.3"/>
</g>
<!-- CourseRoomEntityService -->
<g id="node10" class="node">
<title>CourseRoomEntityService</title>
<ellipse fill="#fdb462" stroke="black" cx="2062" cy="-66.8" rx="114.63" ry="18"/>
<text text-anchor="middle" x="2062" y="-62.6" font-family="Times,serif" font-size="14.00">CourseRoomEntityService</text>
</g>
<!-- CourseRoomEntityService&#45;&gt;TeachersModule -->
<g id="edge9" class="edge">
<title>CourseRoomEntityService&#45;&gt;TeachersModule</title>
<path fill="none" stroke="black" d="M2062,-84.84C2062,-106.46 2062,-139.8 2062,-139.8 2062,-139.8 1190.12,-139.8 1190.12,-139.8"/>
<polygon fill="black" stroke="black" points="1190.12,-136.3 1180.12,-139.8 1190.12,-143.3 1190.12,-136.3"/>
</g>
<!-- RoomCourseService -->
<g id="node11" class="node">
<title>RoomCourseService</title>
<ellipse fill="#fdb462" stroke="black" cx="1838" cy="-66.8" rx="90.91" ry="18"/>
<text text-anchor="middle" x="1838" y="-62.6" font-family="Times,serif" font-size="14.00">RoomCourseService</text>
</g>
<!-- RoomCourseService&#45;&gt;TeachersModule -->
<g id="edge10" class="edge">
<title>RoomCourseService&#45;&gt;TeachersModule</title>
<path fill="none" stroke="black" d="M1838,-85.02C1838,-105.17 1838,-134.8 1838,-134.8 1838,-134.8 1190.06,-134.8 1190.06,-134.8"/>
<polygon fill="black" stroke="black" points="1190.06,-131.3 1180.06,-134.8 1190.06,-138.3 1190.06,-131.3"/>
</g>
<!-- RoomService -->
<g id="node12" class="node">
<title>RoomService</title>
<ellipse fill="#fdb462" stroke="black" cx="1665" cy="-66.8" rx="63.7" ry="18"/>
<text text-anchor="middle" x="1665" y="-62.6" font-family="Times,serif" font-size="14.00">RoomService</text>
</g>
<!-- RoomService&#45;&gt;TeachersModule -->
<g id="edge11" class="edge">
<title>RoomService&#45;&gt;TeachersModule</title>
<path fill="none" stroke="black" d="M1665,-85.02C1665,-103.63 1665,-129.8 1665,-129.8 1665,-129.8 1190.25,-129.8 1190.25,-129.8"/>
<polygon fill="black" stroke="black" points="1190.25,-126.3 1180.25,-129.8 1190.25,-133.3 1190.25,-126.3"/>
</g>
<!-- SchoolService -->
<g id="node13" class="node">
<title>SchoolService</title>
<ellipse fill="#fdb462" stroke="black" cx="1517" cy="-66.8" rx="66.63" ry="18"/>
<text text-anchor="middle" x="1517" y="-62.6" font-family="Times,serif" font-size="14.00">SchoolService</text>
</g>
<!-- SchoolService&#45;&gt;TeachersModule -->
<g id="edge12" class="edge">
<title>SchoolService&#45;&gt;TeachersModule</title>
<path fill="none" stroke="black" d="M1517,-84.83C1517,-101.86 1517,-124.8 1517,-124.8 1517,-124.8 1190.33,-124.8 1190.33,-124.8"/>
<polygon fill="black" stroke="black" points="1190.33,-121.3 1180.33,-124.8 1190.33,-128.3 1190.33,-121.3"/>
</g>
<!-- TeachersCoursesService -->
<g id="node14" class="node">
<title>TeachersCoursesService</title>
<ellipse fill="#fdb462" stroke="black" cx="1326" cy="-66.8" rx="105.89" ry="18"/>
<text text-anchor="middle" x="1326" y="-62.6" font-family="Times,serif" font-size="14.00">TeachersCoursesService</text>
</g>
<!-- TeachersCoursesService&#45;&gt;TeachersModule -->
<g id="edge13" class="edge">
<title>TeachersCoursesService&#45;&gt;TeachersModule</title>
<path fill="none" stroke="black" d="M1326,-85.04C1326,-100.37 1326,-119.8 1326,-119.8 1326,-119.8 1190.19,-119.8 1190.19,-119.8"/>
<polygon fill="black" stroke="black" points="1190.19,-116.3 1180.19,-119.8 1190.19,-123.3 1190.19,-116.3"/>
</g>
</g>
</svg>
