<?xml version="1.0" encoding="UTF-8" standalone="no"?>
<!DOCTYPE svg PUBLIC "-//W3C//DTD SVG 1.1//EN"
 "http://www.w3.org/Graphics/SVG/1.1/DTD/svg11.dtd">
<!-- Generated by graphviz version 2.47.3 (20210619.1520)
 -->
<!-- Title: dependencies Pages: 1 -->
<svg width="3183pt" height="174pt"
 viewBox="0.00 0.00 3183.00 173.80" xmlns="http://www.w3.org/2000/svg" xmlns:xlink="http://www.w3.org/1999/xlink">
<g id="graph0" class="graph" transform="scale(1 1) rotate(0) translate(4 169.8)">
<title>dependencies</title>
<polygon fill="white" stroke="transparent" points="-4,4 -4,-169.8 3179,-169.8 3179,4 -4,4"/>
<text text-anchor="middle" x="1587.5" y="-8.2" font-family="sans-serif" font-size="14.00">dependencies</text>
<g id="clust1" class="cluster">
<title>cluster_GradesModule</title>
<polygon fill="none" stroke="black" stroke-dasharray="1,5" points="8,-32.8 8,-157.8 3167,-157.8 3167,-32.8 8,-32.8"/>
</g>
<g id="clust10" class="cluster">
<title>cluster_GradesModule_providers</title>
<polygon fill="none" stroke="black" points="989,-40.8 989,-92.8 3159,-92.8 3159,-40.8 989,-40.8"/>
</g>
<g id="clust7" class="cluster">
<title>cluster_GradesModule_imports</title>
<polygon fill="none" stroke="black" points="705,-40.8 705,-92.8 981,-92.8 981,-40.8 705,-40.8"/>
</g>
<g id="clust2" class="cluster">
<title>cluster_GradesModule_declarations</title>
<polygon fill="none" stroke="black" points="16,-40.8 16,-92.8 697,-92.8 697,-40.8 16,-40.8"/>
</g>
<!-- GradeCourseComponent -->
<g id="node1" class="node">
<title>GradeCourseComponent</title>
<polygon fill="#ffffb3" stroke="black" points="688.69,-84.8 533.31,-84.8 533.31,-48.8 688.69,-48.8 688.69,-84.8"/>
<text text-anchor="middle" x="611" y="-62.6" font-family="Times,serif" font-size="14.00">GradeCourseComponent</text>
</g>
<!-- GradesModule -->
<g id="node5" class="node">
<title>GradesModule</title>
<polygon fill="#8dd3c7" stroke="black" points="1577.69,-149.8 1574.69,-153.8 1553.69,-153.8 1550.69,-149.8 1478.31,-149.8 1478.31,-113.8 1577.69,-113.8 1577.69,-149.8"/>
<text text-anchor="middle" x="1528" y="-127.6" font-family="Times,serif" font-size="14.00">GradesModule</text>
</g>
<!-- GradeCourseComponent&#45;&gt;GradesModule -->
<g id="edge1" class="edge">
<title>GradeCourseComponent&#45;&gt;GradesModule</title>
<path fill="none" stroke="black" d="M611,-85.11C611,-104.95 611,-133.8 611,-133.8 611,-133.8 1468.37,-133.8 1468.37,-133.8"/>
<polygon fill="black" stroke="black" points="1468.37,-137.3 1478.37,-133.8 1468.37,-130.3 1468.37,-137.3"/>
</g>
<!-- GradesComponent -->
<g id="node2" class="node">
<title>GradesComponent</title>
<polygon fill="#ffffb3" stroke="black" points="515.47,-84.8 394.53,-84.8 394.53,-48.8 515.47,-48.8 515.47,-84.8"/>
<text text-anchor="middle" x="455" y="-62.6" font-family="Times,serif" font-size="14.00">GradesComponent</text>
</g>
<!-- GradesComponent&#45;&gt;GradesModule -->
<g id="edge2" class="edge">
<title>GradesComponent&#45;&gt;GradesModule</title>
<path fill="none" stroke="black" d="M455,-85.08C455,-106.12 455,-137.8 455,-137.8 455,-137.8 1468.4,-137.8 1468.4,-137.8"/>
<polygon fill="black" stroke="black" points="1468.4,-141.3 1478.4,-137.8 1468.4,-134.3 1468.4,-141.3"/>
</g>
<!-- GradesWellcomeComponent -->
<g id="node3" class="node">
<title>GradesWellcomeComponent</title>
<polygon fill="#ffffb3" stroke="black" points="376,-84.8 198,-84.8 198,-48.8 376,-48.8 376,-84.8"/>
<text text-anchor="middle" x="287" y="-62.6" font-family="Times,serif" font-size="14.00">GradesWellcomeComponent</text>
</g>
<!-- GradesWellcomeComponent&#45;&gt;GradesModule -->
<g id="edge3" class="edge">
<title>GradesWellcomeComponent&#45;&gt;GradesModule</title>
<path fill="none" stroke="black" d="M287,-84.96C287,-107.15 287,-141.8 287,-141.8 287,-141.8 1468.2,-141.8 1468.2,-141.8"/>
<polygon fill="black" stroke="black" points="1468.2,-145.3 1478.2,-141.8 1468.2,-138.3 1468.2,-145.3"/>
</g>
<!-- SelectCourseComponent -->
<g id="node4" class="node">
<title>SelectCourseComponent</title>
<polygon fill="#ffffb3" stroke="black" points="179.7,-84.8 24.3,-84.8 24.3,-48.8 179.7,-48.8 179.7,-84.8"/>
<text text-anchor="middle" x="102" y="-62.6" font-family="Times,serif" font-size="14.00">SelectCourseComponent</text>
</g>
<!-- SelectCourseComponent&#45;&gt;GradesModule -->
<g id="edge4" class="edge">
<title>SelectCourseComponent&#45;&gt;GradesModule</title>
<path fill="none" stroke="black" d="M102,-85.12C102,-108.46 102,-145.8 102,-145.8 102,-145.8 1468.08,-145.8 1468.08,-145.8"/>
<polygon fill="black" stroke="black" points="1468.08,-149.3 1478.08,-145.8 1468.08,-142.3 1468.08,-149.3"/>
</g>
<!-- GradesRoutingModule -->
<g id="node6" class="node">
<title>GradesRoutingModule</title>
<polygon fill="#8dd3c7" stroke="black" points="973.31,-84.8 970.31,-88.8 949.31,-88.8 946.31,-84.8 828.69,-84.8 828.69,-48.8 973.31,-48.8 973.31,-84.8"/>
<text text-anchor="middle" x="901" y="-62.6" font-family="Times,serif" font-size="14.00">GradesRoutingModule</text>
</g>
<!-- GradesRoutingModule&#45;&gt;GradesModule -->
<g id="edge5" class="edge">
<title>GradesRoutingModule&#45;&gt;GradesModule</title>
<path fill="none" stroke="black" d="M901,-84.82C901,-102.17 901,-125.8 901,-125.8 901,-125.8 1468.28,-125.8 1468.28,-125.8"/>
<polygon fill="black" stroke="black" points="1468.28,-129.3 1478.28,-125.8 1468.28,-122.3 1468.28,-129.3"/>
</g>
<!-- SharedModule -->
<g id="node7" class="node">
<title>SharedModule</title>
<polygon fill="#8dd3c7" stroke="black" points="811.42,-84.8 808.42,-88.8 787.42,-88.8 784.42,-84.8 712.58,-84.8 712.58,-48.8 811.42,-48.8 811.42,-84.8"/>
<text text-anchor="middle" x="762" y="-62.6" font-family="Times,serif" font-size="14.00">SharedModule</text>
</g>
<!-- SharedModule&#45;&gt;GradesModule -->
<g id="edge6" class="edge">
<title>SharedModule&#45;&gt;GradesModule</title>
<path fill="none" stroke="black" d="M762,-85.02C762,-103.63 762,-129.8 762,-129.8 762,-129.8 1468.33,-129.8 1468.33,-129.8"/>
<polygon fill="black" stroke="black" points="1468.33,-133.3 1478.33,-129.8 1468.33,-126.3 1468.33,-133.3"/>
</g>
<!-- CourseDataService -->
<g id="node8" class="node">
<title>CourseDataService</title>
<ellipse fill="#fdb462" stroke="black" cx="3065" cy="-66.8" rx="85.65" ry="18"/>
<text text-anchor="middle" x="3065" y="-62.6" font-family="Times,serif" font-size="14.00">CourseDataService</text>
</g>
<!-- CourseDataService&#45;&gt;GradesModule -->
<g id="edge7" class="edge">
<title>CourseDataService&#45;&gt;GradesModule</title>
<path fill="none" stroke="black" d="M3065,-85.12C3065,-108.46 3065,-145.8 3065,-145.8 3065,-145.8 1587.83,-145.8 1587.83,-145.8"/>
<polygon fill="black" stroke="black" points="1587.83,-142.3 1577.83,-145.8 1587.83,-149.3 1587.83,-142.3"/>
</g>
<!-- CourseEntityService -->
<g id="node9" class="node">
<title>CourseEntityService</title>
<ellipse fill="#fdb462" stroke="black" cx="2870" cy="-66.8" rx="90.91" ry="18"/>
<text text-anchor="middle" x="2870" y="-62.6" font-family="Times,serif" font-size="14.00">CourseEntityService</text>
</g>
<!-- CourseEntityService&#45;&gt;GradesModule -->
<g id="edge8" class="edge">
<title>CourseEntityService&#45;&gt;GradesModule</title>
<path fill="none" stroke="black" d="M2870,-84.96C2870,-107.15 2870,-141.8 2870,-141.8 2870,-141.8 1587.76,-141.8 1587.76,-141.8"/>
<polygon fill="black" stroke="black" points="1587.76,-138.3 1577.76,-141.8 1587.76,-145.3 1587.76,-138.3"/>
</g>
<!-- CoursesService -->
<g id="node10" class="node">
<title>CoursesService</title>
<ellipse fill="#fdb462" stroke="black" cx="2690" cy="-66.8" rx="71.2" ry="18"/>
<text text-anchor="middle" x="2690" y="-62.6" font-family="Times,serif" font-size="14.00">CoursesService</text>
</g>
<!-- CoursesService&#45;&gt;GradesModule -->
<g id="edge9" class="edge">
<title>CoursesService&#45;&gt;GradesModule</title>
<path fill="none" stroke="black" d="M2690,-85.08C2690,-106.12 2690,-137.8 2690,-137.8 2690,-137.8 1587.93,-137.8 1587.93,-137.8"/>
<polygon fill="black" stroke="black" points="1587.93,-134.3 1577.93,-137.8 1587.93,-141.3 1587.93,-134.3"/>
</g>
<!-- StudentDataService -->
<g id="node11" class="node">
<title>StudentDataService</title>
<ellipse fill="#fdb462" stroke="black" cx="2513" cy="-66.8" rx="87.96" ry="18"/>
<text text-anchor="middle" x="2513" y="-62.6" font-family="Times,serif" font-size="14.00">StudentDataService</text>
</g>
<!-- StudentDataService&#45;&gt;GradesModule -->
<g id="edge10" class="edge">
<title>StudentDataService&#45;&gt;GradesModule</title>
<path fill="none" stroke="black" d="M2513,-85.11C2513,-104.95 2513,-133.8 2513,-133.8 2513,-133.8 1587.86,-133.8 1587.86,-133.8"/>
<polygon fill="black" stroke="black" points="1587.86,-130.3 1577.86,-133.8 1587.86,-137.3 1587.86,-130.3"/>
</g>
<!-- StudentEntityService -->
<g id="node12" class="node">
<title>StudentEntityService</title>
<ellipse fill="#fdb462" stroke="black" cx="2314" cy="-66.8" rx="93.21" ry="18"/>
<text text-anchor="middle" x="2314" y="-62.6" font-family="Times,serif" font-size="14.00">StudentEntityService</text>
</g>
<!-- StudentEntityService&#45;&gt;GradesModule -->
<g id="edge11" class="edge">
<title>StudentEntityService&#45;&gt;GradesModule</title>
<path fill="none" stroke="black" d="M2314,-85.02C2314,-103.63 2314,-129.8 2314,-129.8 2314,-129.8 1587.76,-129.8 1587.76,-129.8"/>
<polygon fill="black" stroke="black" points="1587.76,-126.3 1577.76,-129.8 1587.76,-133.3 1587.76,-126.3"/>
</g>
<!-- TeacherDataService -->
<g id="node13" class="node">
<title>TeacherDataService</title>
<ellipse fill="#fdb462" stroke="black" cx="2114" cy="-66.8" rx="89.12" ry="18"/>
<text text-anchor="middle" x="2114" y="-62.6" font-family="Times,serif" font-size="14.00">TeacherDataService</text>
</g>
<!-- TeacherDataService&#45;&gt;GradesModule -->
<g id="edge12" class="edge">
<title>TeacherDataService&#45;&gt;GradesModule</title>
<path fill="none" stroke="black" d="M2114,-84.82C2114,-102.17 2114,-125.8 2114,-125.8 2114,-125.8 1587.71,-125.8 1587.71,-125.8"/>
<polygon fill="black" stroke="black" points="1587.71,-122.3 1577.71,-125.8 1587.71,-129.3 1587.71,-122.3"/>
</g>
<!-- TeacherEntityService -->
<g id="node14" class="node">
<title>TeacherEntityService</title>
<ellipse fill="#fdb462" stroke="black" cx="1912" cy="-66.8" rx="94.88" ry="18"/>
<text text-anchor="middle" x="1912" y="-62.6" font-family="Times,serif" font-size="14.00">TeacherEntityService</text>
</g>
<!-- TeacherEntityService&#45;&gt;GradesModule -->
<g id="edge13" class="edge">
<title>TeacherEntityService&#45;&gt;GradesModule</title>
<path fill="none" stroke="black" d="M1912,-84.81C1912,-100.85 1912,-121.8 1912,-121.8 1912,-121.8 1587.81,-121.8 1587.81,-121.8"/>
<polygon fill="black" stroke="black" points="1587.81,-118.3 1577.81,-121.8 1587.81,-125.3 1587.81,-118.3"/>
</g>
<!-- TeachersService -->
<g id="node15" class="node">
<title>TeachersService</title>
<ellipse fill="#fdb462" stroke="black" cx="1724" cy="-66.8" rx="74.67" ry="18"/>
<text text-anchor="middle" x="1724" y="-62.6" font-family="Times,serif" font-size="14.00">TeachersService</text>
</g>
<!-- TeachersService&#45;&gt;GradesModule -->
<g id="edge14" class="edge">
<title>TeachersService&#45;&gt;GradesModule</title>
<path fill="none" stroke="black" d="M1724,-84.92C1724,-99.58 1724,-117.8 1724,-117.8 1724,-117.8 1587.71,-117.8 1587.71,-117.8"/>
<polygon fill="black" stroke="black" points="1587.71,-114.3 1577.71,-117.8 1587.71,-121.3 1587.71,-114.3"/>
</g>
<!-- UserProfileDataService -->
<g id="node16" class="node">
<title>UserProfileDataService</title>
<ellipse fill="#fdb462" stroke="black" cx="1528" cy="-66.8" rx="102.96" ry="18"/>
<text text-anchor="middle" x="1528" y="-62.6" font-family="Times,serif" font-size="14.00">UserProfileDataService</text>
</g>
<!-- UserProfileDataService&#45;&gt;GradesModule -->
<g id="edge15" class="edge">
<title>UserProfileDataService&#45;&gt;GradesModule</title>
<path fill="none" stroke="black" d="M1528,-84.91C1528,-84.91 1528,-103.79 1528,-103.79"/>
<polygon fill="black" stroke="black" points="1524.5,-103.79 1528,-113.79 1531.5,-103.79 1524.5,-103.79"/>
</g>
<!-- UserProfileEntityService -->
<g id="node17" class="node">
<title>UserProfileEntityService</title>
<ellipse fill="#fdb462" stroke="black" cx="1299" cy="-66.8" rx="108.22" ry="18"/>
<text text-anchor="middle" x="1299" y="-62.6" font-family="Times,serif" font-size="14.00">UserProfileEntityService</text>
</g>
<!-- UserProfileEntityService&#45;&gt;GradesModule -->
<g id="edge16" class="edge">
<title>UserProfileEntityService&#45;&gt;GradesModule</title>
<path fill="none" stroke="black" d="M1299,-84.92C1299,-99.58 1299,-117.8 1299,-117.8 1299,-117.8 1468.31,-117.8 1468.31,-117.8"/>
<polygon fill="black" stroke="black" points="1468.31,-121.3 1478.31,-117.8 1468.31,-114.3 1468.31,-121.3"/>
</g>
<!-- UserProfilesService -->
<g id="node18" class="node">
<title>UserProfilesService</title>
<ellipse fill="#fdb462" stroke="black" cx="1085" cy="-66.8" rx="88.01" ry="18"/>
<text text-anchor="middle" x="1085" y="-62.6" font-family="Times,serif" font-size="14.00">UserProfilesService</text>
</g>
<!-- UserProfilesService&#45;&gt;GradesModule -->
<g id="edge17" class="edge">
<title>UserProfilesService&#45;&gt;GradesModule</title>
<path fill="none" stroke="black" d="M1085,-84.81C1085,-100.85 1085,-121.8 1085,-121.8 1085,-121.8 1468.04,-121.8 1468.04,-121.8"/>
<polygon fill="black" stroke="black" points="1468.04,-125.3 1478.04,-121.8 1468.04,-118.3 1468.04,-125.3"/>
</g>
</g>
</svg>
