<?xml version="1.0" encoding="UTF-8" standalone="no"?>
<!DOCTYPE svg PUBLIC "-//W3C//DTD SVG 1.1//EN"
 "http://www.w3.org/Graphics/SVG/1.1/DTD/svg11.dtd">
<!-- Generated by graphviz version 2.47.3 (20210619.1520)
 -->
<!-- Title: dependencies Pages: 1 -->
<svg width="334pt" height="174pt"
 viewBox="0.00 0.00 334.00 173.80" xmlns="http://www.w3.org/2000/svg" xmlns:xlink="http://www.w3.org/1999/xlink">
<g id="graph0" class="graph" transform="scale(1 1) rotate(0) translate(4 169.8)">
<title>dependencies</title>
<polygon fill="white" stroke="transparent" points="-4,4 -4,-169.8 330,-169.8 330,4 -4,4"/>
<text text-anchor="middle" x="163" y="-8.2" font-family="sans-serif" font-size="14.00">dependencies</text>
<g id="clust1" class="cluster">
<title>cluster_AppStoreModule</title>
<polygon fill="none" stroke="black" stroke-dasharray="1,5" points="8,-32.8 8,-157.8 318,-157.8 318,-32.8 8,-32.8"/>
</g>
<g id="clust6" class="cluster">
<title>cluster_AppStoreModule_providers</title>
<polygon fill="none" stroke="black" points="132,-40.8 132,-92.8 310,-92.8 310,-40.8 132,-40.8"/>
</g>
<g id="clust3" class="cluster">
<title>cluster_AppStoreModule_imports</title>
<polygon fill="none" stroke="black" points="16,-40.8 16,-92.8 124,-92.8 124,-40.8 16,-40.8"/>
</g>
<!-- !environment -->
<g id="node1" class="node">
<title>!environment</title>
<polygon fill="#8dd3c7" stroke="black" points="115.92,-84.8 112.92,-88.8 91.92,-88.8 88.92,-84.8 24.08,-84.8 24.08,-48.8 115.92,-48.8 115.92,-84.8"/>
<text text-anchor="middle" x="70" y="-62.6" font-family="Times,serif" font-size="14.00">!environment</text>
</g>
<!-- AppStoreModule -->
<g id="node2" class="node">
<title>AppStoreModule</title>
<polygon fill="#8dd3c7" stroke="black" points="203.7,-149.8 200.7,-153.8 179.7,-153.8 176.7,-149.8 90.3,-149.8 90.3,-113.8 203.7,-113.8 203.7,-149.8"/>
<text text-anchor="middle" x="147" y="-127.6" font-family="Times,serif" font-size="14.00">AppStoreModule</text>
</g>
<!-- !environment&#45;&gt;AppStoreModule -->
<g id="edge1" class="edge">
<title>!environment&#45;&gt;AppStoreModule</title>
<path fill="none" stroke="black" d="M103.05,-84.91C103.05,-84.91 103.05,-103.79 103.05,-103.79"/>
<polygon fill="black" stroke="black" points="99.55,-103.79 103.05,-113.79 106.55,-103.79 99.55,-103.79"/>
</g>
<!-- NgrxToastService -->
<g id="node3" class="node">
<title>NgrxToastService</title>
<ellipse fill="#fdb462" stroke="black" cx="221" cy="-66.8" rx="81.08" ry="18"/>
<text text-anchor="middle" x="221" y="-62.6" font-family="Times,serif" font-size="14.00">NgrxToastService</text>
</g>
<!-- NgrxToastService&#45;&gt;AppStoreModule -->
<g id="edge2" class="edge">
<title>NgrxToastService&#45;&gt;AppStoreModule</title>
<path fill="none" stroke="black" d="M171.66,-81.23C171.66,-81.23 171.66,-103.69 171.66,-103.69"/>
<polygon fill="black" stroke="black" points="168.16,-103.69 171.66,-113.69 175.16,-103.69 168.16,-103.69"/>
</g>
</g>
</svg>
