<?xml version="1.0" encoding="UTF-8" standalone="no"?>
<!DOCTYPE svg PUBLIC "-//W3C//DTD SVG 1.1//EN"
 "http://www.w3.org/Graphics/SVG/1.1/DTD/svg11.dtd">
<!-- Generated by graphviz version 2.47.3 (20210619.1520)
 -->
<!-- Title: dependencies Pages: 1 -->
<svg width="1197pt" height="247pt"
 viewBox="0.00 0.00 1197.00 246.80" xmlns="http://www.w3.org/2000/svg" xmlns:xlink="http://www.w3.org/1999/xlink">
<g id="graph0" class="graph" transform="scale(1 1) rotate(0) translate(4 242.8)">
<title>dependencies</title>
<polygon fill="white" stroke="transparent" points="-4,4 -4,-242.8 1193,-242.8 1193,4 -4,4"/>
<text text-anchor="middle" x="594.5" y="-8.2" font-family="sans-serif" font-size="14.00">dependencies</text>
<g id="clust1" class="cluster">
<title>cluster_ClassroomModule</title>
<polygon fill="none" stroke="black" stroke-dasharray="1,5" points="8,-32.8 8,-230.8 1181,-230.8 1181,-32.8 8,-32.8"/>
</g>
<g id="clust2" class="cluster">
<title>cluster_ClassroomModule_declarations</title>
<polygon fill="none" stroke="black" points="1015,-40.8 1015,-92.8 1173,-92.8 1173,-40.8 1015,-40.8"/>
</g>
<g id="clust5" class="cluster">
<title>cluster_ClassroomModule_exports</title>
<polygon fill="none" stroke="black" points="455,-170.8 455,-222.8 615,-222.8 615,-170.8 455,-170.8"/>
</g>
<g id="clust4" class="cluster">
<title>cluster_ClassroomModule_imports</title>
<polygon fill="none" stroke="black" points="16,-40.8 16,-92.8 1007,-92.8 1007,-40.8 16,-40.8"/>
</g>
<!-- ClassroomComponent -->
<g id="node1" class="node">
<title>ClassroomComponent</title>
<polygon fill="#ffffb3" stroke="black" points="1164.71,-84.8 1023.29,-84.8 1023.29,-48.8 1164.71,-48.8 1164.71,-84.8"/>
<text text-anchor="middle" x="1094" y="-62.6" font-family="Times,serif" font-size="14.00">ClassroomComponent</text>
</g>
<!-- ClassroomModule -->
<g id="node2" class="node">
<title>ClassroomModule</title>
<polygon fill="#8dd3c7" stroke="black" points="594.93,-149.8 591.93,-153.8 570.93,-153.8 567.93,-149.8 475.07,-149.8 475.07,-113.8 594.93,-113.8 594.93,-149.8"/>
<text text-anchor="middle" x="535" y="-127.6" font-family="Times,serif" font-size="14.00">ClassroomModule</text>
</g>
<!-- ClassroomComponent&#45;&gt;ClassroomModule -->
<g id="edge1" class="edge">
<title>ClassroomComponent&#45;&gt;ClassroomModule</title>
<path fill="none" stroke="black" d="M1094,-85.09C1094,-107.01 1094,-140.8 1094,-140.8 1094,-140.8 604.82,-140.8 604.82,-140.8"/>
<polygon fill="black" stroke="black" points="604.82,-137.3 594.82,-140.8 604.82,-144.3 604.82,-137.3"/>
</g>
<!-- ClassroomComponent  -->
<g id="node10" class="node">
<title>ClassroomComponent </title>
<polygon fill="#fb8072" stroke="black" points="607.21,-214.8 462.79,-214.8 462.79,-178.8 607.21,-178.8 607.21,-214.8"/>
<text text-anchor="middle" x="535" y="-192.6" font-family="Times,serif" font-size="14.00">ClassroomComponent </text>
</g>
<!-- ClassroomModule&#45;&gt;ClassroomComponent  -->
<g id="edge9" class="edge">
<title>ClassroomModule&#45;&gt;ClassroomComponent </title>
<path fill="none" stroke="black" stroke-dasharray="5,2" d="M535,-149.91C535,-149.91 535,-168.79 535,-168.79"/>
<polygon fill="black" stroke="black" points="531.5,-168.79 535,-178.79 538.5,-168.79 531.5,-168.79"/>
</g>
<!-- AnnouncementsModule -->
<g id="node3" class="node">
<title>AnnouncementsModule</title>
<polygon fill="#8dd3c7" stroke="black" points="999.03,-84.8 996.03,-88.8 975.03,-88.8 972.03,-84.8 848.97,-84.8 848.97,-48.8 999.03,-48.8 999.03,-84.8"/>
<text text-anchor="middle" x="924" y="-62.6" font-family="Times,serif" font-size="14.00">AnnouncementsModule</text>
</g>
<!-- AnnouncementsModule&#45;&gt;ClassroomModule -->
<g id="edge2" class="edge">
<title>AnnouncementsModule&#45;&gt;ClassroomModule</title>
<path fill="none" stroke="black" d="M924,-84.91C924,-104.14 924,-131.8 924,-131.8 924,-131.8 604.93,-131.8 604.93,-131.8"/>
<polygon fill="black" stroke="black" points="604.93,-128.3 594.93,-131.8 604.93,-135.3 604.93,-128.3"/>
</g>
<!-- ClassroomRoutingModule -->
<g id="node4" class="node">
<title>ClassroomRoutingModule</title>
<polygon fill="#8dd3c7" stroke="black" points="830.05,-84.8 827.05,-88.8 806.05,-88.8 803.05,-84.8 665.95,-84.8 665.95,-48.8 830.05,-48.8 830.05,-84.8"/>
<text text-anchor="middle" x="748" y="-62.6" font-family="Times,serif" font-size="14.00">ClassroomRoutingModule</text>
</g>
<!-- ClassroomRoutingModule&#45;&gt;ClassroomModule -->
<g id="edge3" class="edge">
<title>ClassroomRoutingModule&#45;&gt;ClassroomModule</title>
<path fill="none" stroke="black" d="M748,-84.83C748,-101.2 748,-122.8 748,-122.8 748,-122.8 604.9,-122.8 604.9,-122.8"/>
<polygon fill="black" stroke="black" points="604.9,-119.3 594.9,-122.8 604.9,-126.3 604.9,-119.3"/>
</g>
<!-- CoursesModule -->
<g id="node5" class="node">
<title>CoursesModule</title>
<polygon fill="#8dd3c7" stroke="black" points="647.15,-84.8 644.15,-88.8 623.15,-88.8 620.15,-84.8 542.85,-84.8 542.85,-48.8 647.15,-48.8 647.15,-84.8"/>
<text text-anchor="middle" x="595" y="-62.6" font-family="Times,serif" font-size="14.00">CoursesModule</text>
</g>
<!-- CoursesModule&#45;&gt;ClassroomModule -->
<g id="edge4" class="edge">
<title>CoursesModule&#45;&gt;ClassroomModule</title>
<path fill="none" stroke="black" d="M568.7,-84.91C568.7,-84.91 568.7,-103.79 568.7,-103.79"/>
<polygon fill="black" stroke="black" points="565.2,-103.79 568.7,-113.79 572.2,-103.79 565.2,-103.79"/>
</g>
<!-- SharedModule -->
<g id="node6" class="node">
<title>SharedModule</title>
<polygon fill="#8dd3c7" stroke="black" points="524.42,-84.8 521.42,-88.8 500.42,-88.8 497.42,-84.8 425.58,-84.8 425.58,-48.8 524.42,-48.8 524.42,-84.8"/>
<text text-anchor="middle" x="475" y="-62.6" font-family="Times,serif" font-size="14.00">SharedModule</text>
</g>
<!-- SharedModule&#45;&gt;ClassroomModule -->
<g id="edge5" class="edge">
<title>SharedModule&#45;&gt;ClassroomModule</title>
<path fill="none" stroke="black" d="M499.75,-84.91C499.75,-84.91 499.75,-103.79 499.75,-103.79"/>
<polygon fill="black" stroke="black" points="496.25,-103.79 499.75,-113.79 503.25,-103.79 496.25,-103.79"/>
</g>
<!-- StudentsModule -->
<g id="node7" class="node">
<title>StudentsModule</title>
<polygon fill="#8dd3c7" stroke="black" points="407.77,-84.8 404.77,-88.8 383.77,-88.8 380.77,-84.8 300.23,-84.8 300.23,-48.8 407.77,-48.8 407.77,-84.8"/>
<text text-anchor="middle" x="354" y="-62.6" font-family="Times,serif" font-size="14.00">StudentsModule</text>
</g>
<!-- StudentsModule&#45;&gt;ClassroomModule -->
<g id="edge6" class="edge">
<title>StudentsModule&#45;&gt;ClassroomModule</title>
<path fill="none" stroke="black" d="M354,-84.83C354,-101.2 354,-122.8 354,-122.8 354,-122.8 465.23,-122.8 465.23,-122.8"/>
<polygon fill="black" stroke="black" points="465.23,-126.3 475.23,-122.8 465.23,-119.3 465.23,-126.3"/>
</g>
<!-- TeachersModule -->
<g id="node8" class="node">
<title>TeachersModule</title>
<polygon fill="#8dd3c7" stroke="black" points="282.07,-84.8 279.07,-88.8 258.07,-88.8 255.07,-84.8 171.93,-84.8 171.93,-48.8 282.07,-48.8 282.07,-84.8"/>
<text text-anchor="middle" x="227" y="-62.6" font-family="Times,serif" font-size="14.00">TeachersModule</text>
</g>
<!-- TeachersModule&#45;&gt;ClassroomModule -->
<g id="edge7" class="edge">
<title>TeachersModule&#45;&gt;ClassroomModule</title>
<path fill="none" stroke="black" d="M227,-84.91C227,-104.14 227,-131.8 227,-131.8 227,-131.8 465.25,-131.8 465.25,-131.8"/>
<polygon fill="black" stroke="black" points="465.25,-135.3 475.25,-131.8 465.25,-128.3 465.25,-135.3"/>
</g>
<!-- UserProfilesModule -->
<g id="node9" class="node">
<title>UserProfilesModule</title>
<polygon fill="#8dd3c7" stroke="black" points="153.52,-84.8 150.52,-88.8 129.52,-88.8 126.52,-84.8 24.48,-84.8 24.48,-48.8 153.52,-48.8 153.52,-84.8"/>
<text text-anchor="middle" x="89" y="-62.6" font-family="Times,serif" font-size="14.00">UserProfilesModule</text>
</g>
<!-- UserProfilesModule&#45;&gt;ClassroomModule -->
<g id="edge8" class="edge">
<title>UserProfilesModule&#45;&gt;ClassroomModule</title>
<path fill="none" stroke="black" d="M89,-85.09C89,-107.01 89,-140.8 89,-140.8 89,-140.8 464.85,-140.8 464.85,-140.8"/>
<polygon fill="black" stroke="black" points="464.85,-144.3 474.85,-140.8 464.85,-137.3 464.85,-144.3"/>
</g>
</g>
</svg>
