<?xml version="1.0" encoding="UTF-8" standalone="no"?>
<!DOCTYPE svg PUBLIC "-//W3C//DTD SVG 1.1//EN"
 "http://www.w3.org/Graphics/SVG/1.1/DTD/svg11.dtd">
<!-- Generated by graphviz version 2.47.3 (20210619.1520)
 -->
<!-- Title: dependencies Pages: 1 -->
<svg width="4872pt" height="174pt"
 viewBox="0.00 0.00 4872.00 173.80" xmlns="http://www.w3.org/2000/svg" xmlns:xlink="http://www.w3.org/1999/xlink">
<g id="graph0" class="graph" transform="scale(1 1) rotate(0) translate(4 169.8)">
<title>dependencies</title>
<polygon fill="white" stroke="transparent" points="-4,4 -4,-169.8 4868,-169.8 4868,4 -4,4"/>
<text text-anchor="middle" x="2432" y="-8.2" font-family="sans-serif" font-size="14.00">dependencies</text>
<g id="clust1" class="cluster">
<title>cluster_SchoolModule</title>
<polygon fill="none" stroke="black" stroke-dasharray="1,5" points="8,-32.8 8,-157.8 4856,-157.8 4856,-32.8 8,-32.8"/>
</g>
<g id="clust19" class="cluster">
<title>cluster_SchoolModule_providers</title>
<polygon fill="none" stroke="black" points="2660,-40.8 2660,-92.8 4848,-92.8 4848,-40.8 2660,-40.8"/>
</g>
<g id="clust16" class="cluster">
<title>cluster_SchoolModule_imports</title>
<polygon fill="none" stroke="black" points="2376,-40.8 2376,-92.8 2652,-92.8 2652,-40.8 2376,-40.8"/>
</g>
<g id="clust2" class="cluster">
<title>cluster_SchoolModule_declarations</title>
<polygon fill="none" stroke="black" points="16,-40.8 16,-92.8 2368,-92.8 2368,-40.8 16,-40.8"/>
</g>
<!-- AssigmentsDashboardComponent -->
<g id="node1" class="node">
<title>AssigmentsDashboardComponent</title>
<polygon fill="#ffffb3" stroke="black" points="2359.8,-84.8 2152.2,-84.8 2152.2,-48.8 2359.8,-48.8 2359.8,-84.8"/>
<text text-anchor="middle" x="2256" y="-62.6" font-family="Times,serif" font-size="14.00">AssigmentsDashboardComponent</text>
</g>
<!-- SchoolModule -->
<g id="node14" class="node">
<title>SchoolModule</title>
<polygon fill="#8dd3c7" stroke="black" points="2393.44,-149.8 2390.44,-153.8 2369.44,-153.8 2366.44,-149.8 2294.56,-149.8 2294.56,-113.8 2393.44,-113.8 2393.44,-149.8"/>
<text text-anchor="middle" x="2344" y="-127.6" font-family="Times,serif" font-size="14.00">SchoolModule</text>
</g>
<!-- AssigmentsDashboardComponent&#45;&gt;SchoolModule -->
<g id="edge1" class="edge">
<title>AssigmentsDashboardComponent&#45;&gt;SchoolModule</title>
<path fill="none" stroke="black" d="M2327.22,-84.91C2327.22,-84.91 2327.22,-103.79 2327.22,-103.79"/>
<polygon fill="black" stroke="black" points="2323.72,-103.79 2327.22,-113.79 2330.72,-103.79 2323.72,-103.79"/>
</g>
<!-- AssignmentsComponent -->
<g id="node2" class="node">
<title>AssignmentsComponent</title>
<polygon fill="#ffffb3" stroke="black" points="2134.66,-84.8 1981.34,-84.8 1981.34,-48.8 2134.66,-48.8 2134.66,-84.8"/>
<text text-anchor="middle" x="2058" y="-62.6" font-family="Times,serif" font-size="14.00">AssignmentsComponent</text>
</g>
<!-- AssignmentsComponent&#45;&gt;SchoolModule -->
<g id="edge2" class="edge">
<title>AssignmentsComponent&#45;&gt;SchoolModule</title>
<path fill="none" stroke="black" d="M2058,-84.85C2058,-99.17 2058,-116.8 2058,-116.8 2058,-116.8 2284.51,-116.8 2284.51,-116.8"/>
<polygon fill="black" stroke="black" points="2284.51,-120.3 2294.51,-116.8 2284.51,-113.3 2284.51,-120.3"/>
</g>
<!-- NewCicleDialogComponent -->
<g id="node3" class="node">
<title>NewCicleDialogComponent</title>
<polygon fill="#ffffb3" stroke="black" points="1962.91,-84.8 1787.09,-84.8 1787.09,-48.8 1962.91,-48.8 1962.91,-84.8"/>
<text text-anchor="middle" x="1875" y="-62.6" font-family="Times,serif" font-size="14.00">NewCicleDialogComponent</text>
</g>
<!-- NewCicleDialogComponent&#45;&gt;SchoolModule -->
<g id="edge3" class="edge">
<title>NewCicleDialogComponent&#45;&gt;SchoolModule</title>
<path fill="none" stroke="black" d="M1875,-85.04C1875,-100.37 1875,-119.8 1875,-119.8 1875,-119.8 2284.7,-119.8 2284.7,-119.8"/>
<polygon fill="black" stroke="black" points="2284.7,-123.3 2294.7,-119.8 2284.7,-116.3 2284.7,-123.3"/>
</g>
<!-- SaveUserComponent -->
<g id="node4" class="node">
<title>SaveUserComponent</title>
<polygon fill="#ffffb3" stroke="black" points="1769.47,-84.8 1634.53,-84.8 1634.53,-48.8 1769.47,-48.8 1769.47,-84.8"/>
<text text-anchor="middle" x="1702" y="-62.6" font-family="Times,serif" font-size="14.00">SaveUserComponent</text>
</g>
<!-- SaveUserComponent&#45;&gt;SchoolModule -->
<g id="edge4" class="edge">
<title>SaveUserComponent&#45;&gt;SchoolModule</title>
<path fill="none" stroke="black" d="M1702,-84.83C1702,-101.2 1702,-122.8 1702,-122.8 1702,-122.8 2284.69,-122.8 2284.69,-122.8"/>
<polygon fill="black" stroke="black" points="2284.69,-126.3 2294.69,-122.8 2284.69,-119.3 2284.69,-126.3"/>
</g>
<!-- SaveUserConfirmComponent -->
<g id="node5" class="node">
<title>SaveUserConfirmComponent</title>
<polygon fill="#ffffb3" stroke="black" points="1616.41,-84.8 1433.59,-84.8 1433.59,-48.8 1616.41,-48.8 1616.41,-84.8"/>
<text text-anchor="middle" x="1525" y="-62.6" font-family="Times,serif" font-size="14.00">SaveUserConfirmComponent</text>
</g>
<!-- SaveUserConfirmComponent&#45;&gt;SchoolModule -->
<g id="edge5" class="edge">
<title>SaveUserConfirmComponent&#45;&gt;SchoolModule</title>
<path fill="none" stroke="black" d="M1525,-84.82C1525,-102.17 1525,-125.8 1525,-125.8 1525,-125.8 2284.61,-125.8 2284.61,-125.8"/>
<polygon fill="black" stroke="black" points="2284.61,-129.3 2294.61,-125.8 2284.61,-122.3 2284.61,-129.3"/>
</g>
<!-- SaveUserErrorComponent -->
<g id="node6" class="node">
<title>SaveUserErrorComponent</title>
<polygon fill="#ffffb3" stroke="black" points="1416.01,-84.8 1251.99,-84.8 1251.99,-48.8 1416.01,-48.8 1416.01,-84.8"/>
<text text-anchor="middle" x="1334" y="-62.6" font-family="Times,serif" font-size="14.00">SaveUserErrorComponent</text>
</g>
<!-- SaveUserErrorComponent&#45;&gt;SchoolModule -->
<g id="edge6" class="edge">
<title>SaveUserErrorComponent&#45;&gt;SchoolModule</title>
<path fill="none" stroke="black" d="M1334,-85.1C1334,-103.07 1334,-127.8 1334,-127.8 1334,-127.8 2284.6,-127.8 2284.6,-127.8"/>
<polygon fill="black" stroke="black" points="2284.6,-131.3 2294.6,-127.8 2284.6,-124.3 2284.6,-131.3"/>
</g>
<!-- SchoolComponent -->
<g id="node7" class="node">
<title>SchoolComponent</title>
<polygon fill="#ffffb3" stroke="black" points="1234.22,-84.8 1113.78,-84.8 1113.78,-48.8 1234.22,-48.8 1234.22,-84.8"/>
<text text-anchor="middle" x="1174" y="-62.6" font-family="Times,serif" font-size="14.00">SchoolComponent</text>
</g>
<!-- SchoolComponent&#45;&gt;SchoolModule -->
<g id="edge7" class="edge">
<title>SchoolComponent&#45;&gt;SchoolModule</title>
<path fill="none" stroke="black" d="M1174,-84.97C1174,-103.89 1174,-130.8 1174,-130.8 1174,-130.8 2284.47,-130.8 2284.47,-130.8"/>
<polygon fill="black" stroke="black" points="2284.47,-134.3 2294.47,-130.8 2284.47,-127.3 2284.47,-134.3"/>
</g>
<!-- SchoolDashboardComponent -->
<g id="node8" class="node">
<title>SchoolDashboardComponent</title>
<polygon fill="#ffffb3" stroke="black" points="1095.36,-84.8 914.64,-84.8 914.64,-48.8 1095.36,-48.8 1095.36,-84.8"/>
<text text-anchor="middle" x="1005" y="-62.6" font-family="Times,serif" font-size="14.00">SchoolDashboardComponent</text>
</g>
<!-- SchoolDashboardComponent&#45;&gt;SchoolModule -->
<g id="edge8" class="edge">
<title>SchoolDashboardComponent&#45;&gt;SchoolModule</title>
<path fill="none" stroke="black" d="M1005,-85.11C1005,-104.95 1005,-133.8 1005,-133.8 1005,-133.8 2284.76,-133.8 2284.76,-133.8"/>
<polygon fill="black" stroke="black" points="2284.76,-137.3 2294.76,-133.8 2284.76,-130.3 2284.76,-137.3"/>
</g>
<!-- SchoolStudentsComponent -->
<g id="node9" class="node">
<title>SchoolStudentsComponent</title>
<polygon fill="#ffffb3" stroke="black" points="896.44,-84.8 727.56,-84.8 727.56,-48.8 896.44,-48.8 896.44,-84.8"/>
<text text-anchor="middle" x="812" y="-62.6" font-family="Times,serif" font-size="14.00">SchoolStudentsComponent</text>
</g>
<!-- SchoolStudentsComponent&#45;&gt;SchoolModule -->
<g id="edge9" class="edge">
<title>SchoolStudentsComponent&#45;&gt;SchoolModule</title>
<path fill="none" stroke="black" d="M812,-84.83C812,-105.57 812,-136.8 812,-136.8 812,-136.8 2284.76,-136.8 2284.76,-136.8"/>
<polygon fill="black" stroke="black" points="2284.76,-140.3 2294.76,-136.8 2284.76,-133.3 2284.76,-140.3"/>
</g>
<!-- SchoolTeachersComponent -->
<g id="node10" class="node">
<title>SchoolTeachersComponent</title>
<polygon fill="#ffffb3" stroke="black" points="709.24,-84.8 538.76,-84.8 538.76,-48.8 709.24,-48.8 709.24,-84.8"/>
<text text-anchor="middle" x="624" y="-62.6" font-family="Times,serif" font-size="14.00">SchoolTeachersComponent</text>
</g>
<!-- SchoolTeachersComponent&#45;&gt;SchoolModule -->
<g id="edge10" class="edge">
<title>SchoolTeachersComponent&#45;&gt;SchoolModule</title>
<path fill="none" stroke="black" d="M624,-84.97C624,-106.3 624,-138.8 624,-138.8 624,-138.8 2284.38,-138.8 2284.38,-138.8"/>
<polygon fill="black" stroke="black" points="2284.38,-142.3 2294.38,-138.8 2284.38,-135.3 2284.38,-142.3"/>
</g>
<!-- SchoolUserComponent -->
<g id="node11" class="node">
<title>SchoolUserComponent</title>
<polygon fill="#ffffb3" stroke="black" points="520.15,-84.8 373.85,-84.8 373.85,-48.8 520.15,-48.8 520.15,-84.8"/>
<text text-anchor="middle" x="447" y="-62.6" font-family="Times,serif" font-size="14.00">SchoolUserComponent</text>
</g>
<!-- SchoolUserComponent&#45;&gt;SchoolModule -->
<g id="edge11" class="edge">
<title>SchoolUserComponent&#45;&gt;SchoolModule</title>
<path fill="none" stroke="black" d="M447,-84.96C447,-107.15 447,-141.8 447,-141.8 447,-141.8 2284.72,-141.8 2284.72,-141.8"/>
<polygon fill="black" stroke="black" points="2284.72,-145.3 2294.72,-141.8 2284.72,-138.3 2284.72,-145.3"/>
</g>
<!-- SchoolUsersComponent -->
<g id="node12" class="node">
<title>SchoolUsersComponent</title>
<polygon fill="#ffffb3" stroke="black" points="356.09,-84.8 203.91,-84.8 203.91,-48.8 356.09,-48.8 356.09,-84.8"/>
<text text-anchor="middle" x="280" y="-62.6" font-family="Times,serif" font-size="14.00">SchoolUsersComponent</text>
</g>
<!-- SchoolUsersComponent&#45;&gt;SchoolModule -->
<g id="edge12" class="edge">
<title>SchoolUsersComponent&#45;&gt;SchoolModule</title>
<path fill="none" stroke="black" d="M280,-84.89C280,-107.93 280,-144.8 280,-144.8 280,-144.8 2284.76,-144.8 2284.76,-144.8"/>
<polygon fill="black" stroke="black" points="2284.76,-148.3 2294.76,-144.8 2284.76,-141.3 2284.76,-148.3"/>
</g>
<!-- TeachersFormComponent -->
<g id="node13" class="node">
<title>TeachersFormComponent</title>
<polygon fill="#ffffb3" stroke="black" points="186.18,-84.8 23.82,-84.8 23.82,-48.8 186.18,-48.8 186.18,-84.8"/>
<text text-anchor="middle" x="105" y="-62.6" font-family="Times,serif" font-size="14.00">TeachersFormComponent</text>
</g>
<!-- TeachersFormComponent&#45;&gt;SchoolModule -->
<g id="edge13" class="edge">
<title>TeachersFormComponent&#45;&gt;SchoolModule</title>
<path fill="none" stroke="black" d="M105,-85.18C105,-109.08 105,-147.8 105,-147.8 105,-147.8 2284.63,-147.8 2284.63,-147.8"/>
<polygon fill="black" stroke="black" points="2284.63,-151.3 2294.63,-147.8 2284.63,-144.3 2284.63,-151.3"/>
</g>
<!-- SchoolRoutingModule -->
<g id="node15" class="node">
<title>SchoolRoutingModule</title>
<polygon fill="#8dd3c7" stroke="black" points="2643.56,-84.8 2640.56,-88.8 2619.56,-88.8 2616.56,-84.8 2500.44,-84.8 2500.44,-48.8 2643.56,-48.8 2643.56,-84.8"/>
<text text-anchor="middle" x="2572" y="-62.6" font-family="Times,serif" font-size="14.00">SchoolRoutingModule</text>
</g>
<!-- SchoolRoutingModule&#45;&gt;SchoolModule -->
<g id="edge14" class="edge">
<title>SchoolRoutingModule&#45;&gt;SchoolModule</title>
<path fill="none" stroke="black" d="M2572,-84.85C2572,-99.17 2572,-116.8 2572,-116.8 2572,-116.8 2403.47,-116.8 2403.47,-116.8"/>
<polygon fill="black" stroke="black" points="2403.47,-113.3 2393.47,-116.8 2403.47,-120.3 2403.47,-113.3"/>
</g>
<!-- SharedModule -->
<g id="node16" class="node">
<title>SharedModule</title>
<polygon fill="#8dd3c7" stroke="black" points="2482.42,-84.8 2479.42,-88.8 2458.42,-88.8 2455.42,-84.8 2383.58,-84.8 2383.58,-48.8 2482.42,-48.8 2482.42,-84.8"/>
<text text-anchor="middle" x="2433" y="-62.6" font-family="Times,serif" font-size="14.00">SharedModule</text>
</g>
<!-- SharedModule&#45;&gt;SchoolModule -->
<g id="edge15" class="edge">
<title>SharedModule&#45;&gt;SchoolModule</title>
<path fill="none" stroke="black" d="M2388.5,-84.91C2388.5,-84.91 2388.5,-103.79 2388.5,-103.79"/>
<polygon fill="black" stroke="black" points="2385,-103.79 2388.5,-113.79 2392,-103.79 2385,-103.79"/>
</g>
<!-- AdminApiService -->
<g id="node17" class="node">
<title>AdminApiService</title>
<ellipse fill="#fdb462" stroke="black" cx="4759" cy="-66.8" rx="81.1" ry="18"/>
<text text-anchor="middle" x="4759" y="-62.6" font-family="Times,serif" font-size="14.00">AdminApiService</text>
</g>
<!-- AdminApiService&#45;&gt;SchoolModule -->
<g id="edge16" class="edge">
<title>AdminApiService&#45;&gt;SchoolModule</title>
<path fill="none" stroke="black" d="M4759,-85.18C4759,-109.08 4759,-147.8 4759,-147.8 4759,-147.8 2403.33,-147.8 2403.33,-147.8"/>
<polygon fill="black" stroke="black" points="2403.33,-144.3 2393.33,-147.8 2403.33,-151.3 2403.33,-144.3"/>
</g>
<!-- CourseRoomDataService -->
<g id="node18" class="node">
<title>CourseRoomDataService</title>
<ellipse fill="#fdb462" stroke="black" cx="4551" cy="-66.8" rx="109.37" ry="18"/>
<text text-anchor="middle" x="4551" y="-62.6" font-family="Times,serif" font-size="14.00">CourseRoomDataService</text>
</g>
<!-- CourseRoomDataService&#45;&gt;SchoolModule -->
<g id="edge17" class="edge">
<title>CourseRoomDataService&#45;&gt;SchoolModule</title>
<path fill="none" stroke="black" d="M4551,-84.89C4551,-107.93 4551,-144.8 4551,-144.8 4551,-144.8 2403.45,-144.8 2403.45,-144.8"/>
<polygon fill="black" stroke="black" points="2403.45,-141.3 2393.45,-144.8 2403.45,-148.3 2403.45,-141.3"/>
</g>
<!-- CourseRoomEntityService -->
<g id="node19" class="node">
<title>CourseRoomEntityService</title>
<ellipse fill="#fdb462" stroke="black" cx="4309" cy="-66.8" rx="114.63" ry="18"/>
<text text-anchor="middle" x="4309" y="-62.6" font-family="Times,serif" font-size="14.00">CourseRoomEntityService</text>
</g>
<!-- CourseRoomEntityService&#45;&gt;SchoolModule -->
<g id="edge18" class="edge">
<title>CourseRoomEntityService&#45;&gt;SchoolModule</title>
<path fill="none" stroke="black" d="M4309,-84.96C4309,-107.15 4309,-141.8 4309,-141.8 4309,-141.8 2403.56,-141.8 2403.56,-141.8"/>
<polygon fill="black" stroke="black" points="2403.56,-138.3 2393.56,-141.8 2403.56,-145.3 2403.56,-138.3"/>
</g>
<!-- CourseRoomService -->
<g id="node20" class="node">
<title>CourseRoomService</title>
<ellipse fill="#fdb462" stroke="black" cx="4085" cy="-66.8" rx="90.91" ry="18"/>
<text text-anchor="middle" x="4085" y="-62.6" font-family="Times,serif" font-size="14.00">CourseRoomService</text>
</g>
<!-- CourseRoomService&#45;&gt;SchoolModule -->
<g id="edge19" class="edge">
<title>CourseRoomService&#45;&gt;SchoolModule</title>
<path fill="none" stroke="black" d="M4085,-84.97C4085,-106.3 4085,-138.8 4085,-138.8 4085,-138.8 2403.3,-138.8 2403.3,-138.8"/>
<polygon fill="black" stroke="black" points="2403.3,-135.3 2393.3,-138.8 2403.3,-142.3 2403.3,-135.3"/>
</g>
<!-- RoomCourseService -->
<g id="node21" class="node">
<title>RoomCourseService</title>
<ellipse fill="#fdb462" stroke="black" cx="3885" cy="-66.8" rx="90.91" ry="18"/>
<text text-anchor="middle" x="3885" y="-62.6" font-family="Times,serif" font-size="14.00">RoomCourseService</text>
</g>
<!-- RoomCourseService&#45;&gt;SchoolModule -->
<g id="edge20" class="edge">
<title>RoomCourseService&#45;&gt;SchoolModule</title>
<path fill="none" stroke="black" d="M3885,-84.83C3885,-105.57 3885,-136.8 3885,-136.8 3885,-136.8 2403.53,-136.8 2403.53,-136.8"/>
<polygon fill="black" stroke="black" points="2403.53,-133.3 2393.53,-136.8 2403.53,-140.3 2403.53,-133.3"/>
</g>
<!-- RoomService -->
<g id="node22" class="node">
<title>RoomService</title>
<ellipse fill="#fdb462" stroke="black" cx="3712" cy="-66.8" rx="63.7" ry="18"/>
<text text-anchor="middle" x="3712" y="-62.6" font-family="Times,serif" font-size="14.00">RoomService</text>
</g>
<!-- RoomService&#45;&gt;SchoolModule -->
<g id="edge21" class="edge">
<title>RoomService&#45;&gt;SchoolModule</title>
<path fill="none" stroke="black" d="M3712,-85.11C3712,-104.95 3712,-133.8 3712,-133.8 3712,-133.8 2403.5,-133.8 2403.5,-133.8"/>
<polygon fill="black" stroke="black" points="2403.5,-130.3 2393.5,-133.8 2403.5,-137.3 2403.5,-130.3"/>
</g>
<!-- SchoolService -->
<g id="node23" class="node">
<title>SchoolService</title>
<ellipse fill="#fdb462" stroke="black" cx="3564" cy="-66.8" rx="66.63" ry="18"/>
<text text-anchor="middle" x="3564" y="-62.6" font-family="Times,serif" font-size="14.00">SchoolService</text>
</g>
<!-- SchoolService&#45;&gt;SchoolModule -->
<g id="edge22" class="edge">
<title>SchoolService&#45;&gt;SchoolModule</title>
<path fill="none" stroke="black" d="M3564,-84.97C3564,-103.89 3564,-130.8 3564,-130.8 3564,-130.8 2403.34,-130.8 2403.34,-130.8"/>
<polygon fill="black" stroke="black" points="2403.34,-127.3 2393.34,-130.8 2403.34,-134.3 2403.34,-127.3"/>
</g>
<!-- UserDataService -->
<g id="node24" class="node">
<title>UserDataService</title>
<ellipse fill="#fdb462" stroke="black" cx="3403" cy="-66.8" rx="76.4" ry="18"/>
<text text-anchor="middle" x="3403" y="-62.6" font-family="Times,serif" font-size="14.00">UserDataService</text>
</g>
<!-- UserDataService&#45;&gt;SchoolModule -->
<g id="edge23" class="edge">
<title>UserDataService&#45;&gt;SchoolModule</title>
<path fill="none" stroke="black" d="M3403,-85.1C3403,-103.07 3403,-127.8 3403,-127.8 3403,-127.8 2403.31,-127.8 2403.31,-127.8"/>
<polygon fill="black" stroke="black" points="2403.31,-124.3 2393.31,-127.8 2403.31,-131.3 2403.31,-124.3"/>
</g>
<!-- UserDomainDataService -->
<g id="node25" class="node">
<title>UserDomainDataService</title>
<ellipse fill="#fdb462" stroke="black" cx="3201" cy="-66.8" rx="107.62" ry="18"/>
<text text-anchor="middle" x="3201" y="-62.6" font-family="Times,serif" font-size="14.00">UserDomainDataService</text>
</g>
<!-- UserDomainDataService&#45;&gt;SchoolModule -->
<g id="edge24" class="edge">
<title>UserDomainDataService&#45;&gt;SchoolModule</title>
<path fill="none" stroke="black" d="M3201,-84.82C3201,-102.17 3201,-125.8 3201,-125.8 3201,-125.8 2403.47,-125.8 2403.47,-125.8"/>
<polygon fill="black" stroke="black" points="2403.47,-122.3 2393.47,-125.8 2403.47,-129.3 2403.47,-122.3"/>
</g>
<!-- UserDomainEntityService -->
<g id="node26" class="node">
<title>UserDomainEntityService</title>
<ellipse fill="#fdb462" stroke="black" cx="2963" cy="-66.8" rx="112.88" ry="18"/>
<text text-anchor="middle" x="2963" y="-62.6" font-family="Times,serif" font-size="14.00">UserDomainEntityService</text>
</g>
<!-- UserDomainEntityService&#45;&gt;SchoolModule -->
<g id="edge25" class="edge">
<title>UserDomainEntityService&#45;&gt;SchoolModule</title>
<path fill="none" stroke="black" d="M2963,-84.83C2963,-101.2 2963,-122.8 2963,-122.8 2963,-122.8 2403.35,-122.8 2403.35,-122.8"/>
<polygon fill="black" stroke="black" points="2403.35,-119.3 2393.35,-122.8 2403.35,-126.3 2403.35,-119.3"/>
</g>
<!-- UserEntityService -->
<g id="node27" class="node">
<title>UserEntityService</title>
<ellipse fill="#fdb462" stroke="black" cx="2750" cy="-66.8" rx="81.66" ry="18"/>
<text text-anchor="middle" x="2750" y="-62.6" font-family="Times,serif" font-size="14.00">UserEntityService</text>
</g>
<!-- UserEntityService&#45;&gt;SchoolModule -->
<g id="edge26" class="edge">
<title>UserEntityService&#45;&gt;SchoolModule</title>
<path fill="none" stroke="black" d="M2750,-85.04C2750,-100.37 2750,-119.8 2750,-119.8 2750,-119.8 2403.38,-119.8 2403.38,-119.8"/>
<polygon fill="black" stroke="black" points="2403.38,-116.3 2393.38,-119.8 2403.38,-123.3 2403.38,-116.3"/>
</g>
</g>
</svg>
