<?xml version="1.0" encoding="UTF-8" standalone="no"?>
<!DOCTYPE svg PUBLIC "-//W3C//DTD SVG 1.1//EN"
 "http://www.w3.org/Graphics/SVG/1.1/DTD/svg11.dtd">
<!-- Generated by graphviz version 2.47.3 (20210619.1520)
 -->
<!-- Title: dependencies Pages: 1 -->
<svg width="330pt" height="247pt"
 viewBox="0.00 0.00 330.00 246.80" xmlns="http://www.w3.org/2000/svg" xmlns:xlink="http://www.w3.org/1999/xlink">
<g id="graph0" class="graph" transform="scale(1 1) rotate(0) translate(4 242.8)">
<title>dependencies</title>
<polygon fill="white" stroke="transparent" points="-4,4 -4,-242.8 326,-242.8 326,4 -4,4"/>
<text text-anchor="middle" x="161" y="-8.2" font-family="sans-serif" font-size="14.00">dependencies</text>
<g id="clust1" class="cluster">
<title>cluster_AuthModule</title>
<polygon fill="none" stroke="black" stroke-dasharray="1,5" points="8,-32.8 8,-230.8 314,-230.8 314,-32.8 8,-32.8"/>
</g>
<g id="clust5" class="cluster">
<title>cluster_AuthModule_exports</title>
<polygon fill="none" stroke="black" points="75,-170.8 75,-222.8 247,-222.8 247,-170.8 75,-170.8"/>
</g>
<g id="clust4" class="cluster">
<title>cluster_AuthModule_imports</title>
<polygon fill="none" stroke="black" points="192,-40.8 192,-92.8 306,-92.8 306,-40.8 192,-40.8"/>
</g>
<g id="clust2" class="cluster">
<title>cluster_AuthModule_declarations</title>
<polygon fill="none" stroke="black" points="16,-40.8 16,-92.8 184,-92.8 184,-40.8 16,-40.8"/>
</g>
<!-- LoginDialogComponent -->
<g id="node1" class="node">
<title>LoginDialogComponent</title>
<polygon fill="#ffffb3" stroke="black" points="176.38,-84.8 23.62,-84.8 23.62,-48.8 176.38,-48.8 176.38,-84.8"/>
<text text-anchor="middle" x="100" y="-62.6" font-family="Times,serif" font-size="14.00">LoginDialogComponent</text>
</g>
<!-- AuthModule -->
<g id="node2" class="node">
<title>AuthModule</title>
<polygon fill="#8dd3c7" stroke="black" points="204.55,-149.8 201.55,-153.8 180.55,-153.8 177.55,-149.8 117.45,-149.8 117.45,-113.8 204.55,-113.8 204.55,-149.8"/>
<text text-anchor="middle" x="161" y="-127.6" font-family="Times,serif" font-size="14.00">AuthModule</text>
</g>
<!-- LoginDialogComponent&#45;&gt;AuthModule -->
<g id="edge1" class="edge">
<title>LoginDialogComponent&#45;&gt;AuthModule</title>
<path fill="none" stroke="black" d="M146.83,-84.91C146.83,-84.91 146.83,-103.79 146.83,-103.79"/>
<polygon fill="black" stroke="black" points="143.33,-103.79 146.83,-113.79 150.33,-103.79 143.33,-103.79"/>
</g>
<!-- LoginDialogComponent  -->
<g id="node4" class="node">
<title>LoginDialogComponent </title>
<polygon fill="#fb8072" stroke="black" points="239.38,-214.8 82.62,-214.8 82.62,-178.8 239.38,-178.8 239.38,-214.8"/>
<text text-anchor="middle" x="161" y="-192.6" font-family="Times,serif" font-size="14.00">LoginDialogComponent </text>
</g>
<!-- AuthModule&#45;&gt;LoginDialogComponent  -->
<g id="edge3" class="edge">
<title>AuthModule&#45;&gt;LoginDialogComponent </title>
<path fill="none" stroke="black" stroke-dasharray="5,2" d="M161,-149.91C161,-149.91 161,-168.79 161,-168.79"/>
<polygon fill="black" stroke="black" points="157.5,-168.79 161,-178.79 164.5,-168.79 157.5,-168.79"/>
</g>
<!-- SharedModule -->
<g id="node3" class="node">
<title>SharedModule</title>
<polygon fill="#8dd3c7" stroke="black" points="298.42,-84.8 295.42,-88.8 274.42,-88.8 271.42,-84.8 199.58,-84.8 199.58,-48.8 298.42,-48.8 298.42,-84.8"/>
<text text-anchor="middle" x="249" y="-62.6" font-family="Times,serif" font-size="14.00">SharedModule</text>
</g>
<!-- SharedModule&#45;&gt;AuthModule -->
<g id="edge2" class="edge">
<title>SharedModule&#45;&gt;AuthModule</title>
<path fill="none" stroke="black" d="M199.57,-66.8C192.8,-66.8 188.11,-66.8 188.11,-66.8 188.11,-66.8 188.11,-103.69 188.11,-103.69"/>
<polygon fill="black" stroke="black" points="184.61,-103.69 188.11,-113.69 191.61,-103.69 184.61,-103.69"/>
</g>
</g>
</svg>
