<?xml version="1.0" encoding="UTF-8" standalone="no"?>
<!DOCTYPE svg PUBLIC "-//W3C//DTD SVG 1.1//EN"
 "http://www.w3.org/Graphics/SVG/1.1/DTD/svg11.dtd">
<!-- Generated by graphviz version 2.47.3 (20210619.1520)
 -->
<!-- Title: dependencies Pages: 1 -->
<svg width="1930pt" height="174pt"
 viewBox="0.00 0.00 1930.00 173.80" xmlns="http://www.w3.org/2000/svg" xmlns:xlink="http://www.w3.org/1999/xlink">
<g id="graph0" class="graph" transform="scale(1 1) rotate(0) translate(4 169.8)">
<title>dependencies</title>
<polygon fill="white" stroke="transparent" points="-4,4 -4,-169.8 1926,-169.8 1926,4 -4,4"/>
<text text-anchor="middle" x="961" y="-8.2" font-family="sans-serif" font-size="14.00">dependencies</text>
<g id="clust1" class="cluster">
<title>cluster_UserProfilesModule</title>
<polygon fill="none" stroke="black" stroke-dasharray="1,5" points="8,-32.8 8,-157.8 1914,-157.8 1914,-32.8 8,-32.8"/>
</g>
<g id="clust2" class="cluster">
<title>cluster_UserProfilesModule_declarations</title>
<polygon fill="none" stroke="black" points="1420,-40.8 1420,-92.8 1906,-92.8 1906,-40.8 1420,-40.8"/>
</g>
<g id="clust9" class="cluster">
<title>cluster_UserProfilesModule_providers</title>
<polygon fill="none" stroke="black" points="339,-40.8 339,-92.8 1412,-92.8 1412,-40.8 339,-40.8"/>
</g>
<g id="clust6" class="cluster">
<title>cluster_UserProfilesModule_imports</title>
<polygon fill="none" stroke="black" points="16,-40.8 16,-92.8 331,-92.8 331,-40.8 16,-40.8"/>
</g>
<!-- EditProfileComponent -->
<g id="node1" class="node">
<title>EditProfileComponent</title>
<polygon fill="#ffffb3" stroke="black" points="1898.27,-84.8 1755.73,-84.8 1755.73,-48.8 1898.27,-48.8 1898.27,-84.8"/>
<text text-anchor="middle" x="1827" y="-62.6" font-family="Times,serif" font-size="14.00">EditProfileComponent</text>
</g>
<!-- UserProfilesModule -->
<g id="node4" class="node">
<title>UserProfilesModule</title>
<polygon fill="#8dd3c7" stroke="black" points="1052.52,-149.8 1049.52,-153.8 1028.52,-153.8 1025.52,-149.8 923.48,-149.8 923.48,-113.8 1052.52,-113.8 1052.52,-149.8"/>
<text text-anchor="middle" x="988" y="-127.6" font-family="Times,serif" font-size="14.00">UserProfilesModule</text>
</g>
<!-- EditProfileComponent&#45;&gt;UserProfilesModule -->
<g id="edge1" class="edge">
<title>EditProfileComponent&#45;&gt;UserProfilesModule</title>
<path fill="none" stroke="black" d="M1827,-84.81C1827,-107.29 1827,-142.8 1827,-142.8 1827,-142.8 1062.79,-142.8 1062.79,-142.8"/>
<polygon fill="black" stroke="black" points="1062.79,-139.3 1052.79,-142.8 1062.79,-146.3 1062.79,-139.3"/>
</g>
<!-- ProfileUserComponent -->
<g id="node2" class="node">
<title>ProfileUserComponent</title>
<polygon fill="#ffffb3" stroke="black" points="1737.86,-84.8 1592.14,-84.8 1592.14,-48.8 1737.86,-48.8 1737.86,-84.8"/>
<text text-anchor="middle" x="1665" y="-62.6" font-family="Times,serif" font-size="14.00">ProfileUserComponent</text>
</g>
<!-- ProfileUserComponent&#45;&gt;UserProfilesModule -->
<g id="edge2" class="edge">
<title>ProfileUserComponent&#45;&gt;UserProfilesModule</title>
<path fill="none" stroke="black" d="M1665,-84.93C1665,-105.37 1665,-135.8 1665,-135.8 1665,-135.8 1062.61,-135.8 1062.61,-135.8"/>
<polygon fill="black" stroke="black" points="1062.61,-132.3 1052.61,-135.8 1062.61,-139.3 1062.61,-132.3"/>
</g>
<!-- UserProfileComponent -->
<g id="node3" class="node">
<title>UserProfileComponent</title>
<polygon fill="#ffffb3" stroke="black" points="1573.86,-84.8 1428.14,-84.8 1428.14,-48.8 1573.86,-48.8 1573.86,-84.8"/>
<text text-anchor="middle" x="1501" y="-62.6" font-family="Times,serif" font-size="14.00">UserProfileComponent</text>
</g>
<!-- UserProfileComponent&#45;&gt;UserProfilesModule -->
<g id="edge3" class="edge">
<title>UserProfileComponent&#45;&gt;UserProfilesModule</title>
<path fill="none" stroke="black" d="M1501,-85.07C1501,-103.36 1501,-128.8 1501,-128.8 1501,-128.8 1062.71,-128.8 1062.71,-128.8"/>
<polygon fill="black" stroke="black" points="1062.71,-125.3 1052.71,-128.8 1062.71,-132.3 1062.71,-125.3"/>
</g>
<!-- MaterialModule -->
<g id="node5" class="node">
<title>MaterialModule</title>
<polygon fill="#8dd3c7" stroke="black" points="323.47,-84.8 320.47,-88.8 299.47,-88.8 296.47,-84.8 216.53,-84.8 216.53,-48.8 323.47,-48.8 323.47,-84.8"/>
<text text-anchor="middle" x="270" y="-62.6" font-family="Times,serif" font-size="14.00">MaterialModule</text>
</g>
<!-- MaterialModule&#45;&gt;UserProfilesModule -->
<g id="edge4" class="edge">
<title>MaterialModule&#45;&gt;UserProfilesModule</title>
<path fill="none" stroke="black" d="M270,-84.93C270,-105.37 270,-135.8 270,-135.8 270,-135.8 913.33,-135.8 913.33,-135.8"/>
<polygon fill="black" stroke="black" points="913.33,-139.3 923.33,-135.8 913.33,-132.3 913.33,-139.3"/>
</g>
<!-- UserProfilesRoutingModule -->
<g id="node6" class="node">
<title>UserProfilesRoutingModule</title>
<polygon fill="#8dd3c7" stroke="black" points="198.14,-84.8 195.14,-88.8 174.14,-88.8 171.14,-84.8 23.86,-84.8 23.86,-48.8 198.14,-48.8 198.14,-84.8"/>
<text text-anchor="middle" x="111" y="-62.6" font-family="Times,serif" font-size="14.00">UserProfilesRoutingModule</text>
</g>
<!-- UserProfilesRoutingModule&#45;&gt;UserProfilesModule -->
<g id="edge5" class="edge">
<title>UserProfilesRoutingModule&#45;&gt;UserProfilesModule</title>
<path fill="none" stroke="black" d="M111,-84.81C111,-107.29 111,-142.8 111,-142.8 111,-142.8 913.16,-142.8 913.16,-142.8"/>
<polygon fill="black" stroke="black" points="913.16,-146.3 923.16,-142.8 913.16,-139.3 913.16,-146.3"/>
</g>
<!-- GuardianDataService -->
<g id="node7" class="node">
<title>GuardianDataService</title>
<ellipse fill="#fdb462" stroke="black" cx="1310" cy="-66.8" rx="94.3" ry="18"/>
<text text-anchor="middle" x="1310" y="-62.6" font-family="Times,serif" font-size="14.00">GuardianDataService</text>
</g>
<!-- GuardianDataService&#45;&gt;UserProfilesModule -->
<g id="edge6" class="edge">
<title>GuardianDataService&#45;&gt;UserProfilesModule</title>
<path fill="none" stroke="black" d="M1310,-84.81C1310,-100.85 1310,-121.8 1310,-121.8 1310,-121.8 1062.77,-121.8 1062.77,-121.8"/>
<polygon fill="black" stroke="black" points="1062.77,-118.3 1052.77,-121.8 1062.77,-125.3 1062.77,-118.3"/>
</g>
<!-- GuardianEntityService -->
<g id="node8" class="node">
<title>GuardianEntityService</title>
<ellipse fill="#fdb462" stroke="black" cx="1098" cy="-66.8" rx="99.56" ry="18"/>
<text text-anchor="middle" x="1098" y="-62.6" font-family="Times,serif" font-size="14.00">GuardianEntityService</text>
</g>
<!-- GuardianEntityService&#45;&gt;UserProfilesModule -->
<g id="edge7" class="edge">
<title>GuardianEntityService&#45;&gt;UserProfilesModule</title>
<path fill="none" stroke="black" d="M1025.62,-79.33C1025.62,-79.33 1025.62,-103.65 1025.62,-103.65"/>
<polygon fill="black" stroke="black" points="1022.12,-103.65 1025.62,-113.65 1029.12,-103.65 1022.12,-103.65"/>
</g>
<!-- UserProfileDataService -->
<g id="node9" class="node">
<title>UserProfileDataService</title>
<ellipse fill="#fdb462" stroke="black" cx="878" cy="-66.8" rx="102.96" ry="18"/>
<text text-anchor="middle" x="878" y="-62.6" font-family="Times,serif" font-size="14.00">UserProfileDataService</text>
</g>
<!-- UserProfileDataService&#45;&gt;UserProfilesModule -->
<g id="edge8" class="edge">
<title>UserProfileDataService&#45;&gt;UserProfilesModule</title>
<path fill="none" stroke="black" d="M951.98,-79.33C951.98,-79.33 951.98,-103.65 951.98,-103.65"/>
<polygon fill="black" stroke="black" points="948.48,-103.65 951.98,-113.65 955.48,-103.65 948.48,-103.65"/>
</g>
<!-- UserProfileEntityService -->
<g id="node10" class="node">
<title>UserProfileEntityService</title>
<ellipse fill="#fdb462" stroke="black" cx="649" cy="-66.8" rx="108.22" ry="18"/>
<text text-anchor="middle" x="649" y="-62.6" font-family="Times,serif" font-size="14.00">UserProfileEntityService</text>
</g>
<!-- UserProfileEntityService&#45;&gt;UserProfilesModule -->
<g id="edge9" class="edge">
<title>UserProfileEntityService&#45;&gt;UserProfilesModule</title>
<path fill="none" stroke="black" d="M649,-84.81C649,-100.85 649,-121.8 649,-121.8 649,-121.8 913.44,-121.8 913.44,-121.8"/>
<polygon fill="black" stroke="black" points="913.44,-125.3 923.44,-121.8 913.44,-118.3 913.44,-125.3"/>
</g>
<!-- UserProfilesService -->
<g id="node11" class="node">
<title>UserProfilesService</title>
<ellipse fill="#fdb462" stroke="black" cx="435" cy="-66.8" rx="88.01" ry="18"/>
<text text-anchor="middle" x="435" y="-62.6" font-family="Times,serif" font-size="14.00">UserProfilesService</text>
</g>
<!-- UserProfilesService&#45;&gt;UserProfilesModule -->
<g id="edge10" class="edge">
<title>UserProfilesService&#45;&gt;UserProfilesModule</title>
<path fill="none" stroke="black" d="M435,-85.07C435,-103.36 435,-128.8 435,-128.8 435,-128.8 913.21,-128.8 913.21,-128.8"/>
<polygon fill="black" stroke="black" points="913.21,-132.3 923.21,-128.8 913.21,-125.3 913.21,-132.3"/>
</g>
</g>
</svg>
