<?xml version="1.0" encoding="UTF-8" standalone="no"?>
<!DOCTYPE svg PUBLIC "-//W3C//DTD SVG 1.1//EN"
 "http://www.w3.org/Graphics/SVG/1.1/DTD/svg11.dtd">
<!-- Generated by graphviz version 2.47.3 (20210619.1520)
 -->
<!-- Title: dependencies Pages: 1 -->
<svg width="1346pt" height="247pt"
 viewBox="0.00 0.00 1346.00 246.80" xmlns="http://www.w3.org/2000/svg" xmlns:xlink="http://www.w3.org/1999/xlink">
<g id="graph0" class="graph" transform="scale(1 1) rotate(0) translate(4 242.8)">
<title>dependencies</title>
<polygon fill="white" stroke="transparent" points="-4,4 -4,-242.8 1342,-242.8 1342,4 -4,4"/>
<text text-anchor="middle" x="669" y="-8.2" font-family="sans-serif" font-size="14.00">dependencies</text>
<g id="clust1" class="cluster">
<title>cluster_CoreModule</title>
<polygon fill="none" stroke="black" stroke-dasharray="1,5" points="8,-32.8 8,-230.8 1330,-230.8 1330,-32.8 8,-32.8"/>
</g>
<g id="clust2" class="cluster">
<title>cluster_CoreModule_declarations</title>
<polygon fill="none" stroke="black" points="448,-40.8 448,-92.8 1322,-92.8 1322,-40.8 448,-40.8"/>
</g>
<g id="clust10" class="cluster">
<title>cluster_CoreModule_exports</title>
<polygon fill="none" stroke="black" points="280,-170.8 280,-222.8 1033,-222.8 1033,-170.8 280,-170.8"/>
</g>
<g id="clust9" class="cluster">
<title>cluster_CoreModule_imports</title>
<polygon fill="none" stroke="black" points="326,-40.8 326,-92.8 440,-92.8 440,-40.8 326,-40.8"/>
</g>
<g id="clust12" class="cluster">
<title>cluster_CoreModule_providers</title>
<polygon fill="none" stroke="black" points="16,-40.8 16,-92.8 318,-92.8 318,-40.8 16,-40.8"/>
</g>
<!-- FooterComponent -->
<g id="node1" class="node">
<title>FooterComponent</title>
<polygon fill="#ffffb3" stroke="black" points="1313.88,-84.8 1196.12,-84.8 1196.12,-48.8 1313.88,-48.8 1313.88,-84.8"/>
<text text-anchor="middle" x="1255" y="-62.6" font-family="Times,serif" font-size="14.00">FooterComponent</text>
</g>
<!-- CoreModule -->
<g id="node7" class="node">
<title>CoreModule</title>
<polygon fill="#8dd3c7" stroke="black" points="706.26,-149.8 703.26,-153.8 682.26,-153.8 679.26,-149.8 619.74,-149.8 619.74,-113.8 706.26,-113.8 706.26,-149.8"/>
<text text-anchor="middle" x="663" y="-127.6" font-family="Times,serif" font-size="14.00">CoreModule</text>
</g>
<!-- FooterComponent&#45;&gt;CoreModule -->
<g id="edge1" class="edge">
<title>FooterComponent&#45;&gt;CoreModule</title>
<path fill="none" stroke="black" d="M1255,-85.02C1255,-105.17 1255,-134.8 1255,-134.8 1255,-134.8 716.53,-134.8 716.53,-134.8"/>
<polygon fill="black" stroke="black" points="716.53,-131.3 706.53,-134.8 716.53,-138.3 716.53,-131.3"/>
</g>
<!-- HeaderComponent -->
<g id="node2" class="node">
<title>HeaderComponent</title>
<polygon fill="#ffffb3" stroke="black" points="1177.74,-84.8 1056.26,-84.8 1056.26,-48.8 1177.74,-48.8 1177.74,-84.8"/>
<text text-anchor="middle" x="1117" y="-62.6" font-family="Times,serif" font-size="14.00">HeaderComponent</text>
</g>
<!-- HeaderComponent&#45;&gt;CoreModule -->
<g id="edge2" class="edge">
<title>HeaderComponent&#45;&gt;CoreModule</title>
<path fill="none" stroke="black" d="M1117,-85.02C1117,-103.63 1117,-129.8 1117,-129.8 1117,-129.8 716.53,-129.8 716.53,-129.8"/>
<polygon fill="black" stroke="black" points="716.53,-126.3 706.53,-129.8 716.53,-133.3 716.53,-126.3"/>
</g>
<!-- LayoutComponent -->
<g id="node3" class="node">
<title>LayoutComponent</title>
<polygon fill="#ffffb3" stroke="black" points="1038.49,-84.8 917.51,-84.8 917.51,-48.8 1038.49,-48.8 1038.49,-84.8"/>
<text text-anchor="middle" x="978" y="-62.6" font-family="Times,serif" font-size="14.00">LayoutComponent</text>
</g>
<!-- LayoutComponent&#45;&gt;CoreModule -->
<g id="edge3" class="edge">
<title>LayoutComponent&#45;&gt;CoreModule</title>
<path fill="none" stroke="black" d="M971.1,-84.83C971.1,-101.86 971.1,-124.8 971.1,-124.8 971.1,-124.8 716.49,-124.8 716.49,-124.8"/>
<polygon fill="black" stroke="black" points="716.49,-121.3 706.49,-124.8 716.49,-128.3 716.49,-121.3"/>
</g>
<!-- MainContentComponent -->
<g id="node4" class="node">
<title>MainContentComponent</title>
<polygon fill="#ffffb3" stroke="black" points="899.71,-84.8 744.29,-84.8 744.29,-48.8 899.71,-48.8 899.71,-84.8"/>
<text text-anchor="middle" x="822" y="-62.6" font-family="Times,serif" font-size="14.00">MainContentComponent</text>
</g>
<!-- MainContentComponent&#45;&gt;CoreModule -->
<g id="edge4" class="edge">
<title>MainContentComponent&#45;&gt;CoreModule</title>
<path fill="none" stroke="black" d="M752.39,-85.04C752.39,-100.37 752.39,-119.8 752.39,-119.8 752.39,-119.8 716.38,-119.8 716.38,-119.8"/>
<polygon fill="black" stroke="black" points="716.38,-116.3 706.38,-119.8 716.38,-123.3 716.38,-116.3"/>
</g>
<!-- SettingsComponent -->
<g id="node5" class="node">
<title>SettingsComponent</title>
<polygon fill="#ffffb3" stroke="black" points="726.45,-84.8 599.55,-84.8 599.55,-48.8 726.45,-48.8 726.45,-84.8"/>
<text text-anchor="middle" x="663" y="-62.6" font-family="Times,serif" font-size="14.00">SettingsComponent</text>
</g>
<!-- SettingsComponent&#45;&gt;CoreModule -->
<g id="edge5" class="edge">
<title>SettingsComponent&#45;&gt;CoreModule</title>
<path fill="none" stroke="black" d="M663,-84.91C663,-84.91 663,-103.79 663,-103.79"/>
<polygon fill="black" stroke="black" points="659.5,-103.79 663,-113.79 666.5,-103.79 659.5,-103.79"/>
</g>
<!-- SidenavComponent -->
<g id="node6" class="node">
<title>SidenavComponent</title>
<polygon fill="#ffffb3" stroke="black" points="582.44,-84.8 455.56,-84.8 455.56,-48.8 582.44,-48.8 582.44,-84.8"/>
<text text-anchor="middle" x="519" y="-62.6" font-family="Times,serif" font-size="14.00">SidenavComponent</text>
</g>
<!-- SidenavComponent&#45;&gt;CoreModule -->
<g id="edge6" class="edge">
<title>SidenavComponent&#45;&gt;CoreModule</title>
<path fill="none" stroke="black" d="M574.1,-85.04C574.1,-100.37 574.1,-119.8 574.1,-119.8 574.1,-119.8 609.59,-119.8 609.59,-119.8"/>
<polygon fill="black" stroke="black" points="609.59,-123.3 619.59,-119.8 609.59,-116.3 609.59,-123.3"/>
</g>
<!-- FooterComponent  -->
<g id="node9" class="node">
<title>FooterComponent </title>
<polygon fill="#fb8072" stroke="black" points="1024.88,-214.8 903.12,-214.8 903.12,-178.8 1024.88,-178.8 1024.88,-214.8"/>
<text text-anchor="middle" x="964" y="-192.6" font-family="Times,serif" font-size="14.00">FooterComponent </text>
</g>
<!-- CoreModule&#45;&gt;FooterComponent  -->
<g id="edge8" class="edge">
<title>CoreModule&#45;&gt;FooterComponent </title>
<path fill="none" stroke="black" stroke-dasharray="5,2" d="M706.38,-139.8C777.33,-139.8 910.41,-139.8 910.41,-139.8 910.41,-139.8 910.41,-168.76 910.41,-168.76"/>
<polygon fill="black" stroke="black" points="906.91,-168.76 910.41,-178.76 913.91,-168.76 906.91,-168.76"/>
</g>
<!-- HeaderComponent  -->
<g id="node10" class="node">
<title>HeaderComponent </title>
<polygon fill="#fb8072" stroke="black" points="885.74,-214.8 760.26,-214.8 760.26,-178.8 885.74,-178.8 885.74,-214.8"/>
<text text-anchor="middle" x="823" y="-192.6" font-family="Times,serif" font-size="14.00">HeaderComponent </text>
</g>
<!-- CoreModule&#45;&gt;HeaderComponent  -->
<g id="edge9" class="edge">
<title>CoreModule&#45;&gt;HeaderComponent </title>
<path fill="none" stroke="black" stroke-dasharray="5,2" d="M706.3,-144.8C753.68,-144.8 823,-144.8 823,-144.8 823,-144.8 823,-168.61 823,-168.61"/>
<polygon fill="black" stroke="black" points="819.5,-168.61 823,-178.61 826.5,-168.61 819.5,-168.61"/>
</g>
<!-- MainContentComponent  -->
<g id="node11" class="node">
<title>MainContentComponent </title>
<polygon fill="#fb8072" stroke="black" points="742.21,-214.8 583.79,-214.8 583.79,-178.8 742.21,-178.8 742.21,-214.8"/>
<text text-anchor="middle" x="663" y="-192.6" font-family="Times,serif" font-size="14.00">MainContentComponent </text>
</g>
<!-- CoreModule&#45;&gt;MainContentComponent  -->
<g id="edge10" class="edge">
<title>CoreModule&#45;&gt;MainContentComponent </title>
<path fill="none" stroke="black" stroke-dasharray="5,2" d="M663,-149.91C663,-149.91 663,-168.79 663,-168.79"/>
<polygon fill="black" stroke="black" points="659.5,-168.79 663,-178.79 666.5,-168.79 659.5,-168.79"/>
</g>
<!-- SettingsComponent  -->
<g id="node12" class="node">
<title>SettingsComponent </title>
<polygon fill="#fb8072" stroke="black" points="565.95,-214.8 436.05,-214.8 436.05,-178.8 565.95,-178.8 565.95,-214.8"/>
<text text-anchor="middle" x="501" y="-192.6" font-family="Times,serif" font-size="14.00">SettingsComponent </text>
</g>
<!-- CoreModule&#45;&gt;SettingsComponent  -->
<g id="edge11" class="edge">
<title>CoreModule&#45;&gt;SettingsComponent </title>
<path fill="none" stroke="black" stroke-dasharray="5,2" d="M619.41,-144.8C574.46,-144.8 510.88,-144.8 510.88,-144.8 510.88,-144.8 510.88,-168.61 510.88,-168.61"/>
<polygon fill="black" stroke="black" points="507.38,-168.61 510.88,-178.61 514.38,-168.61 507.38,-168.61"/>
</g>
<!-- SidenavComponent  -->
<g id="node13" class="node">
<title>SidenavComponent </title>
<polygon fill="#fb8072" stroke="black" points="417.93,-214.8 288.07,-214.8 288.07,-178.8 417.93,-178.8 417.93,-214.8"/>
<text text-anchor="middle" x="353" y="-192.6" font-family="Times,serif" font-size="14.00">SidenavComponent </text>
</g>
<!-- CoreModule&#45;&gt;SidenavComponent  -->
<g id="edge12" class="edge">
<title>CoreModule&#45;&gt;SidenavComponent </title>
<path fill="none" stroke="black" stroke-dasharray="5,2" d="M619.7,-139.8C539.49,-139.8 375.88,-139.8 375.88,-139.8 375.88,-139.8 375.88,-168.76 375.88,-168.76"/>
<polygon fill="black" stroke="black" points="372.38,-168.76 375.88,-178.76 379.38,-168.76 372.38,-168.76"/>
</g>
<!-- SharedModule -->
<g id="node8" class="node">
<title>SharedModule</title>
<polygon fill="#8dd3c7" stroke="black" points="432.42,-84.8 429.42,-88.8 408.42,-88.8 405.42,-84.8 333.58,-84.8 333.58,-48.8 432.42,-48.8 432.42,-84.8"/>
<text text-anchor="middle" x="383" y="-62.6" font-family="Times,serif" font-size="14.00">SharedModule</text>
</g>
<!-- SharedModule&#45;&gt;CoreModule -->
<g id="edge7" class="edge">
<title>SharedModule&#45;&gt;CoreModule</title>
<path fill="none" stroke="black" d="M425.09,-84.83C425.09,-101.86 425.09,-124.8 425.09,-124.8 425.09,-124.8 609.64,-124.8 609.64,-124.8"/>
<polygon fill="black" stroke="black" points="609.64,-128.3 619.64,-124.8 609.64,-121.3 609.64,-128.3"/>
</g>
<!-- LayoutService -->
<g id="node14" class="node">
<title>LayoutService</title>
<ellipse fill="#fdb462" stroke="black" cx="243" cy="-66.8" rx="67.19" ry="18"/>
<text text-anchor="middle" x="243" y="-62.6" font-family="Times,serif" font-size="14.00">LayoutService</text>
</g>
<!-- LayoutService&#45;&gt;CoreModule -->
<g id="edge13" class="edge">
<title>LayoutService&#45;&gt;CoreModule</title>
<path fill="none" stroke="black" d="M299.19,-76.92C299.19,-94.73 299.19,-129.8 299.19,-129.8 299.19,-129.8 609.48,-129.8 609.48,-129.8"/>
<polygon fill="black" stroke="black" points="609.48,-133.3 619.48,-129.8 609.48,-126.3 609.48,-133.3"/>
</g>
<!-- ThemeService -->
<g id="node15" class="node">
<title>ThemeService</title>
<ellipse fill="#fdb462" stroke="black" cx="91" cy="-66.8" rx="66.61" ry="18"/>
<text text-anchor="middle" x="91" y="-62.6" font-family="Times,serif" font-size="14.00">ThemeService</text>
</g>
<!-- ThemeService&#45;&gt;CoreModule -->
<g id="edge14" class="edge">
<title>ThemeService&#45;&gt;CoreModule</title>
<path fill="none" stroke="black" d="M91,-85.02C91,-105.17 91,-134.8 91,-134.8 91,-134.8 609.54,-134.8 609.54,-134.8"/>
<polygon fill="black" stroke="black" points="609.54,-138.3 619.54,-134.8 609.54,-131.3 609.54,-138.3"/>
</g>
</g>
</svg>
