<?xml version="1.0" encoding="UTF-8" standalone="no"?>
<!DOCTYPE svg PUBLIC "-//W3C//DTD SVG 1.1//EN"
 "http://www.w3.org/Graphics/SVG/1.1/DTD/svg11.dtd">
<!-- Generated by graphviz version 2.47.3 (20210619.1520)
 -->
<!-- Title: dependencies Pages: 1 -->
<svg width="1264pt" height="247pt"
 viewBox="0.00 0.00 1264.00 246.80" xmlns="http://www.w3.org/2000/svg" xmlns:xlink="http://www.w3.org/1999/xlink">
<g id="graph0" class="graph" transform="scale(1 1) rotate(0) translate(4 242.8)">
<title>dependencies</title>
<polygon fill="white" stroke="transparent" points="-4,4 -4,-242.8 1260,-242.8 1260,4 -4,4"/>
<text text-anchor="middle" x="628" y="-8.2" font-family="sans-serif" font-size="14.00">dependencies</text>
<g id="clust1" class="cluster">
<title>cluster_StudentsModule</title>
<polygon fill="none" stroke="black" stroke-dasharray="1,5" points="8,-32.8 8,-230.8 1248,-230.8 1248,-32.8 8,-32.8"/>
</g>
<g id="clust5" class="cluster">
<title>cluster_StudentsModule_imports</title>
<polygon fill="none" stroke="black" points="830,-40.8 830,-92.8 1240,-92.8 1240,-40.8 830,-40.8"/>
</g>
<g id="clust6" class="cluster">
<title>cluster_StudentsModule_exports</title>
<polygon fill="none" stroke="black" points="632,-170.8 632,-222.8 820,-222.8 820,-170.8 632,-170.8"/>
</g>
<g id="clust8" class="cluster">
<title>cluster_StudentsModule_providers</title>
<polygon fill="none" stroke="black" points="426,-40.8 426,-92.8 822,-92.8 822,-40.8 426,-40.8"/>
</g>
<g id="clust2" class="cluster">
<title>cluster_StudentsModule_declarations</title>
<polygon fill="none" stroke="black" points="16,-40.8 16,-92.8 418,-92.8 418,-40.8 16,-40.8"/>
</g>
<!-- CourseStudentsComponent -->
<g id="node1" class="node">
<title>CourseStudentsComponent</title>
<polygon fill="#ffffb3" stroke="black" points="409.71,-84.8 240.29,-84.8 240.29,-48.8 409.71,-48.8 409.71,-84.8"/>
<text text-anchor="middle" x="325" y="-62.6" font-family="Times,serif" font-size="14.00">CourseStudentsComponent</text>
</g>
<!-- StudentsModule -->
<g id="node3" class="node">
<title>StudentsModule</title>
<polygon fill="#8dd3c7" stroke="black" points="779.77,-149.8 776.77,-153.8 755.77,-153.8 752.77,-149.8 672.23,-149.8 672.23,-113.8 779.77,-113.8 779.77,-149.8"/>
<text text-anchor="middle" x="726" y="-127.6" font-family="Times,serif" font-size="14.00">StudentsModule</text>
</g>
<!-- CourseStudentsComponent&#45;&gt;StudentsModule -->
<g id="edge1" class="edge">
<title>CourseStudentsComponent&#45;&gt;StudentsModule</title>
<path fill="none" stroke="black" d="M325,-84.91C325,-104.14 325,-131.8 325,-131.8 325,-131.8 661.92,-131.8 661.92,-131.8"/>
<polygon fill="black" stroke="black" points="661.92,-135.3 671.92,-131.8 661.92,-128.3 661.92,-135.3"/>
</g>
<!-- GuardiansListDialogComponent -->
<g id="node2" class="node">
<title>GuardiansListDialogComponent</title>
<polygon fill="#ffffb3" stroke="black" points="222.24,-84.8 23.76,-84.8 23.76,-48.8 222.24,-48.8 222.24,-84.8"/>
<text text-anchor="middle" x="123" y="-62.6" font-family="Times,serif" font-size="14.00">GuardiansListDialogComponent</text>
</g>
<!-- GuardiansListDialogComponent&#45;&gt;StudentsModule -->
<g id="edge2" class="edge">
<title>GuardiansListDialogComponent&#45;&gt;StudentsModule</title>
<path fill="none" stroke="black" d="M123,-85.09C123,-107.01 123,-140.8 123,-140.8 123,-140.8 662.22,-140.8 662.22,-140.8"/>
<polygon fill="black" stroke="black" points="662.22,-144.3 672.22,-140.8 662.22,-137.3 662.22,-144.3"/>
</g>
<!-- CourseStudentsComponent  -->
<g id="node7" class="node">
<title>CourseStudentsComponent </title>
<polygon fill="#fb8072" stroke="black" points="812.21,-214.8 639.79,-214.8 639.79,-178.8 812.21,-178.8 812.21,-214.8"/>
<text text-anchor="middle" x="726" y="-192.6" font-family="Times,serif" font-size="14.00">CourseStudentsComponent </text>
</g>
<!-- StudentsModule&#45;&gt;CourseStudentsComponent  -->
<g id="edge6" class="edge">
<title>StudentsModule&#45;&gt;CourseStudentsComponent </title>
<path fill="none" stroke="black" stroke-dasharray="5,2" d="M726,-149.91C726,-149.91 726,-168.79 726,-168.79"/>
<polygon fill="black" stroke="black" points="722.5,-168.79 726,-178.79 729.5,-168.79 722.5,-168.79"/>
</g>
<!-- MaterialModule -->
<g id="node4" class="node">
<title>MaterialModule</title>
<polygon fill="#8dd3c7" stroke="black" points="1232.47,-84.8 1229.47,-88.8 1208.47,-88.8 1205.47,-84.8 1125.53,-84.8 1125.53,-48.8 1232.47,-48.8 1232.47,-84.8"/>
<text text-anchor="middle" x="1179" y="-62.6" font-family="Times,serif" font-size="14.00">MaterialModule</text>
</g>
<!-- MaterialModule&#45;&gt;StudentsModule -->
<g id="edge3" class="edge">
<title>MaterialModule&#45;&gt;StudentsModule</title>
<path fill="none" stroke="black" d="M1179,-85.09C1179,-107.01 1179,-140.8 1179,-140.8 1179,-140.8 790.19,-140.8 790.19,-140.8"/>
<polygon fill="black" stroke="black" points="790.19,-137.3 780.19,-140.8 790.19,-144.3 790.19,-137.3"/>
</g>
<!-- SharedModule -->
<g id="node5" class="node">
<title>SharedModule</title>
<polygon fill="#8dd3c7" stroke="black" points="1107.42,-84.8 1104.42,-88.8 1083.42,-88.8 1080.42,-84.8 1008.58,-84.8 1008.58,-48.8 1107.42,-48.8 1107.42,-84.8"/>
<text text-anchor="middle" x="1058" y="-62.6" font-family="Times,serif" font-size="14.00">SharedModule</text>
</g>
<!-- SharedModule&#45;&gt;StudentsModule -->
<g id="edge4" class="edge">
<title>SharedModule&#45;&gt;StudentsModule</title>
<path fill="none" stroke="black" d="M1058,-84.91C1058,-104.14 1058,-131.8 1058,-131.8 1058,-131.8 790.08,-131.8 790.08,-131.8"/>
<polygon fill="black" stroke="black" points="790.08,-128.3 780.08,-131.8 790.08,-135.3 790.08,-128.3"/>
</g>
<!-- StudentsRoutingModule -->
<g id="node6" class="node">
<title>StudentsRoutingModule</title>
<polygon fill="#8dd3c7" stroke="black" points="990.39,-84.8 987.39,-88.8 966.39,-88.8 963.39,-84.8 837.61,-84.8 837.61,-48.8 990.39,-48.8 990.39,-84.8"/>
<text text-anchor="middle" x="914" y="-62.6" font-family="Times,serif" font-size="14.00">StudentsRoutingModule</text>
</g>
<!-- StudentsRoutingModule&#45;&gt;StudentsModule -->
<g id="edge5" class="edge">
<title>StudentsRoutingModule&#45;&gt;StudentsModule</title>
<path fill="none" stroke="black" d="M914,-84.83C914,-101.2 914,-122.8 914,-122.8 914,-122.8 789.87,-122.8 789.87,-122.8"/>
<polygon fill="black" stroke="black" points="789.87,-119.3 779.87,-122.8 789.87,-126.3 789.87,-119.3"/>
</g>
<!-- StudentDataService -->
<g id="node8" class="node">
<title>StudentDataService</title>
<ellipse fill="#fdb462" stroke="black" cx="726" cy="-66.8" rx="87.96" ry="18"/>
<text text-anchor="middle" x="726" y="-62.6" font-family="Times,serif" font-size="14.00">StudentDataService</text>
</g>
<!-- StudentDataService&#45;&gt;StudentsModule -->
<g id="edge7" class="edge">
<title>StudentDataService&#45;&gt;StudentsModule</title>
<path fill="none" stroke="black" d="M726,-84.91C726,-84.91 726,-103.79 726,-103.79"/>
<polygon fill="black" stroke="black" points="722.5,-103.79 726,-113.79 729.5,-103.79 722.5,-103.79"/>
</g>
<!-- StudentEntityService -->
<g id="node9" class="node">
<title>StudentEntityService</title>
<ellipse fill="#fdb462" stroke="black" cx="527" cy="-66.8" rx="93.21" ry="18"/>
<text text-anchor="middle" x="527" y="-62.6" font-family="Times,serif" font-size="14.00">StudentEntityService</text>
</g>
<!-- StudentEntityService&#45;&gt;StudentsModule -->
<g id="edge8" class="edge">
<title>StudentEntityService&#45;&gt;StudentsModule</title>
<path fill="none" stroke="black" d="M527,-84.83C527,-101.2 527,-122.8 527,-122.8 527,-122.8 662.15,-122.8 662.15,-122.8"/>
<polygon fill="black" stroke="black" points="662.15,-126.3 672.15,-122.8 662.15,-119.3 662.15,-126.3"/>
</g>
</g>
</svg>
