<?xml version="1.0" encoding="UTF-8" standalone="no"?>
<!DOCTYPE svg PUBLIC "-//W3C//DTD SVG 1.1//EN"
 "http://www.w3.org/Graphics/SVG/1.1/DTD/svg11.dtd">
<!-- Generated by graphviz version 2.47.3 (20210619.1520)
 -->
<!-- Title: dependencies Pages: 1 -->
<svg width="3686pt" height="174pt"
 viewBox="0.00 0.00 3686.00 173.80" xmlns="http://www.w3.org/2000/svg" xmlns:xlink="http://www.w3.org/1999/xlink">
<g id="graph0" class="graph" transform="scale(1 1) rotate(0) translate(4 169.8)">
<title>dependencies</title>
<polygon fill="white" stroke="transparent" points="-4,4 -4,-169.8 3682,-169.8 3682,4 -4,4"/>
<text text-anchor="middle" x="1839" y="-8.2" font-family="sans-serif" font-size="14.00">dependencies</text>
<g id="clust1" class="cluster">
<title>cluster_AdminModule</title>
<polygon fill="none" stroke="black" stroke-dasharray="1,5" points="8,-32.8 8,-157.8 3670,-157.8 3670,-32.8 8,-32.8"/>
</g>
<g id="clust2" class="cluster">
<title>cluster_AdminModule_declarations</title>
<polygon fill="none" stroke="black" points="1679,-40.8 1679,-92.8 3662,-92.8 3662,-40.8 1679,-40.8"/>
</g>
<g id="clust18" class="cluster">
<title>cluster_AdminModule_providers</title>
<polygon fill="none" stroke="black" points="300,-40.8 300,-92.8 1671,-92.8 1671,-40.8 300,-40.8"/>
</g>
<g id="clust15" class="cluster">
<title>cluster_AdminModule_imports</title>
<polygon fill="none" stroke="black" points="16,-40.8 16,-92.8 292,-92.8 292,-40.8 16,-40.8"/>
</g>
<!-- AddUserGroupComponent -->
<g id="node1" class="node">
<title>AddUserGroupComponent</title>
<polygon fill="#ffffb3" stroke="black" points="3653.63,-84.8 3486.37,-84.8 3486.37,-48.8 3653.63,-48.8 3653.63,-84.8"/>
<text text-anchor="middle" x="3570" y="-62.6" font-family="Times,serif" font-size="14.00">AddUserGroupComponent</text>
</g>
<!-- AdminModule -->
<g id="node13" class="node">
<title>AdminModule</title>
<polygon fill="#8dd3c7" stroke="black" points="1977.44,-149.8 1974.44,-153.8 1953.44,-153.8 1950.44,-149.8 1878.56,-149.8 1878.56,-113.8 1977.44,-113.8 1977.44,-149.8"/>
<text text-anchor="middle" x="1928" y="-127.6" font-family="Times,serif" font-size="14.00">AdminModule</text>
</g>
<!-- AddUserGroupComponent&#45;&gt;AdminModule -->
<g id="edge1" class="edge">
<title>AddUserGroupComponent&#45;&gt;AdminModule</title>
<path fill="none" stroke="black" d="M3570,-84.95C3570,-108.56 3570,-146.8 3570,-146.8 3570,-146.8 1987.59,-146.8 1987.59,-146.8"/>
<polygon fill="black" stroke="black" points="1987.59,-143.3 1977.59,-146.8 1987.59,-150.3 1987.59,-143.3"/>
</g>
<!-- AdminComponent -->
<g id="node2" class="node">
<title>AdminComponent</title>
<polygon fill="#ffffb3" stroke="black" points="3468.22,-84.8 3347.78,-84.8 3347.78,-48.8 3468.22,-48.8 3468.22,-84.8"/>
<text text-anchor="middle" x="3408" y="-62.6" font-family="Times,serif" font-size="14.00">AdminComponent</text>
</g>
<!-- AdminComponent&#45;&gt;AdminModule -->
<g id="edge2" class="edge">
<title>AdminComponent&#45;&gt;AdminModule</title>
<path fill="none" stroke="black" d="M3408,-85.05C3408,-107.82 3408,-143.8 3408,-143.8 3408,-143.8 1987.24,-143.8 1987.24,-143.8"/>
<polygon fill="black" stroke="black" points="1987.24,-140.3 1977.24,-143.8 1987.24,-147.3 1987.24,-140.3"/>
</g>
<!-- AdminWellcomeComponent -->
<g id="node3" class="node">
<title>AdminWellcomeComponent</title>
<polygon fill="#ffffb3" stroke="black" points="3329.75,-84.8 3152.25,-84.8 3152.25,-48.8 3329.75,-48.8 3329.75,-84.8"/>
<text text-anchor="middle" x="3241" y="-62.6" font-family="Times,serif" font-size="14.00">AdminWellcomeComponent</text>
</g>
<!-- AdminWellcomeComponent&#45;&gt;AdminModule -->
<g id="edge3" class="edge">
<title>AdminWellcomeComponent&#45;&gt;AdminModule</title>
<path fill="none" stroke="black" d="M3241,-85.09C3241,-107.01 3241,-140.8 3241,-140.8 3241,-140.8 1987.47,-140.8 1987.47,-140.8"/>
<polygon fill="black" stroke="black" points="1987.47,-137.3 1977.47,-140.8 1987.47,-144.3 1987.47,-137.3"/>
</g>
<!-- GroupComponent -->
<g id="node4" class="node">
<title>GroupComponent</title>
<polygon fill="#ffffb3" stroke="black" points="3134.6,-84.8 3017.4,-84.8 3017.4,-48.8 3134.6,-48.8 3134.6,-84.8"/>
<text text-anchor="middle" x="3076" y="-62.6" font-family="Times,serif" font-size="14.00">GroupComponent</text>
</g>
<!-- GroupComponent&#45;&gt;AdminModule -->
<g id="edge4" class="edge">
<title>GroupComponent&#45;&gt;AdminModule</title>
<path fill="none" stroke="black" d="M3076,-84.83C3076,-105.57 3076,-136.8 3076,-136.8 3076,-136.8 1987.33,-136.8 1987.33,-136.8"/>
<polygon fill="black" stroke="black" points="1987.33,-133.3 1977.33,-136.8 1987.33,-140.3 1987.33,-133.3"/>
</g>
<!-- GroupDialogComponent -->
<g id="node5" class="node">
<title>GroupDialogComponent</title>
<polygon fill="#ffffb3" stroke="black" points="2999.7,-84.8 2844.3,-84.8 2844.3,-48.8 2999.7,-48.8 2999.7,-84.8"/>
<text text-anchor="middle" x="2922" y="-62.6" font-family="Times,serif" font-size="14.00">GroupDialogComponent</text>
</g>
<!-- GroupDialogComponent&#45;&gt;AdminModule -->
<g id="edge5" class="edge">
<title>GroupDialogComponent&#45;&gt;AdminModule</title>
<path fill="none" stroke="black" d="M2922,-85.11C2922,-104.95 2922,-133.8 2922,-133.8 2922,-133.8 1987.29,-133.8 1987.29,-133.8"/>
<polygon fill="black" stroke="black" points="1987.29,-130.3 1977.29,-133.8 1987.29,-137.3 1987.29,-130.3"/>
</g>
<!-- GroupTableComponent -->
<g id="node6" class="node">
<title>GroupTableComponent</title>
<polygon fill="#ffffb3" stroke="black" points="2826.47,-84.8 2677.53,-84.8 2677.53,-48.8 2826.47,-48.8 2826.47,-84.8"/>
<text text-anchor="middle" x="2752" y="-62.6" font-family="Times,serif" font-size="14.00">GroupTableComponent</text>
</g>
<!-- GroupTableComponent&#45;&gt;AdminModule -->
<g id="edge6" class="edge">
<title>GroupTableComponent&#45;&gt;AdminModule</title>
<path fill="none" stroke="black" d="M2752,-84.97C2752,-103.89 2752,-130.8 2752,-130.8 2752,-130.8 1987.38,-130.8 1987.38,-130.8"/>
<polygon fill="black" stroke="black" points="1987.38,-127.3 1977.38,-130.8 1987.38,-134.3 1987.38,-127.3"/>
</g>
<!-- GroupsComponent -->
<g id="node7" class="node">
<title>GroupsComponent</title>
<polygon fill="#ffffb3" stroke="black" points="2659.05,-84.8 2536.95,-84.8 2536.95,-48.8 2659.05,-48.8 2659.05,-84.8"/>
<text text-anchor="middle" x="2598" y="-62.6" font-family="Times,serif" font-size="14.00">GroupsComponent</text>
</g>
<!-- GroupsComponent&#45;&gt;AdminModule -->
<g id="edge7" class="edge">
<title>GroupsComponent&#45;&gt;AdminModule</title>
<path fill="none" stroke="black" d="M2598,-85.1C2598,-103.07 2598,-127.8 2598,-127.8 2598,-127.8 1987.27,-127.8 1987.27,-127.8"/>
<polygon fill="black" stroke="black" points="1987.27,-124.3 1977.27,-127.8 1987.27,-131.3 1987.27,-124.3"/>
</g>
<!-- SchoolHomeComponent -->
<g id="node8" class="node">
<title>SchoolHomeComponent</title>
<polygon fill="#ffffb3" stroke="black" points="2519.43,-84.8 2364.57,-84.8 2364.57,-48.8 2519.43,-48.8 2519.43,-84.8"/>
<text text-anchor="middle" x="2442" y="-62.6" font-family="Times,serif" font-size="14.00">SchoolHomeComponent</text>
</g>
<!-- SchoolHomeComponent&#45;&gt;AdminModule -->
<g id="edge8" class="edge">
<title>SchoolHomeComponent&#45;&gt;AdminModule</title>
<path fill="none" stroke="black" d="M2442,-84.84C2442,-101.53 2442,-123.8 2442,-123.8 2442,-123.8 1987.28,-123.8 1987.28,-123.8"/>
<polygon fill="black" stroke="black" points="1987.28,-120.3 1977.28,-123.8 1987.28,-127.3 1987.28,-120.3"/>
</g>
<!-- UserDetailsComponent -->
<g id="node9" class="node">
<title>UserDetailsComponent</title>
<polygon fill="#ffffb3" stroke="black" points="2346.91,-84.8 2199.09,-84.8 2199.09,-48.8 2346.91,-48.8 2346.91,-84.8"/>
<text text-anchor="middle" x="2273" y="-62.6" font-family="Times,serif" font-size="14.00">UserDetailsComponent</text>
</g>
<!-- UserDetailsComponent&#45;&gt;AdminModule -->
<g id="edge9" class="edge">
<title>UserDetailsComponent&#45;&gt;AdminModule</title>
<path fill="none" stroke="black" d="M2273,-85.08C2273,-100.75 2273,-120.8 2273,-120.8 2273,-120.8 1987.43,-120.8 1987.43,-120.8"/>
<polygon fill="black" stroke="black" points="1987.43,-117.3 1977.43,-120.8 1987.43,-124.3 1987.43,-117.3"/>
</g>
<!-- UsersDomainComponent -->
<g id="node10" class="node">
<title>UsersDomainComponent</title>
<polygon fill="#ffffb3" stroke="black" points="2181.31,-84.8 2022.69,-84.8 2022.69,-48.8 2181.31,-48.8 2181.31,-84.8"/>
<text text-anchor="middle" x="2102" y="-62.6" font-family="Times,serif" font-size="14.00">UsersDomainComponent</text>
</g>
<!-- UsersDomainComponent&#45;&gt;AdminModule -->
<g id="edge10" class="edge">
<title>UsersDomainComponent&#45;&gt;AdminModule</title>
<path fill="none" stroke="black" d="M2102,-84.92C2102,-99.58 2102,-117.8 2102,-117.8 2102,-117.8 1987.4,-117.8 1987.4,-117.8"/>
<polygon fill="black" stroke="black" points="1987.4,-114.3 1977.4,-117.8 1987.4,-121.3 1987.4,-114.3"/>
</g>
<!-- UsersGroupsComponent -->
<g id="node11" class="node">
<title>UsersGroupsComponent</title>
<polygon fill="#ffffb3" stroke="black" points="2005.42,-84.8 1850.58,-84.8 1850.58,-48.8 2005.42,-48.8 2005.42,-84.8"/>
<text text-anchor="middle" x="1928" y="-62.6" font-family="Times,serif" font-size="14.00">UsersGroupsComponent</text>
</g>
<!-- UsersGroupsComponent&#45;&gt;AdminModule -->
<g id="edge11" class="edge">
<title>UsersGroupsComponent&#45;&gt;AdminModule</title>
<path fill="none" stroke="black" d="M1928,-84.91C1928,-84.91 1928,-103.79 1928,-103.79"/>
<polygon fill="black" stroke="black" points="1924.5,-103.79 1928,-113.79 1931.5,-103.79 1924.5,-103.79"/>
</g>
<!-- UsersTableComponent -->
<g id="node12" class="node">
<title>UsersTableComponent</title>
<polygon fill="#ffffb3" stroke="black" points="1832.58,-84.8 1687.42,-84.8 1687.42,-48.8 1832.58,-48.8 1832.58,-84.8"/>
<text text-anchor="middle" x="1760" y="-62.6" font-family="Times,serif" font-size="14.00">UsersTableComponent</text>
</g>
<!-- UsersTableComponent&#45;&gt;AdminModule -->
<g id="edge12" class="edge">
<title>UsersTableComponent&#45;&gt;AdminModule</title>
<path fill="none" stroke="black" d="M1760,-84.92C1760,-99.58 1760,-117.8 1760,-117.8 1760,-117.8 1868.5,-117.8 1868.5,-117.8"/>
<polygon fill="black" stroke="black" points="1868.5,-121.3 1878.5,-117.8 1868.5,-114.3 1868.5,-121.3"/>
</g>
<!-- AdminRoutingModule -->
<g id="node14" class="node">
<title>AdminRoutingModule</title>
<polygon fill="#8dd3c7" stroke="black" points="283.56,-84.8 280.56,-88.8 259.56,-88.8 256.56,-84.8 140.44,-84.8 140.44,-48.8 283.56,-48.8 283.56,-84.8"/>
<text text-anchor="middle" x="212" y="-62.6" font-family="Times,serif" font-size="14.00">AdminRoutingModule</text>
</g>
<!-- AdminRoutingModule&#45;&gt;AdminModule -->
<g id="edge13" class="edge">
<title>AdminRoutingModule&#45;&gt;AdminModule</title>
<path fill="none" stroke="black" d="M212,-85.05C212,-107.82 212,-143.8 212,-143.8 212,-143.8 1868.49,-143.8 1868.49,-143.8"/>
<polygon fill="black" stroke="black" points="1868.49,-147.3 1878.49,-143.8 1868.49,-140.3 1868.49,-147.3"/>
</g>
<!-- SharedModule -->
<g id="node15" class="node">
<title>SharedModule</title>
<polygon fill="#8dd3c7" stroke="black" points="122.42,-84.8 119.42,-88.8 98.42,-88.8 95.42,-84.8 23.58,-84.8 23.58,-48.8 122.42,-48.8 122.42,-84.8"/>
<text text-anchor="middle" x="73" y="-62.6" font-family="Times,serif" font-size="14.00">SharedModule</text>
</g>
<!-- SharedModule&#45;&gt;AdminModule -->
<g id="edge14" class="edge">
<title>SharedModule&#45;&gt;AdminModule</title>
<path fill="none" stroke="black" d="M73,-84.95C73,-108.56 73,-146.8 73,-146.8 73,-146.8 1868.38,-146.8 1868.38,-146.8"/>
<polygon fill="black" stroke="black" points="1868.38,-150.3 1878.38,-146.8 1868.38,-143.3 1868.38,-150.3"/>
</g>
<!-- AdminApiService -->
<g id="node16" class="node">
<title>AdminApiService</title>
<ellipse fill="#fdb462" stroke="black" cx="1582" cy="-66.8" rx="81.1" ry="18"/>
<text text-anchor="middle" x="1582" y="-62.6" font-family="Times,serif" font-size="14.00">AdminApiService</text>
</g>
<!-- AdminApiService&#45;&gt;AdminModule -->
<g id="edge15" class="edge">
<title>AdminApiService&#45;&gt;AdminModule</title>
<path fill="none" stroke="black" d="M1582,-85.08C1582,-100.75 1582,-120.8 1582,-120.8 1582,-120.8 1868.43,-120.8 1868.43,-120.8"/>
<polygon fill="black" stroke="black" points="1868.43,-124.3 1878.43,-120.8 1868.43,-117.3 1868.43,-124.3"/>
</g>
<!-- AdminFireService -->
<g id="node17" class="node">
<title>AdminFireService</title>
<ellipse fill="#fdb462" stroke="black" cx="1400" cy="-66.8" rx="82.24" ry="18"/>
<text text-anchor="middle" x="1400" y="-62.6" font-family="Times,serif" font-size="14.00">AdminFireService</text>
</g>
<!-- AdminFireService&#45;&gt;AdminModule -->
<g id="edge16" class="edge">
<title>AdminFireService&#45;&gt;AdminModule</title>
<path fill="none" stroke="black" d="M1400,-84.84C1400,-101.53 1400,-123.8 1400,-123.8 1400,-123.8 1868.33,-123.8 1868.33,-123.8"/>
<polygon fill="black" stroke="black" points="1868.33,-127.3 1878.33,-123.8 1868.33,-120.3 1868.33,-127.3"/>
</g>
<!-- GroupDataService -->
<g id="node18" class="node">
<title>GroupDataService</title>
<ellipse fill="#fdb462" stroke="black" cx="1217" cy="-66.8" rx="82.78" ry="18"/>
<text text-anchor="middle" x="1217" y="-62.6" font-family="Times,serif" font-size="14.00">GroupDataService</text>
</g>
<!-- GroupDataService&#45;&gt;AdminModule -->
<g id="edge17" class="edge">
<title>GroupDataService&#45;&gt;AdminModule</title>
<path fill="none" stroke="black" d="M1217,-85.1C1217,-103.07 1217,-127.8 1217,-127.8 1217,-127.8 1868.57,-127.8 1868.57,-127.8"/>
<polygon fill="black" stroke="black" points="1868.57,-131.3 1878.57,-127.8 1868.57,-124.3 1868.57,-131.3"/>
</g>
<!-- GroupEntityService -->
<g id="node19" class="node">
<title>GroupEntityService</title>
<ellipse fill="#fdb462" stroke="black" cx="1028" cy="-66.8" rx="88.04" ry="18"/>
<text text-anchor="middle" x="1028" y="-62.6" font-family="Times,serif" font-size="14.00">GroupEntityService</text>
</g>
<!-- GroupEntityService&#45;&gt;AdminModule -->
<g id="edge18" class="edge">
<title>GroupEntityService&#45;&gt;AdminModule</title>
<path fill="none" stroke="black" d="M1028,-84.97C1028,-103.89 1028,-130.8 1028,-130.8 1028,-130.8 1868.65,-130.8 1868.65,-130.8"/>
<polygon fill="black" stroke="black" points="1868.65,-134.3 1878.65,-130.8 1868.65,-127.3 1868.65,-134.3"/>
</g>
<!-- GroupsService -->
<g id="node20" class="node">
<title>GroupsService</title>
<ellipse fill="#fdb462" stroke="black" cx="853" cy="-66.8" rx="68.34" ry="18"/>
<text text-anchor="middle" x="853" y="-62.6" font-family="Times,serif" font-size="14.00">GroupsService</text>
</g>
<!-- GroupsService&#45;&gt;AdminModule -->
<g id="edge19" class="edge">
<title>GroupsService&#45;&gt;AdminModule</title>
<path fill="none" stroke="black" d="M853,-85.11C853,-104.95 853,-133.8 853,-133.8 853,-133.8 1868.66,-133.8 1868.66,-133.8"/>
<polygon fill="black" stroke="black" points="1868.66,-137.3 1878.66,-133.8 1868.66,-130.3 1868.66,-137.3"/>
</g>
<!-- UserDomainDataService -->
<g id="node21" class="node">
<title>UserDomainDataService</title>
<ellipse fill="#fdb462" stroke="black" cx="659" cy="-66.8" rx="107.62" ry="18"/>
<text text-anchor="middle" x="659" y="-62.6" font-family="Times,serif" font-size="14.00">UserDomainDataService</text>
</g>
<!-- UserDomainDataService&#45;&gt;AdminModule -->
<g id="edge20" class="edge">
<title>UserDomainDataService&#45;&gt;AdminModule</title>
<path fill="none" stroke="black" d="M659,-84.83C659,-105.57 659,-136.8 659,-136.8 659,-136.8 1868.64,-136.8 1868.64,-136.8"/>
<polygon fill="black" stroke="black" points="1868.64,-140.3 1878.64,-136.8 1868.64,-133.3 1868.64,-140.3"/>
</g>
<!-- UserDomainEntityService -->
<g id="node22" class="node">
<title>UserDomainEntityService</title>
<ellipse fill="#fdb462" stroke="black" cx="421" cy="-66.8" rx="112.88" ry="18"/>
<text text-anchor="middle" x="421" y="-62.6" font-family="Times,serif" font-size="14.00">UserDomainEntityService</text>
</g>
<!-- UserDomainEntityService&#45;&gt;AdminModule -->
<g id="edge21" class="edge">
<title>UserDomainEntityService&#45;&gt;AdminModule</title>
<path fill="none" stroke="black" d="M421,-85.09C421,-107.01 421,-140.8 421,-140.8 421,-140.8 1868.72,-140.8 1868.72,-140.8"/>
<polygon fill="black" stroke="black" points="1868.72,-144.3 1878.72,-140.8 1868.72,-137.3 1868.72,-144.3"/>
</g>
</g>
</svg>
