<?xml version="1.0" encoding="UTF-8" standalone="no"?>
<!DOCTYPE svg PUBLIC "-//W3C//DTD SVG 1.1//EN"
 "http://www.w3.org/Graphics/SVG/1.1/DTD/svg11.dtd">
<!-- Generated by graphviz version 2.47.3 (20210619.1520)
 -->
<!-- Title: dependencies Pages: 1 -->
<svg width="772pt" height="247pt"
 viewBox="0.00 0.00 772.00 246.80" xmlns="http://www.w3.org/2000/svg" xmlns:xlink="http://www.w3.org/1999/xlink">
<g id="graph0" class="graph" transform="scale(1 1) rotate(0) translate(4 242.8)">
<title>dependencies</title>
<polygon fill="white" stroke="transparent" points="-4,4 -4,-242.8 768,-242.8 768,4 -4,4"/>
<text text-anchor="middle" x="382" y="-8.2" font-family="sans-serif" font-size="14.00">dependencies</text>
<g id="clust1" class="cluster">
<title>cluster_AppModule</title>
<polygon fill="none" stroke="black" stroke-dasharray="1,5" points="8,-32.8 8,-230.8 756,-230.8 756,-32.8 8,-32.8"/>
</g>
<g id="clust2" class="cluster">
<title>cluster_AppModule_declarations</title>
<polygon fill="none" stroke="black" points="626,-40.8 626,-92.8 748,-92.8 748,-40.8 626,-40.8"/>
</g>
<g id="clust6" class="cluster">
<title>cluster_AppModule_bootstrap</title>
<polygon fill="none" stroke="black" points="286,-170.8 286,-222.8 410,-222.8 410,-170.8 286,-170.8"/>
</g>
<g id="clust4" class="cluster">
<title>cluster_AppModule_imports</title>
<polygon fill="none" stroke="black" points="16,-40.8 16,-92.8 618,-92.8 618,-40.8 16,-40.8"/>
</g>
<!-- AppComponent -->
<g id="node1" class="node">
<title>AppComponent</title>
<polygon fill="#ffffb3" stroke="black" points="739.94,-84.8 634.06,-84.8 634.06,-48.8 739.94,-48.8 739.94,-84.8"/>
<text text-anchor="middle" x="687" y="-62.6" font-family="Times,serif" font-size="14.00">AppComponent</text>
</g>
<!-- AppModule -->
<g id="node2" class="node">
<title>AppModule</title>
<polygon fill="#8dd3c7" stroke="black" points="389.66,-149.8 386.66,-153.8 365.66,-153.8 362.66,-149.8 306.34,-149.8 306.34,-113.8 389.66,-113.8 389.66,-149.8"/>
<text text-anchor="middle" x="348" y="-127.6" font-family="Times,serif" font-size="14.00">AppModule</text>
</g>
<!-- AppComponent&#45;&gt;AppModule -->
<g id="edge1" class="edge">
<title>AppComponent&#45;&gt;AppModule</title>
<path fill="none" stroke="black" d="M687,-85.08C687,-106.12 687,-137.8 687,-137.8 687,-137.8 399.91,-137.8 399.91,-137.8"/>
<polygon fill="black" stroke="black" points="399.91,-134.3 389.91,-137.8 399.91,-141.3 399.91,-134.3"/>
</g>
<!-- AppComponent  -->
<g id="node8" class="node">
<title>AppComponent </title>
<polygon fill="#80b1d3" stroke="black" points="402.44,-214.8 293.56,-214.8 293.56,-178.8 402.44,-178.8 402.44,-214.8"/>
<text text-anchor="middle" x="348" y="-192.6" font-family="Times,serif" font-size="14.00">AppComponent </text>
</g>
<!-- AppModule&#45;&gt;AppComponent  -->
<g id="edge7" class="edge">
<title>AppModule&#45;&gt;AppComponent </title>
<path fill="none" stroke="black" stroke-dasharray="1,5" d="M348,-149.91C348,-149.91 348,-168.79 348,-168.79"/>
<polygon fill="black" stroke="black" points="344.5,-168.79 348,-178.79 351.5,-168.79 344.5,-168.79"/>
</g>
<!-- AppRoutingModule -->
<g id="node3" class="node">
<title>AppRoutingModule</title>
<polygon fill="#8dd3c7" stroke="black" points="610.27,-84.8 607.27,-88.8 586.27,-88.8 583.27,-84.8 481.73,-84.8 481.73,-48.8 610.27,-48.8 610.27,-84.8"/>
<text text-anchor="middle" x="546" y="-62.6" font-family="Times,serif" font-size="14.00">AppRoutingModule</text>
</g>
<!-- AppRoutingModule&#45;&gt;AppModule -->
<g id="edge2" class="edge">
<title>AppRoutingModule&#45;&gt;AppModule</title>
<path fill="none" stroke="black" d="M546,-84.82C546,-102.17 546,-125.8 546,-125.8 546,-125.8 399.99,-125.8 399.99,-125.8"/>
<polygon fill="black" stroke="black" points="399.99,-122.3 389.99,-125.8 399.99,-129.3 399.99,-122.3"/>
</g>
<!-- AppStoreModule -->
<g id="node4" class="node">
<title>AppStoreModule</title>
<polygon fill="#8dd3c7" stroke="black" points="463.7,-84.8 460.7,-88.8 439.7,-88.8 436.7,-84.8 350.3,-84.8 350.3,-48.8 463.7,-48.8 463.7,-84.8"/>
<text text-anchor="middle" x="407" y="-62.6" font-family="Times,serif" font-size="14.00">AppStoreModule</text>
</g>
<!-- AppStoreModule&#45;&gt;AppModule -->
<g id="edge3" class="edge">
<title>AppStoreModule&#45;&gt;AppModule</title>
<path fill="none" stroke="black" d="M370.11,-84.91C370.11,-84.91 370.11,-103.79 370.11,-103.79"/>
<polygon fill="black" stroke="black" points="366.61,-103.79 370.11,-113.79 373.61,-103.79 366.61,-103.79"/>
</g>
<!-- AuthModule -->
<g id="node5" class="node">
<title>AuthModule</title>
<polygon fill="#8dd3c7" stroke="black" points="332.55,-84.8 329.55,-88.8 308.55,-88.8 305.55,-84.8 245.45,-84.8 245.45,-48.8 332.55,-48.8 332.55,-84.8"/>
<text text-anchor="middle" x="289" y="-62.6" font-family="Times,serif" font-size="14.00">AuthModule</text>
</g>
<!-- AuthModule&#45;&gt;AppModule -->
<g id="edge4" class="edge">
<title>AuthModule&#45;&gt;AppModule</title>
<path fill="none" stroke="black" d="M319.47,-84.91C319.47,-84.91 319.47,-103.79 319.47,-103.79"/>
<polygon fill="black" stroke="black" points="315.97,-103.79 319.47,-113.79 322.97,-103.79 315.97,-103.79"/>
</g>
<!-- CoreModule -->
<g id="node6" class="node">
<title>CoreModule</title>
<polygon fill="#8dd3c7" stroke="black" points="227.26,-84.8 224.26,-88.8 203.26,-88.8 200.26,-84.8 140.74,-84.8 140.74,-48.8 227.26,-48.8 227.26,-84.8"/>
<text text-anchor="middle" x="184" y="-62.6" font-family="Times,serif" font-size="14.00">CoreModule</text>
</g>
<!-- CoreModule&#45;&gt;AppModule -->
<g id="edge5" class="edge">
<title>CoreModule&#45;&gt;AppModule</title>
<path fill="none" stroke="black" d="M184,-84.82C184,-102.17 184,-125.8 184,-125.8 184,-125.8 296.19,-125.8 296.19,-125.8"/>
<polygon fill="black" stroke="black" points="296.19,-129.3 306.19,-125.8 296.19,-122.3 296.19,-129.3"/>
</g>
<!-- SharedModule -->
<g id="node7" class="node">
<title>SharedModule</title>
<polygon fill="#8dd3c7" stroke="black" points="122.42,-84.8 119.42,-88.8 98.42,-88.8 95.42,-84.8 23.58,-84.8 23.58,-48.8 122.42,-48.8 122.42,-84.8"/>
<text text-anchor="middle" x="73" y="-62.6" font-family="Times,serif" font-size="14.00">SharedModule</text>
</g>
<!-- SharedModule&#45;&gt;AppModule -->
<g id="edge6" class="edge">
<title>SharedModule&#45;&gt;AppModule</title>
<path fill="none" stroke="black" d="M73,-85.08C73,-106.12 73,-137.8 73,-137.8 73,-137.8 296.23,-137.8 296.23,-137.8"/>
<polygon fill="black" stroke="black" points="296.23,-141.3 306.23,-137.8 296.23,-134.3 296.23,-141.3"/>
</g>
</g>
</svg>
