<?xml version="1.0" encoding="UTF-8" standalone="no"?>
<!DOCTYPE svg PUBLIC "-//W3C//DTD SVG 1.1//EN"
 "http://www.w3.org/Graphics/SVG/1.1/DTD/svg11.dtd">
<!-- Generated by graphviz version 2.47.3 (20210619.1520)
 -->
<!-- Title: dependencies Pages: 1 -->
<svg width="1800pt" height="247pt"
 viewBox="0.00 0.00 1800.00 246.80" xmlns="http://www.w3.org/2000/svg" xmlns:xlink="http://www.w3.org/1999/xlink">
<g id="graph0" class="graph" transform="scale(1 1) rotate(0) translate(4 242.8)">
<title>dependencies</title>
<polygon fill="white" stroke="transparent" points="-4,4 -4,-242.8 1796,-242.8 1796,4 -4,4"/>
<text text-anchor="middle" x="896" y="-8.2" font-family="sans-serif" font-size="14.00">dependencies</text>
<g id="clust1" class="cluster">
<title>cluster_AnnouncementsModule</title>
<polygon fill="none" stroke="black" stroke-dasharray="1,5" points="8,-32.8 8,-230.8 1784,-230.8 1784,-32.8 8,-32.8"/>
</g>
<g id="clust2" class="cluster">
<title>cluster_AnnouncementsModule_declarations</title>
<polygon fill="none" stroke="black" points="1105,-40.8 1105,-92.8 1776,-92.8 1776,-40.8 1105,-40.8"/>
</g>
<g id="clust9" class="cluster">
<title>cluster_AnnouncementsModule_providers</title>
<polygon fill="none" stroke="black" points="360,-40.8 360,-92.8 1097,-92.8 1097,-40.8 360,-40.8"/>
</g>
<g id="clust7" class="cluster">
<title>cluster_AnnouncementsModule_exports</title>
<polygon fill="none" stroke="black" points="498,-170.8 498,-222.8 1180,-222.8 1180,-170.8 498,-170.8"/>
</g>
<g id="clust6" class="cluster">
<title>cluster_AnnouncementsModule_imports</title>
<polygon fill="none" stroke="black" points="16,-40.8 16,-92.8 352,-92.8 352,-40.8 16,-40.8"/>
</g>
<!-- AnnouncementDialogComponent -->
<g id="node1" class="node">
<title>AnnouncementDialogComponent</title>
<polygon fill="#ffffb3" stroke="black" points="1768.47,-84.8 1563.53,-84.8 1563.53,-48.8 1768.47,-48.8 1768.47,-84.8"/>
<text text-anchor="middle" x="1666" y="-62.6" font-family="Times,serif" font-size="14.00">AnnouncementDialogComponent</text>
</g>
<!-- AnnouncementsModule -->
<g id="node4" class="node">
<title>AnnouncementsModule</title>
<polygon fill="#8dd3c7" stroke="black" points="918.03,-149.8 915.03,-153.8 894.03,-153.8 891.03,-149.8 767.97,-149.8 767.97,-113.8 918.03,-113.8 918.03,-149.8"/>
<text text-anchor="middle" x="843" y="-127.6" font-family="Times,serif" font-size="14.00">AnnouncementsModule</text>
</g>
<!-- AnnouncementDialogComponent&#45;&gt;AnnouncementsModule -->
<g id="edge1" class="edge">
<title>AnnouncementDialogComponent&#45;&gt;AnnouncementsModule</title>
<path fill="none" stroke="black" d="M1666,-84.93C1666,-105.37 1666,-135.8 1666,-135.8 1666,-135.8 928.22,-135.8 928.22,-135.8"/>
<polygon fill="black" stroke="black" points="928.22,-132.3 918.22,-135.8 928.22,-139.3 928.22,-132.3"/>
</g>
<!-- AnnouncementResultComponent -->
<g id="node2" class="node">
<title>AnnouncementResultComponent</title>
<polygon fill="#ffffb3" stroke="black" points="1545.14,-84.8 1342.86,-84.8 1342.86,-48.8 1545.14,-48.8 1545.14,-84.8"/>
<text text-anchor="middle" x="1444" y="-62.6" font-family="Times,serif" font-size="14.00">AnnouncementResultComponent</text>
</g>
<!-- AnnouncementResultComponent&#45;&gt;AnnouncementsModule -->
<g id="edge2" class="edge">
<title>AnnouncementResultComponent&#45;&gt;AnnouncementsModule</title>
<path fill="none" stroke="black" d="M1444,-85.07C1444,-103.36 1444,-128.8 1444,-128.8 1444,-128.8 928.2,-128.8 928.2,-128.8"/>
<polygon fill="black" stroke="black" points="928.2,-125.3 918.2,-128.8 928.2,-132.3 928.2,-125.3"/>
</g>
<!-- CourseAnnouncementsComponent -->
<g id="node3" class="node">
<title>CourseAnnouncementsComponent</title>
<polygon fill="#ffffb3" stroke="black" points="1324.97,-84.8 1113.03,-84.8 1113.03,-48.8 1324.97,-48.8 1324.97,-84.8"/>
<text text-anchor="middle" x="1219" y="-62.6" font-family="Times,serif" font-size="14.00">CourseAnnouncementsComponent</text>
</g>
<!-- CourseAnnouncementsComponent&#45;&gt;AnnouncementsModule -->
<g id="edge3" class="edge">
<title>CourseAnnouncementsComponent&#45;&gt;AnnouncementsModule</title>
<path fill="none" stroke="black" d="M1142.63,-84.81C1142.63,-100.85 1142.63,-121.8 1142.63,-121.8 1142.63,-121.8 928.22,-121.8 928.22,-121.8"/>
<polygon fill="black" stroke="black" points="928.22,-118.3 918.22,-121.8 928.22,-125.3 928.22,-118.3"/>
</g>
<!-- AnnouncementDialogComponent  -->
<g id="node7" class="node">
<title>AnnouncementDialogComponent </title>
<polygon fill="#fb8072" stroke="black" points="1172.47,-214.8 963.53,-214.8 963.53,-178.8 1172.47,-178.8 1172.47,-214.8"/>
<text text-anchor="middle" x="1068" y="-192.6" font-family="Times,serif" font-size="14.00">AnnouncementDialogComponent </text>
</g>
<!-- AnnouncementsModule&#45;&gt;AnnouncementDialogComponent  -->
<g id="edge6" class="edge">
<title>AnnouncementsModule&#45;&gt;AnnouncementDialogComponent </title>
<path fill="none" stroke="black" stroke-dasharray="5,2" d="M918.16,-142.8C968.84,-142.8 1026.49,-142.8 1026.49,-142.8 1026.49,-142.8 1026.49,-168.52 1026.49,-168.52"/>
<polygon fill="black" stroke="black" points="1022.99,-168.52 1026.49,-178.52 1029.99,-168.52 1022.99,-168.52"/>
</g>
<!-- AnnouncementResultComponent  -->
<g id="node8" class="node">
<title>AnnouncementResultComponent </title>
<polygon fill="#fb8072" stroke="black" points="946.14,-214.8 739.86,-214.8 739.86,-178.8 946.14,-178.8 946.14,-214.8"/>
<text text-anchor="middle" x="843" y="-192.6" font-family="Times,serif" font-size="14.00">AnnouncementResultComponent </text>
</g>
<!-- AnnouncementsModule&#45;&gt;AnnouncementResultComponent  -->
<g id="edge7" class="edge">
<title>AnnouncementsModule&#45;&gt;AnnouncementResultComponent </title>
<path fill="none" stroke="black" stroke-dasharray="5,2" d="M843,-149.91C843,-149.91 843,-168.79 843,-168.79"/>
<polygon fill="black" stroke="black" points="839.5,-168.79 843,-178.79 846.5,-168.79 839.5,-168.79"/>
</g>
<!-- CourseAnnouncementsComponent  -->
<g id="node9" class="node">
<title>CourseAnnouncementsComponent </title>
<polygon fill="#fb8072" stroke="black" points="721.97,-214.8 506.03,-214.8 506.03,-178.8 721.97,-178.8 721.97,-214.8"/>
<text text-anchor="middle" x="614" y="-192.6" font-family="Times,serif" font-size="14.00">CourseAnnouncementsComponent </text>
</g>
<!-- AnnouncementsModule&#45;&gt;CourseAnnouncementsComponent  -->
<g id="edge8" class="edge">
<title>AnnouncementsModule&#45;&gt;CourseAnnouncementsComponent </title>
<path fill="none" stroke="black" stroke-dasharray="5,2" d="M767.71,-142.8C715.97,-142.8 656.57,-142.8 656.57,-142.8 656.57,-142.8 656.57,-168.52 656.57,-168.52"/>
<polygon fill="black" stroke="black" points="653.07,-168.52 656.57,-178.52 660.07,-168.52 653.07,-168.52"/>
</g>
<!-- AnnouncementsRoutingModule -->
<g id="node5" class="node">
<title>AnnouncementsRoutingModule</title>
<polygon fill="#8dd3c7" stroke="black" points="343.64,-84.8 340.64,-88.8 319.64,-88.8 316.64,-84.8 148.36,-84.8 148.36,-48.8 343.64,-48.8 343.64,-84.8"/>
<text text-anchor="middle" x="246" y="-62.6" font-family="Times,serif" font-size="14.00">AnnouncementsRoutingModule</text>
</g>
<!-- AnnouncementsRoutingModule&#45;&gt;AnnouncementsModule -->
<g id="edge4" class="edge">
<title>AnnouncementsRoutingModule&#45;&gt;AnnouncementsModule</title>
<path fill="none" stroke="black" d="M246,-85.07C246,-103.36 246,-128.8 246,-128.8 246,-128.8 757.69,-128.8 757.69,-128.8"/>
<polygon fill="black" stroke="black" points="757.69,-132.3 767.69,-128.8 757.69,-125.3 757.69,-132.3"/>
</g>
<!-- MaterialModule -->
<g id="node6" class="node">
<title>MaterialModule</title>
<polygon fill="#8dd3c7" stroke="black" points="130.47,-84.8 127.47,-88.8 106.47,-88.8 103.47,-84.8 23.53,-84.8 23.53,-48.8 130.47,-48.8 130.47,-84.8"/>
<text text-anchor="middle" x="77" y="-62.6" font-family="Times,serif" font-size="14.00">MaterialModule</text>
</g>
<!-- MaterialModule&#45;&gt;AnnouncementsModule -->
<g id="edge5" class="edge">
<title>MaterialModule&#45;&gt;AnnouncementsModule</title>
<path fill="none" stroke="black" d="M77,-84.93C77,-105.37 77,-135.8 77,-135.8 77,-135.8 757.81,-135.8 757.81,-135.8"/>
<polygon fill="black" stroke="black" points="757.81,-139.3 767.81,-135.8 757.81,-132.3 757.81,-139.3"/>
</g>
<!-- AnnouncementDataService -->
<g id="node10" class="node">
<title>AnnouncementDataService</title>
<ellipse fill="#fdb462" stroke="black" cx="972" cy="-66.8" rx="117.44" ry="18"/>
<text text-anchor="middle" x="972" y="-62.6" font-family="Times,serif" font-size="14.00">AnnouncementDataService</text>
</g>
<!-- AnnouncementDataService&#45;&gt;AnnouncementsModule -->
<g id="edge9" class="edge">
<title>AnnouncementDataService&#45;&gt;AnnouncementsModule</title>
<path fill="none" stroke="black" d="M886.52,-79.33C886.52,-79.33 886.52,-103.65 886.52,-103.65"/>
<polygon fill="black" stroke="black" points="883.02,-103.65 886.52,-113.65 890.02,-103.65 883.02,-103.65"/>
</g>
<!-- AnnouncementEntityService -->
<g id="node11" class="node">
<title>AnnouncementEntityService</title>
<ellipse fill="#fdb462" stroke="black" cx="714" cy="-66.8" rx="122.69" ry="18"/>
<text text-anchor="middle" x="714" y="-62.6" font-family="Times,serif" font-size="14.00">AnnouncementEntityService</text>
</g>
<!-- AnnouncementEntityService&#45;&gt;AnnouncementsModule -->
<g id="edge10" class="edge">
<title>AnnouncementEntityService&#45;&gt;AnnouncementsModule</title>
<path fill="none" stroke="black" d="M802.17,-79.33C802.17,-79.33 802.17,-103.65 802.17,-103.65"/>
<polygon fill="black" stroke="black" points="798.67,-103.65 802.17,-113.65 805.67,-103.65 798.67,-103.65"/>
</g>
<!-- AnnouncementsService -->
<g id="node12" class="node">
<title>AnnouncementsService</title>
<ellipse fill="#fdb462" stroke="black" cx="471" cy="-66.8" rx="102.99" ry="18"/>
<text text-anchor="middle" x="471" y="-62.6" font-family="Times,serif" font-size="14.00">AnnouncementsService</text>
</g>
<!-- AnnouncementsService&#45;&gt;AnnouncementsModule -->
<g id="edge11" class="edge">
<title>AnnouncementsService&#45;&gt;AnnouncementsModule</title>
<path fill="none" stroke="black" d="M540.01,-80.4C540.01,-96.68 540.01,-121.8 540.01,-121.8 540.01,-121.8 757.71,-121.8 757.71,-121.8"/>
<polygon fill="black" stroke="black" points="757.71,-125.3 767.71,-121.8 757.71,-118.3 757.71,-125.3"/>
</g>
</g>
</svg>
