<?xml version="1.0" encoding="UTF-8" standalone="no"?>
<!DOCTYPE svg PUBLIC "-//W3C//DTD SVG 1.1//EN"
 "http://www.w3.org/Graphics/SVG/1.1/DTD/svg11.dtd">
<!-- Generated by graphviz version 2.47.3 (20210619.1520)
 -->
<!-- Title: dependencies Pages: 1 -->
<svg width="1721pt" height="247pt"
 viewBox="0.00 0.00 1721.00 246.80" xmlns="http://www.w3.org/2000/svg" xmlns:xlink="http://www.w3.org/1999/xlink">
<g id="graph0" class="graph" transform="scale(1 1) rotate(0) translate(4 242.8)">
<title>dependencies</title>
<polygon fill="white" stroke="transparent" points="-4,4 -4,-242.8 1717,-242.8 1717,4 -4,4"/>
<text text-anchor="middle" x="856.5" y="-8.2" font-family="sans-serif" font-size="14.00">dependencies</text>
<g id="clust1" class="cluster">
<title>cluster_CoursesModule</title>
<polygon fill="none" stroke="black" stroke-dasharray="1,5" points="8,-32.8 8,-230.8 1705,-230.8 1705,-32.8 8,-32.8"/>
</g>
<g id="clust9" class="cluster">
<title>cluster_CoursesModule_exports</title>
<polygon fill="none" stroke="black" points="689,-170.8 689,-222.8 1037,-222.8 1037,-170.8 689,-170.8"/>
</g>
<g id="clust2" class="cluster">
<title>cluster_CoursesModule_declarations</title>
<polygon fill="none" stroke="black" points="870,-40.8 870,-92.8 1697,-92.8 1697,-40.8 870,-40.8"/>
</g>
<g id="clust11" class="cluster">
<title>cluster_CoursesModule_providers</title>
<polygon fill="none" stroke="black" points="314,-40.8 314,-92.8 862,-92.8 862,-40.8 314,-40.8"/>
</g>
<g id="clust8" class="cluster">
<title>cluster_CoursesModule_imports</title>
<polygon fill="none" stroke="black" points="16,-40.8 16,-92.8 306,-92.8 306,-40.8 16,-40.8"/>
</g>
<!-- CourseComponent -->
<g id="node1" class="node">
<title>CourseComponent</title>
<polygon fill="#ffffb3" stroke="black" points="1689.49,-84.8 1568.51,-84.8 1568.51,-48.8 1689.49,-48.8 1689.49,-84.8"/>
<text text-anchor="middle" x="1629" y="-62.6" font-family="Times,serif" font-size="14.00">CourseComponent</text>
</g>
<!-- CoursesModule -->
<g id="node6" class="node">
<title>CoursesModule</title>
<polygon fill="#8dd3c7" stroke="black" points="912.15,-149.8 909.15,-153.8 888.15,-153.8 885.15,-149.8 807.85,-149.8 807.85,-113.8 912.15,-113.8 912.15,-149.8"/>
<text text-anchor="middle" x="860" y="-127.6" font-family="Times,serif" font-size="14.00">CoursesModule</text>
</g>
<!-- CourseComponent&#45;&gt;CoursesModule -->
<g id="edge1" class="edge">
<title>CourseComponent&#45;&gt;CoursesModule</title>
<path fill="none" stroke="black" d="M1629,-84.81C1629,-107.29 1629,-142.8 1629,-142.8 1629,-142.8 922.25,-142.8 922.25,-142.8"/>
<polygon fill="black" stroke="black" points="922.25,-139.3 912.25,-142.8 922.25,-146.3 922.25,-139.3"/>
</g>
<!-- CourseDialogComponent -->
<g id="node2" class="node">
<title>CourseDialogComponent</title>
<polygon fill="#ffffb3" stroke="black" points="1550.59,-84.8 1391.41,-84.8 1391.41,-48.8 1550.59,-48.8 1550.59,-84.8"/>
<text text-anchor="middle" x="1471" y="-62.6" font-family="Times,serif" font-size="14.00">CourseDialogComponent</text>
</g>
<!-- CourseDialogComponent&#45;&gt;CoursesModule -->
<g id="edge2" class="edge">
<title>CourseDialogComponent&#45;&gt;CoursesModule</title>
<path fill="none" stroke="black" d="M1471,-84.93C1471,-105.37 1471,-135.8 1471,-135.8 1471,-135.8 922.36,-135.8 922.36,-135.8"/>
<polygon fill="black" stroke="black" points="922.36,-132.3 912.36,-135.8 922.36,-139.3 922.36,-132.3"/>
</g>
<!-- CourseUserDialogComponent -->
<g id="node3" class="node">
<title>CourseUserDialogComponent</title>
<polygon fill="#ffffb3" stroke="black" points="1373.52,-84.8 1188.48,-84.8 1188.48,-48.8 1373.52,-48.8 1373.52,-84.8"/>
<text text-anchor="middle" x="1281" y="-62.6" font-family="Times,serif" font-size="14.00">CourseUserDialogComponent</text>
</g>
<!-- CourseUserDialogComponent&#45;&gt;CoursesModule -->
<g id="edge3" class="edge">
<title>CourseUserDialogComponent&#45;&gt;CoursesModule</title>
<path fill="none" stroke="black" d="M1281,-85.07C1281,-103.36 1281,-128.8 1281,-128.8 1281,-128.8 922.47,-128.8 922.47,-128.8"/>
<polygon fill="black" stroke="black" points="922.47,-125.3 912.47,-128.8 922.47,-132.3 922.47,-125.3"/>
</g>
<!-- CoursesComponent -->
<g id="node4" class="node">
<title>CoursesComponent</title>
<polygon fill="#ffffb3" stroke="black" points="1170.43,-84.8 1043.57,-84.8 1043.57,-48.8 1170.43,-48.8 1170.43,-84.8"/>
<text text-anchor="middle" x="1107" y="-62.6" font-family="Times,serif" font-size="14.00">CoursesComponent</text>
</g>
<!-- CoursesComponent&#45;&gt;CoursesModule -->
<g id="edge4" class="edge">
<title>CoursesComponent&#45;&gt;CoursesModule</title>
<path fill="none" stroke="black" d="M1107,-84.81C1107,-100.85 1107,-121.8 1107,-121.8 1107,-121.8 922.38,-121.8 922.38,-121.8"/>
<polygon fill="black" stroke="black" points="922.38,-118.3 912.38,-121.8 922.38,-125.3 922.38,-118.3"/>
</g>
<!-- CoursesListComponent -->
<g id="node5" class="node">
<title>CoursesListComponent</title>
<polygon fill="#ffffb3" stroke="black" points="1026.21,-84.8 877.79,-84.8 877.79,-48.8 1026.21,-48.8 1026.21,-84.8"/>
<text text-anchor="middle" x="952" y="-62.6" font-family="Times,serif" font-size="14.00">CoursesListComponent</text>
</g>
<!-- CoursesListComponent&#45;&gt;CoursesModule -->
<g id="edge5" class="edge">
<title>CoursesListComponent&#45;&gt;CoursesModule</title>
<path fill="none" stroke="black" d="M895.11,-84.91C895.11,-84.91 895.11,-103.79 895.11,-103.79"/>
<polygon fill="black" stroke="black" points="891.61,-103.79 895.11,-113.79 898.61,-103.79 891.61,-103.79"/>
</g>
<!-- CourseDialogComponent  -->
<g id="node9" class="node">
<title>CourseDialogComponent </title>
<polygon fill="#fb8072" stroke="black" points="1029.09,-214.8 866.91,-214.8 866.91,-178.8 1029.09,-178.8 1029.09,-214.8"/>
<text text-anchor="middle" x="948" y="-192.6" font-family="Times,serif" font-size="14.00">CourseDialogComponent </text>
</g>
<!-- CoursesModule&#45;&gt;CourseDialogComponent  -->
<g id="edge8" class="edge">
<title>CoursesModule&#45;&gt;CourseDialogComponent </title>
<path fill="none" stroke="black" stroke-dasharray="5,2" d="M889.51,-149.91C889.51,-149.91 889.51,-168.79 889.51,-168.79"/>
<polygon fill="black" stroke="black" points="886.01,-168.79 889.51,-178.79 893.01,-168.79 886.01,-168.79"/>
</g>
<!-- CoursesListComponent  -->
<g id="node10" class="node">
<title>CoursesListComponent </title>
<polygon fill="#fb8072" stroke="black" points="848.71,-214.8 697.29,-214.8 697.29,-178.8 848.71,-178.8 848.71,-214.8"/>
<text text-anchor="middle" x="773" y="-192.6" font-family="Times,serif" font-size="14.00">CoursesListComponent </text>
</g>
<!-- CoursesModule&#45;&gt;CoursesListComponent  -->
<g id="edge9" class="edge">
<title>CoursesModule&#45;&gt;CoursesListComponent </title>
<path fill="none" stroke="black" stroke-dasharray="5,2" d="M828.27,-149.91C828.27,-149.91 828.27,-168.79 828.27,-168.79"/>
<polygon fill="black" stroke="black" points="824.77,-168.79 828.27,-178.79 831.77,-168.79 824.77,-168.79"/>
</g>
<!-- CoursesRoutingModule -->
<g id="node7" class="node">
<title>CoursesRoutingModule</title>
<polygon fill="#8dd3c7" stroke="black" points="297.77,-84.8 294.77,-88.8 273.77,-88.8 270.77,-84.8 148.23,-84.8 148.23,-48.8 297.77,-48.8 297.77,-84.8"/>
<text text-anchor="middle" x="223" y="-62.6" font-family="Times,serif" font-size="14.00">CoursesRoutingModule</text>
</g>
<!-- CoursesRoutingModule&#45;&gt;CoursesModule -->
<g id="edge6" class="edge">
<title>CoursesRoutingModule&#45;&gt;CoursesModule</title>
<path fill="none" stroke="black" d="M223,-84.93C223,-105.37 223,-135.8 223,-135.8 223,-135.8 797.6,-135.8 797.6,-135.8"/>
<polygon fill="black" stroke="black" points="797.6,-139.3 807.6,-135.8 797.6,-132.3 797.6,-139.3"/>
</g>
<!-- MaterialModule -->
<g id="node8" class="node">
<title>MaterialModule</title>
<polygon fill="#8dd3c7" stroke="black" points="130.47,-84.8 127.47,-88.8 106.47,-88.8 103.47,-84.8 23.53,-84.8 23.53,-48.8 130.47,-48.8 130.47,-84.8"/>
<text text-anchor="middle" x="77" y="-62.6" font-family="Times,serif" font-size="14.00">MaterialModule</text>
</g>
<!-- MaterialModule&#45;&gt;CoursesModule -->
<g id="edge7" class="edge">
<title>MaterialModule&#45;&gt;CoursesModule</title>
<path fill="none" stroke="black" d="M77,-84.81C77,-107.29 77,-142.8 77,-142.8 77,-142.8 797.71,-142.8 797.71,-142.8"/>
<polygon fill="black" stroke="black" points="797.71,-146.3 807.71,-142.8 797.71,-139.3 797.71,-146.3"/>
</g>
<!-- CourseDataService -->
<g id="node11" class="node">
<title>CourseDataService</title>
<ellipse fill="#fdb462" stroke="black" cx="768" cy="-66.8" rx="85.65" ry="18"/>
<text text-anchor="middle" x="768" y="-62.6" font-family="Times,serif" font-size="14.00">CourseDataService</text>
</g>
<!-- CourseDataService&#45;&gt;CoursesModule -->
<g id="edge10" class="edge">
<title>CourseDataService&#45;&gt;CoursesModule</title>
<path fill="none" stroke="black" d="M830.62,-79.33C830.62,-79.33 830.62,-103.65 830.62,-103.65"/>
<polygon fill="black" stroke="black" points="827.12,-103.65 830.62,-113.65 834.12,-103.65 827.12,-103.65"/>
</g>
<!-- CourseEntityService -->
<g id="node12" class="node">
<title>CourseEntityService</title>
<ellipse fill="#fdb462" stroke="black" cx="573" cy="-66.8" rx="90.91" ry="18"/>
<text text-anchor="middle" x="573" y="-62.6" font-family="Times,serif" font-size="14.00">CourseEntityService</text>
</g>
<!-- CourseEntityService&#45;&gt;CoursesModule -->
<g id="edge11" class="edge">
<title>CourseEntityService&#45;&gt;CoursesModule</title>
<path fill="none" stroke="black" d="M573,-84.81C573,-100.85 573,-121.8 573,-121.8 573,-121.8 797.69,-121.8 797.69,-121.8"/>
<polygon fill="black" stroke="black" points="797.69,-125.3 807.69,-121.8 797.69,-118.3 797.69,-125.3"/>
</g>
<!-- CoursesService -->
<g id="node13" class="node">
<title>CoursesService</title>
<ellipse fill="#fdb462" stroke="black" cx="393" cy="-66.8" rx="71.2" ry="18"/>
<text text-anchor="middle" x="393" y="-62.6" font-family="Times,serif" font-size="14.00">CoursesService</text>
</g>
<!-- CoursesService&#45;&gt;CoursesModule -->
<g id="edge12" class="edge">
<title>CoursesService&#45;&gt;CoursesModule</title>
<path fill="none" stroke="black" d="M393,-85.07C393,-103.36 393,-128.8 393,-128.8 393,-128.8 797.79,-128.8 797.79,-128.8"/>
<polygon fill="black" stroke="black" points="797.79,-132.3 807.79,-128.8 797.79,-125.3 797.79,-132.3"/>
</g>
</g>
</svg>
