<?xml version="1.0" encoding="UTF-8" standalone="no"?>
<!DOCTYPE svg PUBLIC "-//W3C//DTD SVG 1.1//EN"
 "http://www.w3.org/Graphics/SVG/1.1/DTD/svg11.dtd">
<!-- Generated by graphviz version 2.47.3 (20210619.1520)
 -->
<!-- Title: dependencies Pages: 1 -->
<svg width="2174pt" height="247pt"
 viewBox="0.00 0.00 2174.00 246.80" xmlns="http://www.w3.org/2000/svg" xmlns:xlink="http://www.w3.org/1999/xlink">
<g id="graph0" class="graph" transform="scale(1 1) rotate(0) translate(4 242.8)">
<title>dependencies</title>
<polygon fill="white" stroke="transparent" points="-4,4 -4,-242.8 2170,-242.8 2170,4 -4,4"/>
<text text-anchor="middle" x="1083" y="-8.2" font-family="sans-serif" font-size="14.00">dependencies</text>
<g id="clust1" class="cluster">
<title>cluster_CourseWorksModule</title>
<polygon fill="none" stroke="black" stroke-dasharray="1,5" points="8,-32.8 8,-230.8 2158,-230.8 2158,-32.8 8,-32.8"/>
</g>
<g id="clust2" class="cluster">
<title>cluster_CourseWorksModule_declarations</title>
<polygon fill="none" stroke="black" points="1982,-40.8 1982,-92.8 2150,-92.8 2150,-40.8 1982,-40.8"/>
</g>
<g id="clust4" class="cluster">
<title>cluster_CourseWorksModule_imports</title>
<polygon fill="none" stroke="black" points="1652,-40.8 1652,-92.8 1974,-92.8 1974,-40.8 1652,-40.8"/>
</g>
<g id="clust5" class="cluster">
<title>cluster_CourseWorksModule_exports</title>
<polygon fill="none" stroke="black" points="1091,-170.8 1091,-222.8 1263,-222.8 1263,-170.8 1091,-170.8"/>
</g>
<g id="clust7" class="cluster">
<title>cluster_CourseWorksModule_providers</title>
<polygon fill="none" stroke="black" points="16,-40.8 16,-92.8 1644,-92.8 1644,-40.8 16,-40.8"/>
</g>
<!-- CourseWorkComponent -->
<g id="node1" class="node">
<title>CourseWorkComponent</title>
<polygon fill="#ffffb3" stroke="black" points="2142.36,-84.8 1989.64,-84.8 1989.64,-48.8 2142.36,-48.8 2142.36,-84.8"/>
<text text-anchor="middle" x="2066" y="-62.6" font-family="Times,serif" font-size="14.00">CourseWorkComponent</text>
</g>
<!-- CourseWorksModule -->
<g id="node2" class="node">
<title>CourseWorksModule</title>
<polygon fill="#8dd3c7" stroke="black" points="1245.03,-149.8 1242.03,-153.8 1221.03,-153.8 1218.03,-149.8 1108.97,-149.8 1108.97,-113.8 1245.03,-113.8 1245.03,-149.8"/>
<text text-anchor="middle" x="1177" y="-127.6" font-family="Times,serif" font-size="14.00">CourseWorksModule</text>
</g>
<!-- CourseWorkComponent&#45;&gt;CourseWorksModule -->
<g id="edge1" class="edge">
<title>CourseWorkComponent&#45;&gt;CourseWorksModule</title>
<path fill="none" stroke="black" d="M2066,-84.81C2066,-107.29 2066,-142.8 2066,-142.8 2066,-142.8 1255.28,-142.8 1255.28,-142.8"/>
<polygon fill="black" stroke="black" points="1255.28,-139.3 1245.28,-142.8 1255.28,-146.3 1255.28,-139.3"/>
</g>
<!-- CourseWorkComponent  -->
<g id="node5" class="node">
<title>CourseWorkComponent </title>
<polygon fill="#fb8072" stroke="black" points="1255.36,-214.8 1098.64,-214.8 1098.64,-178.8 1255.36,-178.8 1255.36,-214.8"/>
<text text-anchor="middle" x="1177" y="-192.6" font-family="Times,serif" font-size="14.00">CourseWorkComponent </text>
</g>
<!-- CourseWorksModule&#45;&gt;CourseWorkComponent  -->
<g id="edge4" class="edge">
<title>CourseWorksModule&#45;&gt;CourseWorkComponent </title>
<path fill="none" stroke="black" stroke-dasharray="5,2" d="M1177,-149.91C1177,-149.91 1177,-168.79 1177,-168.79"/>
<polygon fill="black" stroke="black" points="1173.5,-168.79 1177,-178.79 1180.5,-168.79 1173.5,-168.79"/>
</g>
<!-- CourseWorksRoutingModule -->
<g id="node3" class="node">
<title>CourseWorksRoutingModule</title>
<polygon fill="#8dd3c7" stroke="black" points="1965.64,-84.8 1962.64,-88.8 1941.64,-88.8 1938.64,-84.8 1784.36,-84.8 1784.36,-48.8 1965.64,-48.8 1965.64,-84.8"/>
<text text-anchor="middle" x="1875" y="-62.6" font-family="Times,serif" font-size="14.00">CourseWorksRoutingModule</text>
</g>
<!-- CourseWorksRoutingModule&#45;&gt;CourseWorksModule -->
<g id="edge2" class="edge">
<title>CourseWorksRoutingModule&#45;&gt;CourseWorksModule</title>
<path fill="none" stroke="black" d="M1875,-84.93C1875,-105.37 1875,-135.8 1875,-135.8 1875,-135.8 1255.2,-135.8 1255.2,-135.8"/>
<polygon fill="black" stroke="black" points="1255.2,-132.3 1245.2,-135.8 1255.2,-139.3 1255.2,-132.3"/>
</g>
<!-- MaterialModule -->
<g id="node4" class="node">
<title>MaterialModule</title>
<polygon fill="#8dd3c7" stroke="black" points="1766.47,-84.8 1763.47,-88.8 1742.47,-88.8 1739.47,-84.8 1659.53,-84.8 1659.53,-48.8 1766.47,-48.8 1766.47,-84.8"/>
<text text-anchor="middle" x="1713" y="-62.6" font-family="Times,serif" font-size="14.00">MaterialModule</text>
</g>
<!-- MaterialModule&#45;&gt;CourseWorksModule -->
<g id="edge3" class="edge">
<title>MaterialModule&#45;&gt;CourseWorksModule</title>
<path fill="none" stroke="black" d="M1713,-85.07C1713,-103.36 1713,-128.8 1713,-128.8 1713,-128.8 1255.16,-128.8 1255.16,-128.8"/>
<polygon fill="black" stroke="black" points="1255.16,-125.3 1245.16,-128.8 1255.16,-132.3 1255.16,-125.3"/>
</g>
<!-- CourseWorkDataService -->
<g id="node6" class="node">
<title>CourseWorkDataService</title>
<ellipse fill="#fdb462" stroke="black" cx="1528" cy="-66.8" rx="107.62" ry="18"/>
<text text-anchor="middle" x="1528" y="-62.6" font-family="Times,serif" font-size="14.00">CourseWorkDataService</text>
</g>
<!-- CourseWorkDataService&#45;&gt;CourseWorksModule -->
<g id="edge5" class="edge">
<title>CourseWorkDataService&#45;&gt;CourseWorksModule</title>
<path fill="none" stroke="black" d="M1528,-84.81C1528,-100.85 1528,-121.8 1528,-121.8 1528,-121.8 1255.09,-121.8 1255.09,-121.8"/>
<polygon fill="black" stroke="black" points="1255.09,-118.3 1245.09,-121.8 1255.09,-125.3 1255.09,-118.3"/>
</g>
<!-- CourseWorkEntityService -->
<g id="node7" class="node">
<title>CourseWorkEntityService</title>
<ellipse fill="#fdb462" stroke="black" cx="1289" cy="-66.8" rx="112.88" ry="18"/>
<text text-anchor="middle" x="1289" y="-62.6" font-family="Times,serif" font-size="14.00">CourseWorkEntityService</text>
</g>
<!-- CourseWorkEntityService&#45;&gt;CourseWorksModule -->
<g id="edge6" class="edge">
<title>CourseWorkEntityService&#45;&gt;CourseWorksModule</title>
<path fill="none" stroke="black" d="M1210.66,-79.95C1210.66,-79.95 1210.66,-103.49 1210.66,-103.49"/>
<polygon fill="black" stroke="black" points="1207.16,-103.49 1210.66,-113.49 1214.16,-103.49 1207.16,-103.49"/>
</g>
<!-- CourseWorksService -->
<g id="node8" class="node">
<title>CourseWorksService</title>
<ellipse fill="#fdb462" stroke="black" cx="1065" cy="-66.8" rx="93.18" ry="18"/>
<text text-anchor="middle" x="1065" y="-62.6" font-family="Times,serif" font-size="14.00">CourseWorksService</text>
</g>
<!-- CourseWorksService&#45;&gt;CourseWorksModule -->
<g id="edge7" class="edge">
<title>CourseWorksService&#45;&gt;CourseWorksModule</title>
<path fill="none" stroke="black" d="M1133.41,-79.03C1133.41,-79.03 1133.41,-103.48 1133.41,-103.48"/>
<polygon fill="black" stroke="black" points="1129.91,-103.48 1133.41,-113.48 1136.91,-103.48 1129.91,-103.48"/>
</g>
<!-- StudentSubmissionDataService -->
<g id="node9" class="node">
<title>StudentSubmissionDataService</title>
<ellipse fill="#fdb462" stroke="black" cx="821" cy="-66.8" rx="132.6" ry="18"/>
<text text-anchor="middle" x="821" y="-62.6" font-family="Times,serif" font-size="14.00">StudentSubmissionDataService</text>
</g>
<!-- StudentSubmissionDataService&#45;&gt;CourseWorksModule -->
<g id="edge8" class="edge">
<title>StudentSubmissionDataService&#45;&gt;CourseWorksModule</title>
<path fill="none" stroke="black" d="M821,-84.81C821,-100.85 821,-121.8 821,-121.8 821,-121.8 1098.78,-121.8 1098.78,-121.8"/>
<polygon fill="black" stroke="black" points="1098.78,-125.3 1108.78,-121.8 1098.78,-118.3 1098.78,-125.3"/>
</g>
<!-- StudentSubmissionEntityService -->
<g id="node10" class="node">
<title>StudentSubmissionEntityService</title>
<ellipse fill="#fdb462" stroke="black" cx="532" cy="-66.8" rx="138.36" ry="18"/>
<text text-anchor="middle" x="532" y="-62.6" font-family="Times,serif" font-size="14.00">StudentSubmissionEntityService</text>
</g>
<!-- StudentSubmissionEntityService&#45;&gt;CourseWorksModule -->
<g id="edge9" class="edge">
<title>StudentSubmissionEntityService&#45;&gt;CourseWorksModule</title>
<path fill="none" stroke="black" d="M532,-85.07C532,-103.36 532,-128.8 532,-128.8 532,-128.8 1098.89,-128.8 1098.89,-128.8"/>
<polygon fill="black" stroke="black" points="1098.89,-132.3 1108.89,-128.8 1098.89,-125.3 1098.89,-132.3"/>
</g>
<!-- TopicDataService -->
<g id="node11" class="node">
<title>TopicDataService</title>
<ellipse fill="#fdb462" stroke="black" cx="295" cy="-66.8" rx="80.99" ry="18"/>
<text text-anchor="middle" x="295" y="-62.6" font-family="Times,serif" font-size="14.00">TopicDataService</text>
</g>
<!-- TopicDataService&#45;&gt;CourseWorksModule -->
<g id="edge10" class="edge">
<title>TopicDataService&#45;&gt;CourseWorksModule</title>
<path fill="none" stroke="black" d="M295,-84.93C295,-105.37 295,-135.8 295,-135.8 295,-135.8 1098.89,-135.8 1098.89,-135.8"/>
<polygon fill="black" stroke="black" points="1098.89,-139.3 1108.89,-135.8 1098.89,-132.3 1098.89,-139.3"/>
</g>
<!-- TopicEntityService -->
<g id="node12" class="node">
<title>TopicEntityService</title>
<ellipse fill="#fdb462" stroke="black" cx="110" cy="-66.8" rx="86.25" ry="18"/>
<text text-anchor="middle" x="110" y="-62.6" font-family="Times,serif" font-size="14.00">TopicEntityService</text>
</g>
<!-- TopicEntityService&#45;&gt;CourseWorksModule -->
<g id="edge11" class="edge">
<title>TopicEntityService&#45;&gt;CourseWorksModule</title>
<path fill="none" stroke="black" d="M110,-84.81C110,-107.29 110,-142.8 110,-142.8 110,-142.8 1098.63,-142.8 1098.63,-142.8"/>
<polygon fill="black" stroke="black" points="1098.63,-146.3 1108.63,-142.8 1098.63,-139.3 1098.63,-146.3"/>
</g>
</g>
</svg>
