<?xml version="1.0" encoding="UTF-8" standalone="no"?>
<!DOCTYPE svg PUBLIC "-//W3C//DTD SVG 1.1//EN"
 "http://www.w3.org/Graphics/SVG/1.1/DTD/svg11.dtd">
<!-- Generated by graphviz version 2.47.3 (20210619.1520)
 -->
<!-- Title: dependencies Pages: 1 -->
<svg width="1378pt" height="174pt"
 viewBox="0.00 0.00 1378.00 173.80" xmlns="http://www.w3.org/2000/svg" xmlns:xlink="http://www.w3.org/1999/xlink">
<g id="graph0" class="graph" transform="scale(1 1) rotate(0) translate(4 169.8)">
<title>dependencies</title>
<polygon fill="white" stroke="transparent" points="-4,4 -4,-169.8 1374,-169.8 1374,4 -4,4"/>
<text text-anchor="middle" x="685" y="-8.2" font-family="sans-serif" font-size="14.00">dependencies</text>
<g id="clust1" class="cluster">
<title>cluster_SubjectsModule</title>
<polygon fill="none" stroke="black" stroke-dasharray="1,5" points="8,-32.8 8,-157.8 1362,-157.8 1362,-32.8 8,-32.8"/>
</g>
<g id="clust2" class="cluster">
<title>cluster_SubjectsModule_declarations</title>
<polygon fill="none" stroke="black" points="998,-40.8 998,-92.8 1354,-92.8 1354,-40.8 998,-40.8"/>
</g>
<g id="clust8" class="cluster">
<title>cluster_SubjectsModule_providers</title>
<polygon fill="none" stroke="black" points="308,-40.8 308,-92.8 990,-92.8 990,-40.8 308,-40.8"/>
</g>
<g id="clust5" class="cluster">
<title>cluster_SubjectsModule_imports</title>
<polygon fill="none" stroke="black" points="16,-40.8 16,-92.8 300,-92.8 300,-40.8 16,-40.8"/>
</g>
<!-- CourseRoomsComponent -->
<g id="node1" class="node">
<title>CourseRoomsComponent</title>
<polygon fill="#ffffb3" stroke="black" points="1346.16,-84.8 1185.84,-84.8 1185.84,-48.8 1346.16,-48.8 1346.16,-84.8"/>
<text text-anchor="middle" x="1266" y="-62.6" font-family="Times,serif" font-size="14.00">CourseRoomsComponent</text>
</g>
<!-- SubjectsModule -->
<g id="node3" class="node">
<title>SubjectsModule</title>
<polygon fill="#8dd3c7" stroke="black" points="684.49,-149.8 681.49,-153.8 660.49,-153.8 657.49,-149.8 577.51,-149.8 577.51,-113.8 684.49,-113.8 684.49,-149.8"/>
<text text-anchor="middle" x="631" y="-127.6" font-family="Times,serif" font-size="14.00">SubjectsModule</text>
</g>
<!-- CourseRoomsComponent&#45;&gt;SubjectsModule -->
<g id="edge1" class="edge">
<title>CourseRoomsComponent&#45;&gt;SubjectsModule</title>
<path fill="none" stroke="black" d="M1266,-85.09C1266,-107.01 1266,-140.8 1266,-140.8 1266,-140.8 694.59,-140.8 694.59,-140.8"/>
<polygon fill="black" stroke="black" points="694.59,-137.3 684.59,-140.8 694.59,-144.3 694.59,-137.3"/>
</g>
<!-- SubjectDialogComponent -->
<g id="node2" class="node">
<title>SubjectDialogComponent</title>
<polygon fill="#ffffb3" stroke="black" points="1167.93,-84.8 1006.07,-84.8 1006.07,-48.8 1167.93,-48.8 1167.93,-84.8"/>
<text text-anchor="middle" x="1087" y="-62.6" font-family="Times,serif" font-size="14.00">SubjectDialogComponent</text>
</g>
<!-- SubjectDialogComponent&#45;&gt;SubjectsModule -->
<g id="edge2" class="edge">
<title>SubjectDialogComponent&#45;&gt;SubjectsModule</title>
<path fill="none" stroke="black" d="M1087,-84.91C1087,-104.14 1087,-131.8 1087,-131.8 1087,-131.8 694.65,-131.8 694.65,-131.8"/>
<polygon fill="black" stroke="black" points="694.65,-128.3 684.65,-131.8 694.65,-135.3 694.65,-128.3"/>
</g>
<!-- SharedModule -->
<g id="node4" class="node">
<title>SharedModule</title>
<polygon fill="#8dd3c7" stroke="black" points="292.42,-84.8 289.42,-88.8 268.42,-88.8 265.42,-84.8 193.58,-84.8 193.58,-48.8 292.42,-48.8 292.42,-84.8"/>
<text text-anchor="middle" x="243" y="-62.6" font-family="Times,serif" font-size="14.00">SharedModule</text>
</g>
<!-- SharedModule&#45;&gt;SubjectsModule -->
<g id="edge3" class="edge">
<title>SharedModule&#45;&gt;SubjectsModule</title>
<path fill="none" stroke="black" d="M243,-84.91C243,-104.14 243,-131.8 243,-131.8 243,-131.8 567.46,-131.8 567.46,-131.8"/>
<polygon fill="black" stroke="black" points="567.46,-135.3 577.46,-131.8 567.46,-128.3 567.46,-135.3"/>
</g>
<!-- SubjectsRoutingModule -->
<g id="node5" class="node">
<title>SubjectsRoutingModule</title>
<polygon fill="#8dd3c7" stroke="black" points="176.11,-84.8 173.11,-88.8 152.11,-88.8 149.11,-84.8 23.89,-84.8 23.89,-48.8 176.11,-48.8 176.11,-84.8"/>
<text text-anchor="middle" x="100" y="-62.6" font-family="Times,serif" font-size="14.00">SubjectsRoutingModule</text>
</g>
<!-- SubjectsRoutingModule&#45;&gt;SubjectsModule -->
<g id="edge4" class="edge">
<title>SubjectsRoutingModule&#45;&gt;SubjectsModule</title>
<path fill="none" stroke="black" d="M100,-85.09C100,-107.01 100,-140.8 100,-140.8 100,-140.8 567.16,-140.8 567.16,-140.8"/>
<polygon fill="black" stroke="black" points="567.16,-144.3 577.16,-140.8 567.16,-137.3 567.16,-144.3"/>
</g>
<!-- CourseRoomDataService -->
<g id="node6" class="node">
<title>CourseRoomDataService</title>
<ellipse fill="#fdb462" stroke="black" cx="873" cy="-66.8" rx="109.37" ry="18"/>
<text text-anchor="middle" x="873" y="-62.6" font-family="Times,serif" font-size="14.00">CourseRoomDataService</text>
</g>
<!-- CourseRoomDataService&#45;&gt;SubjectsModule -->
<g id="edge5" class="edge">
<title>CourseRoomDataService&#45;&gt;SubjectsModule</title>
<path fill="none" stroke="black" d="M873,-84.83C873,-101.2 873,-122.8 873,-122.8 873,-122.8 694.71,-122.8 694.71,-122.8"/>
<polygon fill="black" stroke="black" points="694.71,-119.3 684.71,-122.8 694.71,-126.3 694.71,-119.3"/>
</g>
<!-- CourseRoomEntityService -->
<g id="node7" class="node">
<title>CourseRoomEntityService</title>
<ellipse fill="#fdb462" stroke="black" cx="631" cy="-66.8" rx="114.63" ry="18"/>
<text text-anchor="middle" x="631" y="-62.6" font-family="Times,serif" font-size="14.00">CourseRoomEntityService</text>
</g>
<!-- CourseRoomEntityService&#45;&gt;SubjectsModule -->
<g id="edge6" class="edge">
<title>CourseRoomEntityService&#45;&gt;SubjectsModule</title>
<path fill="none" stroke="black" d="M631,-84.91C631,-84.91 631,-103.79 631,-103.79"/>
<polygon fill="black" stroke="black" points="627.5,-103.79 631,-113.79 634.5,-103.79 627.5,-103.79"/>
</g>
<!-- RoomCourseService -->
<g id="node8" class="node">
<title>RoomCourseService</title>
<ellipse fill="#fdb462" stroke="black" cx="407" cy="-66.8" rx="90.91" ry="18"/>
<text text-anchor="middle" x="407" y="-62.6" font-family="Times,serif" font-size="14.00">RoomCourseService</text>
</g>
<!-- RoomCourseService&#45;&gt;SubjectsModule -->
<g id="edge7" class="edge">
<title>RoomCourseService&#45;&gt;SubjectsModule</title>
<path fill="none" stroke="black" d="M407,-84.83C407,-101.2 407,-122.8 407,-122.8 407,-122.8 567.35,-122.8 567.35,-122.8"/>
<polygon fill="black" stroke="black" points="567.35,-126.3 577.35,-122.8 567.35,-119.3 567.35,-126.3"/>
</g>
</g>
</svg>
