<?xml version="1.0" encoding="UTF-8" standalone="no"?>
<!DOCTYPE svg PUBLIC "-//W3C//DTD SVG 1.1//EN"
 "http://www.w3.org/Graphics/SVG/1.1/DTD/svg11.dtd">
<!-- Generated by graphviz version 2.47.3 (20210619.1520)
 -->
<!-- Title: dependencies Pages: 1 -->
<svg width="364pt" height="247pt"
 viewBox="0.00 0.00 364.00 246.80" xmlns="http://www.w3.org/2000/svg" xmlns:xlink="http://www.w3.org/1999/xlink">
<g id="graph0" class="graph" transform="scale(1 1) rotate(0) translate(4 242.8)">
<title>dependencies</title>
<polygon fill="white" stroke="transparent" points="-4,4 -4,-242.8 360,-242.8 360,4 -4,4"/>
<text text-anchor="middle" x="178" y="-8.2" font-family="sans-serif" font-size="14.00">dependencies</text>
<g id="clust1" class="cluster">
<title>cluster_MaterialModule</title>
<polygon fill="none" stroke="black" stroke-dasharray="1,5" points="8,-32.8 8,-230.8 348,-230.8 348,-32.8 8,-32.8"/>
</g>
<g id="clust6" class="cluster">
<title>cluster_MaterialModule_exports</title>
<polygon fill="none" stroke="black" points="16,-170.8 16,-222.8 340,-222.8 340,-170.8 16,-170.8"/>
</g>
<g id="clust2" class="cluster">
<title>cluster_MaterialModule_declarations</title>
<polygon fill="none" stroke="black" points="19,-40.8 19,-92.8 337,-92.8 337,-40.8 19,-40.8"/>
</g>
<!-- MaterialElevationDirective -->
<g id="node1" class="node">
<title>MaterialElevationDirective</title>
<polygon fill="#ffffb3" stroke="black" points="328.66,-84.8 159.34,-84.8 159.34,-48.8 328.66,-48.8 328.66,-84.8"/>
<text text-anchor="middle" x="244" y="-62.6" font-family="Times,serif" font-size="14.00">MaterialElevationDirective</text>
</g>
<!-- MaterialModule -->
<g id="node3" class="node">
<title>MaterialModule</title>
<polygon fill="#8dd3c7" stroke="black" points="138.47,-149.8 135.47,-153.8 114.47,-153.8 111.47,-149.8 31.53,-149.8 31.53,-113.8 138.47,-113.8 138.47,-149.8"/>
<text text-anchor="middle" x="85" y="-127.6" font-family="Times,serif" font-size="14.00">MaterialModule</text>
</g>
<!-- MaterialElevationDirective&#45;&gt;MaterialModule -->
<g id="edge1" class="edge">
<title>MaterialElevationDirective&#45;&gt;MaterialModule</title>
<path fill="none" stroke="black" d="M272.28,-84.82C272.28,-102.17 272.28,-125.8 272.28,-125.8 272.28,-125.8 148.67,-125.8 148.67,-125.8"/>
<polygon fill="black" stroke="black" points="148.67,-122.3 138.67,-125.8 148.67,-129.3 148.67,-122.3"/>
</g>
<!-- ParallaxDirective -->
<g id="node2" class="node">
<title>ParallaxDirective</title>
<polygon fill="#ffffb3" stroke="black" points="140.95,-84.8 27.05,-84.8 27.05,-48.8 140.95,-48.8 140.95,-84.8"/>
<text text-anchor="middle" x="84" y="-62.6" font-family="Times,serif" font-size="14.00">ParallaxDirective</text>
</g>
<!-- ParallaxDirective&#45;&gt;MaterialModule -->
<g id="edge2" class="edge">
<title>ParallaxDirective&#45;&gt;MaterialModule</title>
<path fill="none" stroke="black" d="M85,-84.91C85,-84.91 85,-103.79 85,-103.79"/>
<polygon fill="black" stroke="black" points="81.5,-103.79 85,-113.79 88.5,-103.79 81.5,-103.79"/>
</g>
<!-- MaterialElevationDirective  -->
<g id="node4" class="node">
<title>MaterialElevationDirective </title>
<polygon fill="#fb8072" stroke="black" points="332.16,-214.8 159.84,-214.8 159.84,-178.8 332.16,-178.8 332.16,-214.8"/>
<text text-anchor="middle" x="246" y="-192.6" font-family="Times,serif" font-size="14.00">MaterialElevationDirective </text>
</g>
<!-- MaterialModule&#45;&gt;MaterialElevationDirective  -->
<g id="edge3" class="edge">
<title>MaterialModule&#45;&gt;MaterialElevationDirective </title>
<path fill="none" stroke="black" stroke-dasharray="5,2" d="M138.65,-137.8C174.82,-137.8 215.97,-137.8 215.97,-137.8 215.97,-137.8 215.97,-168.78 215.97,-168.78"/>
<polygon fill="black" stroke="black" points="212.47,-168.78 215.97,-178.78 219.47,-168.78 212.47,-168.78"/>
</g>
<!-- ParallaxDirective  -->
<g id="node5" class="node">
<title>ParallaxDirective </title>
<polygon fill="#fb8072" stroke="black" points="141.95,-214.8 24.05,-214.8 24.05,-178.8 141.95,-178.8 141.95,-214.8"/>
<text text-anchor="middle" x="83" y="-192.6" font-family="Times,serif" font-size="14.00">ParallaxDirective </text>
</g>
<!-- MaterialModule&#45;&gt;ParallaxDirective  -->
<g id="edge4" class="edge">
<title>MaterialModule&#45;&gt;ParallaxDirective </title>
<path fill="none" stroke="black" stroke-dasharray="5,2" d="M85,-149.91C85,-149.91 85,-168.79 85,-168.79"/>
<polygon fill="black" stroke="black" points="81.5,-168.79 85,-178.79 88.5,-168.79 81.5,-168.79"/>
</g>
</g>
</svg>
