<?xml version="1.0" encoding="UTF-8" standalone="no"?>
<!DOCTYPE svg PUBLIC "-//W3C//DTD SVG 1.1//EN"
 "http://www.w3.org/Graphics/SVG/1.1/DTD/svg11.dtd">
<!-- Generated by graphviz version 2.47.3 (20210619.1520)
 -->
<!-- Title: dependencies Pages: 1 -->
<svg width="1521pt" height="174pt"
 viewBox="0.00 0.00 1521.00 173.80" xmlns="http://www.w3.org/2000/svg" xmlns:xlink="http://www.w3.org/1999/xlink">
<g id="graph0" class="graph" transform="scale(1 1) rotate(0) translate(4 169.8)">
<title>dependencies</title>
<polygon fill="white" stroke="transparent" points="-4,4 -4,-169.8 1517,-169.8 1517,4 -4,4"/>
<text text-anchor="middle" x="756.5" y="-8.2" font-family="sans-serif" font-size="14.00">dependencies</text>
<g id="clust1" class="cluster">
<title>cluster_RoomsModule</title>
<polygon fill="none" stroke="black" stroke-dasharray="1,5" points="8,-32.8 8,-157.8 1505,-157.8 1505,-32.8 8,-32.8"/>
</g>
<g id="clust2" class="cluster">
<title>cluster_RoomsModule_declarations</title>
<polygon fill="none" stroke="black" points="646,-40.8 646,-92.8 1497,-92.8 1497,-40.8 646,-40.8"/>
</g>
<g id="clust11" class="cluster">
<title>cluster_RoomsModule_providers</title>
<polygon fill="none" stroke="black" points="300,-40.8 300,-92.8 638,-92.8 638,-40.8 300,-40.8"/>
</g>
<g id="clust8" class="cluster">
<title>cluster_RoomsModule_imports</title>
<polygon fill="none" stroke="black" points="16,-40.8 16,-92.8 292,-92.8 292,-40.8 16,-40.8"/>
</g>
<!-- RoomComponent -->
<g id="node1" class="node">
<title>RoomComponent</title>
<polygon fill="#ffffb3" stroke="black" points="1488.56,-84.8 1373.44,-84.8 1373.44,-48.8 1488.56,-48.8 1488.56,-84.8"/>
<text text-anchor="middle" x="1431" y="-62.6" font-family="Times,serif" font-size="14.00">RoomComponent</text>
</g>
<!-- RoomsModule -->
<g id="node6" class="node">
<title>RoomsModule</title>
<polygon fill="#8dd3c7" stroke="black" points="793.72,-149.8 790.72,-153.8 769.72,-153.8 766.72,-149.8 694.28,-149.8 694.28,-113.8 793.72,-113.8 793.72,-149.8"/>
<text text-anchor="middle" x="744" y="-127.6" font-family="Times,serif" font-size="14.00">RoomsModule</text>
</g>
<!-- RoomComponent&#45;&gt;RoomsModule -->
<g id="edge1" class="edge">
<title>RoomComponent&#45;&gt;RoomsModule</title>
<path fill="none" stroke="black" d="M1431,-84.81C1431,-107.29 1431,-142.8 1431,-142.8 1431,-142.8 803.68,-142.8 803.68,-142.8"/>
<polygon fill="black" stroke="black" points="803.68,-139.3 793.68,-142.8 803.68,-146.3 803.68,-139.3"/>
</g>
<!-- RoomCourseDialogComponent -->
<g id="node2" class="node">
<title>RoomCourseDialogComponent</title>
<polygon fill="#ffffb3" stroke="black" points="1355.82,-84.8 1162.18,-84.8 1162.18,-48.8 1355.82,-48.8 1355.82,-84.8"/>
<text text-anchor="middle" x="1259" y="-62.6" font-family="Times,serif" font-size="14.00">RoomCourseDialogComponent</text>
</g>
<!-- RoomCourseDialogComponent&#45;&gt;RoomsModule -->
<g id="edge2" class="edge">
<title>RoomCourseDialogComponent&#45;&gt;RoomsModule</title>
<path fill="none" stroke="black" d="M1259,-84.93C1259,-105.37 1259,-135.8 1259,-135.8 1259,-135.8 803.85,-135.8 803.85,-135.8"/>
<polygon fill="black" stroke="black" points="803.85,-132.3 793.85,-135.8 803.85,-139.3 803.85,-132.3"/>
</g>
<!-- RoomDialogComponent -->
<g id="node3" class="node">
<title>RoomDialogComponent</title>
<polygon fill="#ffffb3" stroke="black" points="1144.66,-84.8 991.34,-84.8 991.34,-48.8 1144.66,-48.8 1144.66,-84.8"/>
<text text-anchor="middle" x="1068" y="-62.6" font-family="Times,serif" font-size="14.00">RoomDialogComponent</text>
</g>
<!-- RoomDialogComponent&#45;&gt;RoomsModule -->
<g id="edge3" class="edge">
<title>RoomDialogComponent&#45;&gt;RoomsModule</title>
<path fill="none" stroke="black" d="M1068,-85.07C1068,-103.36 1068,-128.8 1068,-128.8 1068,-128.8 803.91,-128.8 803.91,-128.8"/>
<polygon fill="black" stroke="black" points="803.91,-125.3 793.91,-128.8 803.91,-132.3 803.91,-125.3"/>
</g>
<!-- RoomsComponent -->
<g id="node4" class="node">
<title>RoomsComponent</title>
<polygon fill="#ffffb3" stroke="black" points="973.5,-84.8 852.5,-84.8 852.5,-48.8 973.5,-48.8 973.5,-84.8"/>
<text text-anchor="middle" x="913" y="-62.6" font-family="Times,serif" font-size="14.00">RoomsComponent</text>
</g>
<!-- RoomsComponent&#45;&gt;RoomsModule -->
<g id="edge4" class="edge">
<title>RoomsComponent&#45;&gt;RoomsModule</title>
<path fill="none" stroke="black" d="M913,-84.81C913,-100.85 913,-121.8 913,-121.8 913,-121.8 803.79,-121.8 803.79,-121.8"/>
<polygon fill="black" stroke="black" points="803.79,-118.3 793.79,-121.8 803.79,-125.3 803.79,-118.3"/>
</g>
<!-- UserRoomDialogComponent -->
<g id="node5" class="node">
<title>UserRoomDialogComponent</title>
<polygon fill="#ffffb3" stroke="black" points="834.09,-84.8 653.91,-84.8 653.91,-48.8 834.09,-48.8 834.09,-84.8"/>
<text text-anchor="middle" x="744" y="-62.6" font-family="Times,serif" font-size="14.00">UserRoomDialogComponent</text>
</g>
<!-- UserRoomDialogComponent&#45;&gt;RoomsModule -->
<g id="edge5" class="edge">
<title>UserRoomDialogComponent&#45;&gt;RoomsModule</title>
<path fill="none" stroke="black" d="M744,-84.91C744,-84.91 744,-103.79 744,-103.79"/>
<polygon fill="black" stroke="black" points="740.5,-103.79 744,-113.79 747.5,-103.79 740.5,-103.79"/>
</g>
<!-- RoomsRoutingModule -->
<g id="node7" class="node">
<title>RoomsRoutingModule</title>
<polygon fill="#8dd3c7" stroke="black" points="284.34,-84.8 281.34,-88.8 260.34,-88.8 257.34,-84.8 139.66,-84.8 139.66,-48.8 284.34,-48.8 284.34,-84.8"/>
<text text-anchor="middle" x="212" y="-62.6" font-family="Times,serif" font-size="14.00">RoomsRoutingModule</text>
</g>
<!-- RoomsRoutingModule&#45;&gt;RoomsModule -->
<g id="edge6" class="edge">
<title>RoomsRoutingModule&#45;&gt;RoomsModule</title>
<path fill="none" stroke="black" d="M212,-84.93C212,-105.37 212,-135.8 212,-135.8 212,-135.8 683.95,-135.8 683.95,-135.8"/>
<polygon fill="black" stroke="black" points="683.95,-139.3 693.95,-135.8 683.95,-132.3 683.95,-139.3"/>
</g>
<!-- SharedModule -->
<g id="node8" class="node">
<title>SharedModule</title>
<polygon fill="#8dd3c7" stroke="black" points="122.42,-84.8 119.42,-88.8 98.42,-88.8 95.42,-84.8 23.58,-84.8 23.58,-48.8 122.42,-48.8 122.42,-84.8"/>
<text text-anchor="middle" x="73" y="-62.6" font-family="Times,serif" font-size="14.00">SharedModule</text>
</g>
<!-- SharedModule&#45;&gt;RoomsModule -->
<g id="edge7" class="edge">
<title>SharedModule&#45;&gt;RoomsModule</title>
<path fill="none" stroke="black" d="M73,-84.81C73,-107.29 73,-142.8 73,-142.8 73,-142.8 684.39,-142.8 684.39,-142.8"/>
<polygon fill="black" stroke="black" points="684.39,-146.3 694.39,-142.8 684.39,-139.3 684.39,-146.3"/>
</g>
<!-- RoomService -->
<g id="node9" class="node">
<title>RoomService</title>
<ellipse fill="#fdb462" stroke="black" cx="566" cy="-66.8" rx="63.7" ry="18"/>
<text text-anchor="middle" x="566" y="-62.6" font-family="Times,serif" font-size="14.00">RoomService</text>
</g>
<!-- RoomService&#45;&gt;RoomsModule -->
<g id="edge8" class="edge">
<title>RoomService&#45;&gt;RoomsModule</title>
<path fill="none" stroke="black" d="M566,-84.81C566,-100.85 566,-121.8 566,-121.8 566,-121.8 683.94,-121.8 683.94,-121.8"/>
<polygon fill="black" stroke="black" points="683.94,-125.3 693.94,-121.8 683.94,-118.3 683.94,-125.3"/>
</g>
<!-- UserProfilesService -->
<g id="node10" class="node">
<title>UserProfilesService</title>
<ellipse fill="#fdb462" stroke="black" cx="396" cy="-66.8" rx="88.01" ry="18"/>
<text text-anchor="middle" x="396" y="-62.6" font-family="Times,serif" font-size="14.00">UserProfilesService</text>
</g>
<!-- UserProfilesService&#45;&gt;RoomsModule -->
<g id="edge9" class="edge">
<title>UserProfilesService&#45;&gt;RoomsModule</title>
<path fill="none" stroke="black" d="M396,-85.07C396,-103.36 396,-128.8 396,-128.8 396,-128.8 684.14,-128.8 684.14,-128.8"/>
<polygon fill="black" stroke="black" points="684.14,-132.3 694.14,-128.8 684.14,-125.3 684.14,-132.3"/>
</g>
</g>
</svg>
